<svg width="30" height="30" viewBox="0 0 30 30" fill="none" xmlns="http://www.w3.org/2000/svg">
<circle cx="15" cy="15" r="15" fill="#FF5C00"/>
<g clip-path="url(#clip0_1702_62112)">
<path d="M8.38597 10.1134L10.6507 10.1134L11.1115 9.17123C11.4789 8.41944 12.2515 7.94141 13.0989 7.94141L16.9083 7.94141C17.7558 7.94141 18.5283 8.41943 18.8958 9.17123L19.3566 10.1134L21.6213 10.1134C22.8346 10.1134 23.8271 11.0907 23.8271 12.2854L23.8271 19.8875C23.8271 21.0821 22.8346 22.0594 21.6213 22.0594L8.38597 22.0594C7.17264 22.0594 6.18009 21.0821 6.18009 19.8875L6.18009 12.2854C6.18009 11.0907 7.17264 10.1134 8.38597 10.1134ZM15.0036 20.4304C17.4401 20.4304 19.4154 18.4854 19.4154 16.0864C19.4154 13.6874 17.4401 11.7425 15.0036 11.7425C12.5671 11.7425 10.5919 13.6874 10.5919 16.0864C10.5919 18.4854 12.5671 20.4304 15.0036 20.4304Z" fill="white"/>
<path d="M15.0036 18.9097C13.42 18.9097 12.1362 17.6456 12.1362 16.0863C12.1362 14.527 13.42 13.2629 15.0036 13.2629C16.5873 13.2629 17.8711 14.527 17.8711 16.0863C17.8711 17.6456 16.5873 18.9097 15.0036 18.9097Z" fill="white"/>
</g>
<defs>
<clipPath id="clip0_1702_62112">
<rect width="17.6471" height="14.1176" fill="white" transform="matrix(-1 8.74228e-08 8.74228e-08 1 23.8271 7.94141)"/>
</clipPath>
</defs>
</svg>
