<svg width="47" height="24" viewBox="0 0 47 24" fill="none" xmlns="http://www.w3.org/2000/svg">
<path fill-rule="evenodd" clip-rule="evenodd" d="M10.5 0C4.70101 0 0 4.70101 0 10.5C0 13.8446 1.56375 16.8239 4 18.7468V24L8.56356 20.8218C9.19118 20.9388 9.83845 21 10.5 21H36.5C42.299 21 47 16.299 47 10.5C47 4.70101 42.299 0 36.5 0H10.5Z" fill="#FF5C00"/>
<path d="M10.567 15.154C8.50998 15.154 6.84898 13.68 6.84898 10.963C6.84898 8.279 8.56498 6.717 10.633 6.717C11.667 6.717 12.492 7.201 13.02 7.751L12.162 8.796C11.744 8.389 11.282 8.114 10.655 8.114C9.43398 8.114 8.50998 9.17 8.50998 10.908C8.50998 12.69 9.33498 13.746 10.633 13.746C11.326 13.746 11.876 13.416 12.305 12.943L13.163 13.966C12.492 14.747 11.623 15.154 10.567 15.154ZM14.3647 15V6.86H15.9927V13.636H19.3037V15H14.3647ZM20.6141 15V6.86H22.2421V15H20.6141ZM27.446 15.154C25.389 15.154 23.728 13.68 23.728 10.963C23.728 8.279 25.444 6.717 27.512 6.717C28.546 6.717 29.371 7.201 29.899 7.751L29.041 8.796C28.623 8.389 28.161 8.114 27.534 8.114C26.313 8.114 25.389 9.17 25.389 10.908C25.389 12.69 26.214 13.746 27.512 13.746C28.205 13.746 28.755 13.416 29.184 12.943L30.042 13.966C29.371 14.747 28.502 15.154 27.446 15.154ZM31.2437 15V6.86H32.8717V10.391H32.8937L35.5997 6.86H37.3927L34.8957 10.061L37.8217 15H36.0507L33.9387 11.348L32.8717 12.712V15H31.2437ZM39.1807 12.228L38.9387 8.169L38.8947 6.64H40.5117L40.4677 8.169L40.2367 12.228H39.1807ZM39.6977 15.154C39.1257 15.154 38.6967 14.703 38.6967 14.098C38.6967 13.493 39.1257 13.053 39.6977 13.053C40.2807 13.053 40.7097 13.493 40.7097 14.098C40.7097 14.703 40.2807 15.154 39.6977 15.154Z" fill="white"/>
</svg>
