<svg width="88" height="115" viewBox="0 0 88 115" fill="none" xmlns="http://www.w3.org/2000/svg">
<g opacity="0.8">
<path d="M4.85925 75.9888L4.97601 75.9894L83.0703 76.2884L83.2642 76.2892L83.2205 85.9341L83.0397 85.9343C82.9026 89.1852 80.3771 92.4602 75.3001 95.2855C62.4006 102.463 37.909 104.027 20.5935 98.7797C10.0948 95.598 4.6461 90.6425 4.85777 85.6348L4.81238 85.6355L4.85925 75.9888Z" fill="url(#paint0_linear_1698_48334)"/>
<path d="M67.35 63.9812C50.0345 58.7335 25.5404 60.2976 12.6409 67.4748C-0.258668 74.6519 3.3215 84.7232 20.637 89.9709C37.9525 95.2186 62.4442 93.6538 75.3437 86.4767C88.2426 79.302 84.6655 69.2289 67.35 63.9812Z" fill="url(#paint1_linear_1698_48334)"/>
<path d="M67.35 63.2763C50.0345 58.0286 25.5405 59.5927 12.6409 66.7699C-0.258651 73.947 3.3215 84.0183 20.637 89.266C37.9525 94.5137 62.4442 92.9489 75.3437 85.7718C88.2433 78.5946 84.6655 68.524 67.35 63.2763Z" fill="url(#paint2_radial_1698_48334)"/>
<path d="M62.3435 66.4719C48.8373 62.3782 29.7362 63.5999 19.6745 69.1963C14.3686 72.1468 12.6407 75.7264 14.1705 79.053C11.4337 75.3743 13.4171 71.5545 19.4408 68.2025C29.5032 62.6037 48.6037 61.3844 62.1099 65.4782C68.4929 67.4127 72.1902 70.2385 73.28 72.8252C71.4463 70.3613 67.7583 68.1129 62.3435 66.4719Z" fill="url(#paint3_linear_1698_48334)"/>
<path d="M67.7758 82.6804C57.7165 88.2775 38.6104 89.4978 25.1067 85.4048C19.6895 83.7632 16.0008 81.5172 14.1702 79.0515C12.6398 75.7274 14.3676 72.1478 19.6742 69.1948C29.7366 63.596 48.837 62.3767 62.3432 66.4705C67.7605 68.1121 71.4485 70.3605 73.2797 72.8237C74.807 76.1496 73.0816 79.7299 67.7758 82.6804Z" fill="url(#paint4_linear_1698_48334)"/>
<path d="M62.3173 66.9287C48.8111 62.8349 29.71 64.0566 19.6482 69.653C15.8738 71.7527 13.9176 74.4438 13.6506 76.8629C13.5717 74.2065 15.5237 71.5115 19.6759 69.2004C29.7384 63.6015 48.8388 62.3823 62.345 66.476C67.7598 68.117 71.4502 70.3661 73.2815 72.8293C73.7242 73.7881 73.8842 74.7694 73.7758 75.7504C73.7553 75.0129 73.5849 74.2789 73.2538 73.5587C71.419 71.0892 67.7321 68.5696 62.3173 66.9287Z" fill="url(#paint5_linear_1698_48334)"/>
<path d="M66.8151 82.0808C72.1216 79.1278 73.8495 75.5482 72.3191 72.2241C71.5689 71.2142 70.5028 70.2414 69.1381 69.3291C70.9749 70.4075 72.3604 71.589 73.279 72.8241C74.8094 76.1481 73.0816 79.7278 67.775 82.6807C57.7158 88.2778 38.6097 89.4982 25.106 85.4051C21.9092 84.4377 19.3165 83.258 17.3505 81.9468C19.1763 83.0168 21.4473 83.9871 24.146 84.8052C37.6491 88.9007 56.7551 87.6804 66.8151 82.0808Z" fill="#F3D689"/>
<path d="M75.3434 85.7723C62.4438 92.9495 37.9522 94.5142 20.6366 89.2665C14.7682 87.4886 10.4793 85.1553 7.87399 82.5697C7.89438 82.4583 7.90593 82.3977 7.90593 82.3977C18.145 89.4801 29.8292 92.0793 48.275 91.1779C70.7149 90.0797 80.2743 82.1347 80.2877 82.1251C79.0569 83.3949 77.4129 84.6216 75.3434 85.7723Z" fill="#F3D689"/>
<path d="M12.6422 66.7722C22.9374 61.0439 40.6177 58.8916 56.1414 60.9234C56.139 60.9227 12.769 56.9243 4.90206 76.1446C5.03136 72.8835 7.55576 69.6028 12.6422 66.7722Z" fill="url(#paint6_radial_1698_48334)"/>
<path d="M12.6422 66.7722C22.9374 61.0439 40.6177 58.8916 56.1414 60.9234C56.139 60.9227 12.769 56.9243 4.90206 76.1446C5.03136 72.8835 7.55576 69.6028 12.6422 66.7722Z" fill="#F3D689"/>
</g>
<g opacity="0.8">
<path d="M4.85925 59.9888L4.97601 59.9894L83.0703 60.2884L83.2642 60.2892L83.2205 69.9341L83.0397 69.9343C82.9026 73.1852 80.3771 76.4602 75.3001 79.2855C62.4006 86.4626 37.909 88.0274 20.5935 82.7797C10.0948 79.598 4.6461 74.6425 4.85777 69.6348L4.81238 69.6355L4.85925 59.9888Z" fill="url(#paint7_linear_1698_48334)"/>
<path d="M67.35 47.9812C50.0345 42.7335 25.5404 44.2976 12.6409 51.4748C-0.258668 58.6519 3.3215 68.7232 20.637 73.9709C37.9525 79.2186 62.4442 77.6538 75.3437 70.4767C88.2426 63.302 84.6655 53.2289 67.35 47.9812Z" fill="url(#paint8_linear_1698_48334)"/>
<path d="M67.35 47.2763C50.0345 42.0286 25.5405 43.5927 12.6409 50.7699C-0.258651 57.947 3.3215 68.0183 20.637 73.266C37.9525 78.5137 62.4442 76.9489 75.3437 69.7718C88.2433 62.5946 84.6655 52.524 67.35 47.2763Z" fill="url(#paint9_radial_1698_48334)"/>
<path d="M62.3435 50.4719C48.8373 46.3782 29.7362 47.5999 19.6745 53.1963C14.3686 56.1468 12.6407 59.7264 14.1705 63.053C11.4337 59.3743 13.4171 55.5545 19.4408 52.2025C29.5032 46.6037 48.6037 45.3844 62.1099 49.4782C68.4929 51.4127 72.1902 54.2385 73.28 56.8252C71.4463 54.3613 67.7583 52.1129 62.3435 50.4719Z" fill="url(#paint10_linear_1698_48334)"/>
<path d="M67.7758 66.6804C57.7165 72.2775 38.6104 73.4978 25.1067 69.4048C19.6895 67.7632 16.0008 65.5172 14.1702 63.0515C12.6398 59.7274 14.3676 56.1478 19.6742 53.1948C29.7366 47.596 48.837 46.3767 62.3432 50.4705C67.7605 52.1121 71.4485 54.3605 73.2797 56.8237C74.807 60.1496 73.0816 63.7299 67.7758 66.6804Z" fill="url(#paint11_linear_1698_48334)"/>
<path d="M62.3173 50.9287C48.8111 46.8349 29.71 48.0566 19.6482 53.653C15.8738 55.7527 13.9176 58.4438 13.6506 60.8629C13.5717 58.2065 15.5237 55.5115 19.6759 53.2004C29.7384 47.6015 48.8388 46.3823 62.345 50.476C67.7598 52.117 71.4502 54.3661 73.2815 56.8293C73.7242 57.7881 73.8842 58.7694 73.7758 59.7504C73.7553 59.0129 73.5849 58.2789 73.2538 57.5587C71.419 55.0892 67.7321 52.5696 62.3173 50.9287Z" fill="url(#paint12_linear_1698_48334)"/>
<path d="M66.8151 66.0808C72.1216 63.1278 73.8495 59.5482 72.3191 56.2241C71.5689 55.2142 70.5028 54.2414 69.1381 53.3291C70.9749 54.4075 72.3604 55.589 73.279 56.8241C74.8094 60.1481 73.0816 63.7278 67.775 66.6807C57.7158 72.2778 38.6097 73.4982 25.106 69.4051C21.9092 68.4377 19.3165 67.258 17.3505 65.9468C19.1763 67.0168 21.4473 67.9871 24.146 68.8052C37.6491 72.9007 56.7551 71.6804 66.8151 66.0808Z" fill="#F3D689"/>
<path d="M75.3434 69.7723C62.4438 76.9495 37.9522 78.5142 20.6366 73.2665C14.7682 71.4886 10.4793 69.1553 7.87399 66.5697C7.89438 66.4583 7.90593 66.3977 7.90593 66.3977C18.145 73.4801 29.8292 76.0793 48.275 75.1779C70.7149 74.0797 80.2743 66.1347 80.2877 66.1251C79.0569 67.3949 77.4129 68.6216 75.3434 69.7723Z" fill="#F3D689"/>
<path d="M12.6422 50.7722C22.9374 45.0439 40.6177 42.8916 56.1414 44.9234C56.139 44.9227 12.769 40.9243 4.90206 60.1446C5.03136 56.8835 7.55576 53.6028 12.6422 50.7722Z" fill="url(#paint13_radial_1698_48334)"/>
<path d="M12.6422 50.7722C22.9374 45.0439 40.6177 42.8916 56.1414 44.9234C56.139 44.9227 12.769 40.9243 4.90206 60.1446C5.03136 56.8835 7.55576 53.6028 12.6422 50.7722Z" fill="#F3D689"/>
</g>
<g opacity="0.8">
<path d="M4.85925 43.9888L4.97601 43.9894L83.0703 44.2884L83.2642 44.2892L83.2205 53.9341L83.0397 53.9343C82.9026 57.1852 80.3771 60.4602 75.3001 63.2855C62.4006 70.4626 37.909 72.0274 20.5935 66.7797C10.0948 63.598 4.6461 58.6425 4.85777 53.6348L4.81238 53.6355L4.85925 43.9888Z" fill="url(#paint14_linear_1698_48334)"/>
<path d="M67.35 31.9812C50.0345 26.7335 25.5404 28.2976 12.6409 35.4748C-0.258668 42.6519 3.3215 52.7232 20.637 57.9709C37.9525 63.2186 62.4442 61.6538 75.3437 54.4767C88.2426 47.302 84.6655 37.2289 67.35 31.9812Z" fill="url(#paint15_linear_1698_48334)"/>
<path d="M67.35 31.2763C50.0345 26.0286 25.5405 27.5927 12.6409 34.7699C-0.258651 41.947 3.3215 52.0183 20.637 57.266C37.9525 62.5137 62.4442 60.9489 75.3437 53.7718C88.2433 46.5946 84.6655 36.524 67.35 31.2763Z" fill="url(#paint16_radial_1698_48334)"/>
<path d="M62.3435 34.4719C48.8373 30.3782 29.7362 31.5999 19.6745 37.1963C14.3686 40.1468 12.6407 43.7264 14.1705 47.053C11.4337 43.3743 13.4171 39.5545 19.4408 36.2025C29.5032 30.6037 48.6037 29.3844 62.1099 33.4782C68.4929 35.4127 72.1902 38.2385 73.28 40.8252C71.4463 38.3613 67.7583 36.1129 62.3435 34.4719Z" fill="url(#paint17_linear_1698_48334)"/>
<path d="M67.7758 50.6804C57.7165 56.2775 38.6104 57.4978 25.1067 53.4048C19.6895 51.7632 16.0008 49.5172 14.1702 47.0515C12.6398 43.7274 14.3676 40.1478 19.6742 37.1948C29.7366 31.596 48.837 30.3767 62.3432 34.4705C67.7605 36.1121 71.4485 38.3605 73.2797 40.8237C74.807 44.1496 73.0816 47.7299 67.7758 50.6804Z" fill="url(#paint18_linear_1698_48334)"/>
<path d="M62.3173 34.9287C48.8111 30.8349 29.71 32.0566 19.6482 37.653C15.8738 39.7527 13.9176 42.4438 13.6506 44.8629C13.5717 42.2065 15.5237 39.5115 19.6759 37.2004C29.7384 31.6015 48.8388 30.3823 62.345 34.476C67.7598 36.117 71.4502 38.3661 73.2815 40.8293C73.7242 41.7881 73.8842 42.7694 73.7758 43.7504C73.7553 43.0129 73.5849 42.2789 73.2538 41.5587C71.419 39.0892 67.7321 36.5696 62.3173 34.9287Z" fill="url(#paint19_linear_1698_48334)"/>
<path d="M66.8151 50.0808C72.1216 47.1278 73.8495 43.5482 72.3191 40.2241C71.5689 39.2142 70.5028 38.2414 69.1381 37.3291C70.9749 38.4075 72.3604 39.589 73.279 40.8241C74.8094 44.1481 73.0816 47.7278 67.775 50.6807C57.7158 56.2778 38.6097 57.4982 25.106 53.4051C21.9092 52.4377 19.3165 51.258 17.3505 49.9468C19.1763 51.0168 21.4473 51.9871 24.146 52.8052C37.6491 56.9007 56.7551 55.6804 66.8151 50.0808Z" fill="#F3D689"/>
<path d="M75.3434 53.7723C62.4438 60.9495 37.9522 62.5142 20.6366 57.2665C14.7682 55.4886 10.4793 53.1553 7.87399 50.5697C7.89438 50.4583 7.90593 50.3977 7.90593 50.3977C18.145 57.4801 29.8292 60.0793 48.275 59.1779C70.7149 58.0797 80.2743 50.1347 80.2877 50.1251C79.0569 51.3949 77.4129 52.6216 75.3434 53.7723Z" fill="#F3D689"/>
<path d="M12.6422 34.7722C22.9374 29.0439 40.6177 26.8916 56.1414 28.9234C56.139 28.9227 12.769 24.9243 4.90206 44.1446C5.03136 40.8835 7.55576 37.6028 12.6422 34.7722Z" fill="url(#paint20_radial_1698_48334)"/>
<path d="M12.6422 34.7722C22.9374 29.0439 40.6177 26.8916 56.1414 28.9234C56.139 28.9227 12.769 24.9243 4.90206 44.1446C5.03136 40.8835 7.55576 37.6028 12.6422 34.7722Z" fill="#F3D689"/>
</g>
<g opacity="0.8">
<path d="M4.85925 27.9888L4.97601 27.9894L83.0703 28.2884L83.2642 28.2892L83.2205 37.9341L83.0397 37.9343C82.9026 41.1852 80.3771 44.4602 75.3001 47.2855C62.4006 54.4626 37.909 56.0274 20.5935 50.7797C10.0948 47.598 4.6461 42.6425 4.85777 37.6348L4.81238 37.6355L4.85925 27.9888Z" fill="url(#paint21_linear_1698_48334)"/>
<path d="M67.35 15.9812C50.0345 10.7335 25.5404 12.2976 12.6409 19.4748C-0.258668 26.6519 3.3215 36.7232 20.637 41.9709C37.9525 47.2186 62.4442 45.6538 75.3437 38.4767C88.2426 31.302 84.6655 21.2289 67.35 15.9812Z" fill="url(#paint22_linear_1698_48334)"/>
<path d="M67.35 15.2763C50.0345 10.0286 25.5405 11.5927 12.6409 18.7699C-0.258651 25.947 3.3215 36.0183 20.637 41.266C37.9525 46.5137 62.4442 44.9489 75.3437 37.7718C88.2433 30.5946 84.6655 20.524 67.35 15.2763Z" fill="url(#paint23_radial_1698_48334)"/>
<path d="M62.3435 18.4719C48.8373 14.3782 29.7362 15.5999 19.6745 21.1963C14.3686 24.1468 12.6407 27.7264 14.1705 31.053C11.4337 27.3743 13.4171 23.5545 19.4408 20.2025C29.5032 14.6037 48.6037 13.3844 62.1099 17.4782C68.4929 19.4127 72.1902 22.2385 73.28 24.8252C71.4463 22.3613 67.7583 20.1129 62.3435 18.4719Z" fill="url(#paint24_linear_1698_48334)"/>
<path d="M67.7758 34.6804C57.7165 40.2775 38.6104 41.4978 25.1067 37.4048C19.6895 35.7632 16.0008 33.5172 14.1702 31.0515C12.6398 27.7274 14.3676 24.1478 19.6742 21.1948C29.7366 15.596 48.837 14.3767 62.3432 18.4705C67.7605 20.1121 71.4485 22.3605 73.2797 24.8237C74.807 28.1496 73.0816 31.7299 67.7758 34.6804Z" fill="url(#paint25_linear_1698_48334)"/>
<path d="M62.3173 18.9287C48.8111 14.8349 29.71 16.0566 19.6482 21.653C15.8738 23.7527 13.9176 26.4438 13.6506 28.8629C13.5717 26.2065 15.5237 23.5115 19.6759 21.2004C29.7384 15.6015 48.8388 14.3823 62.345 18.476C67.7598 20.117 71.4502 22.3661 73.2815 24.8293C73.7242 25.7881 73.8842 26.7694 73.7758 27.7504C73.7553 27.0129 73.5849 26.2789 73.2538 25.5587C71.419 23.0892 67.7321 20.5696 62.3173 18.9287Z" fill="url(#paint26_linear_1698_48334)"/>
<path d="M66.8151 34.0808C72.1216 31.1278 73.8495 27.5482 72.3191 24.2241C71.5689 23.2142 70.5028 22.2414 69.1381 21.3291C70.9749 22.4075 72.3604 23.589 73.279 24.8241C74.8094 28.1481 73.0816 31.7278 67.775 34.6807C57.7158 40.2778 38.6097 41.4982 25.106 37.4051C21.9092 36.4377 19.3165 35.258 17.3505 33.9468C19.1763 35.0168 21.4473 35.9871 24.146 36.8052C37.6491 40.9007 56.7551 39.6804 66.8151 34.0808Z" fill="#F3D689"/>
<path d="M75.3434 37.7723C62.4438 44.9495 37.9522 46.5142 20.6366 41.2665C14.7682 39.4886 10.4793 37.1553 7.87399 34.5697C7.89438 34.4583 7.90593 34.3977 7.90593 34.3977C18.145 41.4801 29.8292 44.0793 48.275 43.1779C70.7149 42.0797 80.2743 34.1347 80.2877 34.1251C79.0569 35.3949 77.4129 36.6216 75.3434 37.7723Z" fill="#F3D689"/>
<path d="M12.6422 18.7722C22.9374 13.0439 40.6177 10.8916 56.1414 12.9234C56.139 12.9227 12.769 8.92431 4.90206 28.1446C5.03136 24.8835 7.55576 21.6028 12.6422 18.7722Z" fill="url(#paint27_radial_1698_48334)"/>
<path d="M12.6422 18.7722C22.9374 13.0439 40.6177 10.8916 56.1414 12.9234C56.139 12.9227 12.769 8.92431 4.90206 28.1446C5.03136 24.8835 7.55576 21.6028 12.6422 18.7722Z" fill="#F3D689"/>
</g>
<defs>
<linearGradient id="paint0_linear_1698_48334" x1="83.2086" y1="89.1619" x2="4.80187" y2="88.8178" gradientUnits="userSpaceOnUse">
<stop stop-color="#A07836"/>
<stop offset="0.5215" stop-color="#C1914C"/>
<stop offset="0.7471" stop-color="#8E5C2F"/>
<stop offset="1" stop-color="#634323"/>
</linearGradient>
<linearGradient id="paint1_linear_1698_48334" x1="83.0882" y1="77.127" x2="4.89616" y2="76.7838" gradientUnits="userSpaceOnUse">
<stop stop-color="#A07836"/>
<stop offset="0.5215" stop-color="#966A3B"/>
<stop offset="1" stop-color="#402910"/>
</linearGradient>
<radialGradient id="paint2_radial_1698_48334" cx="0" cy="0" r="1" gradientUnits="userSpaceOnUse" gradientTransform="translate(44.0469 76.2026) rotate(-179.781) scale(40.4598 16.2431)">
<stop stop-color="#EDC573"/>
<stop offset="0.7856" stop-color="#DDAC5B"/>
<stop offset="0.9042" stop-color="#EBC36F"/>
</radialGradient>
<linearGradient id="paint3_linear_1698_48334" x1="61.9296" y1="66.7582" x2="12.1321" y2="75.8307" gradientUnits="userSpaceOnUse">
<stop stop-color="#9A6F31"/>
<stop offset="0.5203" stop-color="#DDAC5B"/>
<stop offset="1" stop-color="#B28A42"/>
</linearGradient>
<linearGradient id="paint4_linear_1698_48334" x1="30.862" y1="61.1337" x2="52.619" y2="86.128" gradientUnits="userSpaceOnUse">
<stop stop-color="#EAC26A"/>
<stop offset="1" stop-color="#C69347"/>
</linearGradient>
<linearGradient id="paint5_linear_1698_48334" x1="64.577" y1="67.7914" x2="9.70468" y2="80.0498" gradientUnits="userSpaceOnUse">
<stop offset="0.00040993" stop-color="#CD9A4C"/>
<stop offset="0.1982" stop-color="#E1B96B"/>
<stop offset="0.4142" stop-color="#F2D587"/>
<stop offset="0.54" stop-color="#F9DF91"/>
<stop offset="0.5456" stop-color="#F8DE8F"/>
<stop offset="0.6285" stop-color="#EDCC7A"/>
<stop offset="0.7208" stop-color="#E5BF6B"/>
<stop offset="0.8299" stop-color="#E0B763"/>
<stop offset="0.9967" stop-color="#DFB560"/>
</linearGradient>
<radialGradient id="paint6_radial_1698_48334" cx="0" cy="0" r="1" gradientUnits="userSpaceOnUse" gradientTransform="translate(44.0488 76.2025) rotate(-179.781) scale(40.4599 16.2431)">
<stop stop-color="#EDC573"/>
<stop offset="0.7856" stop-color="#DDAC5B"/>
<stop offset="0.9042" stop-color="#EBC36F"/>
</radialGradient>
<linearGradient id="paint7_linear_1698_48334" x1="83.2086" y1="73.1619" x2="4.80187" y2="72.8178" gradientUnits="userSpaceOnUse">
<stop stop-color="#A07836"/>
<stop offset="0.5215" stop-color="#C1914C"/>
<stop offset="0.7471" stop-color="#8E5C2F"/>
<stop offset="1" stop-color="#634323"/>
</linearGradient>
<linearGradient id="paint8_linear_1698_48334" x1="83.0882" y1="61.127" x2="4.89616" y2="60.7838" gradientUnits="userSpaceOnUse">
<stop stop-color="#A07836"/>
<stop offset="0.5215" stop-color="#966A3B"/>
<stop offset="1" stop-color="#402910"/>
</linearGradient>
<radialGradient id="paint9_radial_1698_48334" cx="0" cy="0" r="1" gradientUnits="userSpaceOnUse" gradientTransform="translate(44.0469 60.2026) rotate(-179.781) scale(40.4598 16.2431)">
<stop stop-color="#EDC573"/>
<stop offset="0.7856" stop-color="#DDAC5B"/>
<stop offset="0.9042" stop-color="#EBC36F"/>
</radialGradient>
<linearGradient id="paint10_linear_1698_48334" x1="61.9296" y1="50.7582" x2="12.1321" y2="59.8307" gradientUnits="userSpaceOnUse">
<stop stop-color="#9A6F31"/>
<stop offset="0.5203" stop-color="#DDAC5B"/>
<stop offset="1" stop-color="#B28A42"/>
</linearGradient>
<linearGradient id="paint11_linear_1698_48334" x1="30.862" y1="45.1337" x2="52.619" y2="70.128" gradientUnits="userSpaceOnUse">
<stop stop-color="#EAC26A"/>
<stop offset="1" stop-color="#C69347"/>
</linearGradient>
<linearGradient id="paint12_linear_1698_48334" x1="64.577" y1="51.7914" x2="9.70468" y2="64.0498" gradientUnits="userSpaceOnUse">
<stop offset="0.00040993" stop-color="#CD9A4C"/>
<stop offset="0.1982" stop-color="#E1B96B"/>
<stop offset="0.4142" stop-color="#F2D587"/>
<stop offset="0.54" stop-color="#F9DF91"/>
<stop offset="0.5456" stop-color="#F8DE8F"/>
<stop offset="0.6285" stop-color="#EDCC7A"/>
<stop offset="0.7208" stop-color="#E5BF6B"/>
<stop offset="0.8299" stop-color="#E0B763"/>
<stop offset="0.9967" stop-color="#DFB560"/>
</linearGradient>
<radialGradient id="paint13_radial_1698_48334" cx="0" cy="0" r="1" gradientUnits="userSpaceOnUse" gradientTransform="translate(44.0488 60.2025) rotate(-179.781) scale(40.4599 16.2431)">
<stop stop-color="#EDC573"/>
<stop offset="0.7856" stop-color="#DDAC5B"/>
<stop offset="0.9042" stop-color="#EBC36F"/>
</radialGradient>
<linearGradient id="paint14_linear_1698_48334" x1="83.2086" y1="57.1619" x2="4.80187" y2="56.8178" gradientUnits="userSpaceOnUse">
<stop stop-color="#A07836"/>
<stop offset="0.5215" stop-color="#C1914C"/>
<stop offset="0.7471" stop-color="#8E5C2F"/>
<stop offset="1" stop-color="#634323"/>
</linearGradient>
<linearGradient id="paint15_linear_1698_48334" x1="83.0882" y1="45.127" x2="4.89616" y2="44.7838" gradientUnits="userSpaceOnUse">
<stop stop-color="#A07836"/>
<stop offset="0.5215" stop-color="#966A3B"/>
<stop offset="1" stop-color="#402910"/>
</linearGradient>
<radialGradient id="paint16_radial_1698_48334" cx="0" cy="0" r="1" gradientUnits="userSpaceOnUse" gradientTransform="translate(44.0469 44.2026) rotate(-179.781) scale(40.4598 16.2431)">
<stop stop-color="#EDC573"/>
<stop offset="0.7856" stop-color="#DDAC5B"/>
<stop offset="0.9042" stop-color="#EBC36F"/>
</radialGradient>
<linearGradient id="paint17_linear_1698_48334" x1="61.9296" y1="34.7582" x2="12.1321" y2="43.8307" gradientUnits="userSpaceOnUse">
<stop stop-color="#9A6F31"/>
<stop offset="0.5203" stop-color="#DDAC5B"/>
<stop offset="1" stop-color="#B28A42"/>
</linearGradient>
<linearGradient id="paint18_linear_1698_48334" x1="30.862" y1="29.1337" x2="52.619" y2="54.128" gradientUnits="userSpaceOnUse">
<stop stop-color="#EAC26A"/>
<stop offset="1" stop-color="#C69347"/>
</linearGradient>
<linearGradient id="paint19_linear_1698_48334" x1="64.577" y1="35.7914" x2="9.70468" y2="48.0498" gradientUnits="userSpaceOnUse">
<stop offset="0.00040993" stop-color="#CD9A4C"/>
<stop offset="0.1982" stop-color="#E1B96B"/>
<stop offset="0.4142" stop-color="#F2D587"/>
<stop offset="0.54" stop-color="#F9DF91"/>
<stop offset="0.5456" stop-color="#F8DE8F"/>
<stop offset="0.6285" stop-color="#EDCC7A"/>
<stop offset="0.7208" stop-color="#E5BF6B"/>
<stop offset="0.8299" stop-color="#E0B763"/>
<stop offset="0.9967" stop-color="#DFB560"/>
</linearGradient>
<radialGradient id="paint20_radial_1698_48334" cx="0" cy="0" r="1" gradientUnits="userSpaceOnUse" gradientTransform="translate(44.0488 44.2025) rotate(-179.781) scale(40.4599 16.2431)">
<stop stop-color="#EDC573"/>
<stop offset="0.7856" stop-color="#DDAC5B"/>
<stop offset="0.9042" stop-color="#EBC36F"/>
</radialGradient>
<linearGradient id="paint21_linear_1698_48334" x1="83.2086" y1="41.1619" x2="4.80187" y2="40.8178" gradientUnits="userSpaceOnUse">
<stop stop-color="#A07836"/>
<stop offset="0.5215" stop-color="#C1914C"/>
<stop offset="0.7471" stop-color="#8E5C2F"/>
<stop offset="1" stop-color="#634323"/>
</linearGradient>
<linearGradient id="paint22_linear_1698_48334" x1="83.0882" y1="29.127" x2="4.89616" y2="28.7838" gradientUnits="userSpaceOnUse">
<stop stop-color="#A07836"/>
<stop offset="0.5215" stop-color="#966A3B"/>
<stop offset="1" stop-color="#402910"/>
</linearGradient>
<radialGradient id="paint23_radial_1698_48334" cx="0" cy="0" r="1" gradientUnits="userSpaceOnUse" gradientTransform="translate(44.0469 28.2026) rotate(-179.781) scale(40.4598 16.2431)">
<stop stop-color="#EDC573"/>
<stop offset="0.7856" stop-color="#DDAC5B"/>
<stop offset="0.9042" stop-color="#EBC36F"/>
</radialGradient>
<linearGradient id="paint24_linear_1698_48334" x1="61.9296" y1="18.7582" x2="12.1321" y2="27.8307" gradientUnits="userSpaceOnUse">
<stop stop-color="#9A6F31"/>
<stop offset="0.5203" stop-color="#DDAC5B"/>
<stop offset="1" stop-color="#B28A42"/>
</linearGradient>
<linearGradient id="paint25_linear_1698_48334" x1="30.862" y1="13.1337" x2="52.619" y2="38.128" gradientUnits="userSpaceOnUse">
<stop stop-color="#EAC26A"/>
<stop offset="1" stop-color="#C69347"/>
</linearGradient>
<linearGradient id="paint26_linear_1698_48334" x1="64.577" y1="19.7914" x2="9.70468" y2="32.0498" gradientUnits="userSpaceOnUse">
<stop offset="0.00040993" stop-color="#CD9A4C"/>
<stop offset="0.1982" stop-color="#E1B96B"/>
<stop offset="0.4142" stop-color="#F2D587"/>
<stop offset="0.54" stop-color="#F9DF91"/>
<stop offset="0.5456" stop-color="#F8DE8F"/>
<stop offset="0.6285" stop-color="#EDCC7A"/>
<stop offset="0.7208" stop-color="#E5BF6B"/>
<stop offset="0.8299" stop-color="#E0B763"/>
<stop offset="0.9967" stop-color="#DFB560"/>
</linearGradient>
<radialGradient id="paint27_radial_1698_48334" cx="0" cy="0" r="1" gradientUnits="userSpaceOnUse" gradientTransform="translate(44.0488 28.2025) rotate(-179.781) scale(40.4599 16.2431)">
<stop stop-color="#EDC573"/>
<stop offset="0.7856" stop-color="#DDAC5B"/>
<stop offset="0.9042" stop-color="#EBC36F"/>
</radialGradient>
</defs>
</svg>
