<svg width="18" height="18" viewBox="0 0 18 18" fill="none" xmlns="http://www.w3.org/2000/svg">
<rect width="18" height="18" rx="9" fill="#FF5C00"/>
<path d="M13 13.5V12.5C13 11.9696 12.7893 11.4609 12.4142 11.0858C12.0391 10.7107 11.5304 10.5 11 10.5H7C6.46957 10.5 5.96086 10.7107 5.58579 11.0858C5.21071 11.4609 5 11.9696 5 12.5V13.5" stroke="white" stroke-linecap="round" stroke-linejoin="round"/>
<path d="M9 8C10.1046 8 11 7.10457 11 6C11 4.89543 10.1046 4 9 4C7.89543 4 7 4.89543 7 6C7 7.10457 7.89543 8 9 8Z" stroke="white" stroke-linecap="round" stroke-linejoin="round"/>
</svg>
