<svg width="44" height="44" viewBox="0 0 44 44" fill="none" xmlns="http://www.w3.org/2000/svg">
<circle cx="22" cy="22" r="21" stroke="#FF5C00" stroke-width="2"/>
<circle cx="22" cy="22" r="18" fill="#FFD6CA"/>
<path d="M30.7657 17.4961H14.0503C12.9161 17.4961 12 16.5727 12 15.4385V12.0503C12 10.9161 12.9161 10 14.0503 10H30.7585C31.8927 10 32.8088 10.9161 32.8088 12.0503V15.4385C32.8161 16.5727 31.8927 17.4961 30.7657 17.4961Z" fill="white"/>
<path d="M13.4434 17.2634L22.4663 20.6879L31.8528 17.3507L13.4434 17.2634Z" fill="white"/>
<path d="M20.8386 10H16.9561V19.8155H20.8386V10Z" fill="#FF5C00"/>
<path d="M27.8533 10H23.9707V19.8155H27.8533V10Z" fill="#FF5C00"/>
<path d="M31.098 19.1748L23.3038 14.6743C22.7512 14.3543 22.0751 14.3543 21.5225 14.6743L13.7283 19.1748C13.1757 19.4947 12.834 20.0837 12.834 20.7162V29.7174C12.834 30.3572 13.1757 30.9461 13.7283 31.2588L21.5225 35.7593C22.0751 36.0793 22.7512 36.0793 23.3038 35.7593L31.098 31.2588C31.6506 30.9389 31.9923 30.3499 31.9923 29.7174V20.7162C31.9923 20.0837 31.6506 19.4947 31.098 19.1748Z" fill="url(#paint0_linear_2662_6076)"/>
<path d="M22.4016 25.0638C23.9636 25.0638 25.2299 23.7976 25.2299 22.2355C25.2299 20.6735 23.9636 19.4072 22.4016 19.4072C20.8395 19.4072 19.5732 20.6735 19.5732 22.2355C19.5732 23.7976 20.8395 25.0638 22.4016 25.0638Z" fill="#FF5C00"/>
<path d="M22.3989 30.9322C24.9648 30.9322 27.0449 29.7082 27.0449 28.1984C27.0449 26.6886 24.9648 25.4646 22.3989 25.4646C19.833 25.4646 17.7529 26.6886 17.7529 28.1984C17.7529 29.7082 19.833 30.9322 22.3989 30.9322Z" fill="#FF5C00"/>
<defs>
<linearGradient id="paint0_linear_2662_6076" x1="18.0051" y1="16.4992" x2="28.0052" y2="33.9993" gradientUnits="userSpaceOnUse">
<stop stop-color="white"/>
<stop offset="0.991171" stop-color="#F2F2F2"/>
</linearGradient>
</defs>
</svg>
