<svg width="29" height="26" viewBox="0 0 29 26" fill="none" xmlns="http://www.w3.org/2000/svg">
<path d="M22.8869 25.7242H4.76638C3.17833 25.7242 1.88281 24.437 1.88281 22.8406V2.88967C1.88281 1.30162 3.16997 0.0061053 4.76638 0.0061053H24.2075H27.4421C27.4421 0.0061053 26.857 -0.0774763 26.3722 0.373865C25.8122 0.900429 25.7704 1.36013 25.7704 1.36013V22.8406C25.7621 24.437 24.4749 25.7242 22.8869 25.7242Z" fill="url(#paint0_linear_1698_52976)"/>
<path d="M27.2874 0.00585938C28.1316 0.00585938 28.8253 0.691229 28.8253 1.54376V4.04285H25.7579V1.54376C25.7495 0.691229 26.4433 0.00585938 27.2874 0.00585938Z" fill="#FF5C00"/>
<path d="M24.222 25.9999H1.53791C0.693731 25.9999 0 25.3145 0 24.462V21.9629H25.7515V24.462C25.7515 25.3145 25.0661 25.9999 24.222 25.9999Z" fill="#FF9769"/>
<path d="M24.2254 25.9999C23.3812 25.9999 22.6875 25.3145 22.6875 24.462V21.9629H25.7549V24.462C25.7549 25.3145 25.0696 25.9999 24.2254 25.9999Z" fill="#FF5C00"/>
<path d="M19.837 8.03807H8.01025C7.45861 8.03807 7.01562 7.59509 7.01562 7.04345C7.01562 6.49181 7.45861 6.04883 8.01025 6.04883H19.837C20.3887 6.04883 20.8317 6.49181 20.8317 7.04345C20.84 7.59509 20.3887 8.03807 19.837 8.03807Z" fill="#FFF5F2"/>
<path d="M19.837 12.6514H8.01025C7.45861 12.6514 7.01562 12.2084 7.01562 11.6567C7.01562 11.1051 7.45861 10.6621 8.01025 10.6621H19.837C20.3887 10.6621 20.8317 11.1051 20.8317 11.6567C20.84 12.2 20.3887 12.6514 19.837 12.6514Z" fill="#FFF5F2"/>
<path d="M16.0174 17.1072H7.85979C7.39174 17.1072 7.01562 16.7311 7.01562 16.263V15.9538C7.01562 15.4857 7.39174 15.1096 7.85979 15.1096H16.0174C16.4854 15.1096 16.8615 15.4857 16.8615 15.9538V16.263C16.8532 16.7311 16.4771 17.1072 16.0174 17.1072Z" fill="#FFF5F2"/>
<defs>
<linearGradient id="paint0_linear_1698_52976" x1="14.6624" y1="0" x2="14.6624" y2="25.7242" gradientUnits="userSpaceOnUse">
<stop stop-color="#FF9769"/>
<stop offset="1" stop-color="#FF5C00"/>
</linearGradient>
</defs>
</svg>
