<svg width="28" height="28" viewBox="0 0 28 28" fill="none" xmlns="http://www.w3.org/2000/svg">
<path d="M24.1252 28H3.87482C1.73643 28 0 26.2636 0 24.1252V3.87482C0 1.73643 1.73643 0 3.87482 0H24.1252C26.2636 0 28 1.73643 28 3.87482V24.1252C28 26.2636 26.2636 28 24.1252 28Z" fill="url(#paint0_linear_1698_53277)"/>
<path d="M5.40625 8.75404C5.40625 8.75404 8.01894 5.37764 12.8504 6.4388C17.6819 7.49995 17.9391 9.08364 23.3655 8.09484L26.5329 18.9395C26.5329 18.9395 24.4186 20.7242 20.182 19.4058C15.9454 18.0874 14.2974 17.0262 11.122 17.7497C7.94659 18.4733 8.14757 19.4701 8.14757 19.4701L5.40625 8.75404Z" fill="#F7FEFC"/>
<path d="M22.1047 14.1299C22.0456 13.9723 21.9591 13.8113 21.8481 13.6509C21.4726 13.1092 20.8308 12.5818 20.1185 12.2495C20.0781 12.2307 20.0371 12.212 19.9956 12.1943C19.8568 12.212 19.7197 12.237 19.5831 12.262C18.5476 12.4544 17.6964 13.1821 17.7192 13.1826C17.7175 13.1826 17.7232 13.1781 17.7334 13.1707C17.9491 12.9812 18.1721 12.8384 18.4076 12.7633C18.4395 12.7531 18.4719 12.744 18.5044 12.7366C18.5556 12.7246 18.6108 12.7183 18.6688 12.7166C19.0085 12.7087 19.4574 12.8742 19.8721 13.1274C20.259 13.3641 20.6152 13.6765 20.824 13.9957C21.0556 14.3496 21.0874 14.7063 20.795 14.9811C20.3256 15.4215 18.122 14.7712 17.9365 14.7148C17.936 14.7148 17.936 14.7154 17.936 14.716C18.1084 14.7928 19.4392 15.4875 20.63 15.5421C20.8604 15.5529 21.0926 15.5415 21.2985 15.4932C21.4789 15.4511 21.6501 15.3845 21.7958 15.2832C22.2072 14.9993 22.2732 14.5794 22.1047 14.1299Z" fill="#E6E7E8"/>
<path d="M19.5842 12.2624C19.7196 12.2345 19.8573 12.2123 19.9967 12.1947C19.372 11.9261 18.7034 11.8118 18.1197 11.9716C16.5414 12.4035 15.4501 15.8337 13.3984 15.6841C13.399 15.6847 13.4001 15.6853 13.4007 15.6853C14.5085 16.1108 15.478 15.8702 16.1021 15.2386C16.7883 14.5445 17.1604 13.6791 17.7203 13.1824C17.6975 13.1824 18.5487 12.4547 19.5842 12.2624Z" fill="#E6E7E8"/>
<path d="M17.7337 13.1709C17.7232 13.1785 17.7173 13.1832 17.7191 13.1832C17.7237 13.1785 17.729 13.1744 17.7337 13.1709Z" fill="#E6E7E8"/>
<path d="M12.3656 15C12.2302 15.0279 12.0925 15.0501 11.9531 15.0677C12.5778 15.3363 13.2464 15.4507 13.8307 15.2908C15.409 14.8589 16.5003 11.4287 18.5519 11.5783C18.5508 11.5777 18.5502 11.5777 18.5497 11.5772C17.4419 11.1516 16.4724 11.3923 15.8482 12.0238C15.1621 12.7179 14.79 13.5828 14.2301 14.08C14.2523 14.08 13.4011 14.8077 12.3656 15Z" fill="#E6E7E8"/>
<path d="M14.2188 14.0923C14.2293 14.0846 14.2346 14.08 14.2334 14.08C14.2287 14.0841 14.224 14.0882 14.2188 14.0923Z" fill="#E6E7E8"/>
<path d="M9.84517 13.1328C9.90434 13.2904 9.99082 13.4514 10.1018 13.6113C10.4767 14.1529 11.1191 14.6803 11.8314 15.0126C11.8718 15.0314 11.9133 15.0502 11.9543 15.0672C12.0937 15.0496 12.2303 15.0251 12.3668 14.9995C13.4017 14.8072 14.2535 14.0795 14.2307 14.0795C14.2324 14.0795 14.2273 14.0841 14.2165 14.0915C14.0009 14.2804 13.7778 14.4237 13.5423 14.4988C13.5104 14.5091 13.4786 14.5182 13.4456 14.5256C13.3943 14.5375 13.3392 14.5438 13.2806 14.5455C12.9409 14.5535 12.492 14.3879 12.0772 14.1347C11.6903 13.898 11.3341 13.5857 11.1253 13.2665C10.8938 12.912 10.8437 12.5502 11.1373 12.2753C11.6067 11.835 13.8324 12.4921 13.9781 12.5359C13.9781 12.5359 13.9787 12.5354 13.9792 12.5348C13.8728 12.479 12.4937 11.769 11.3028 11.7144C11.0724 11.7035 10.8488 11.7178 10.6429 11.7661C10.4625 11.8082 10.2952 11.8765 10.1496 11.9772C9.7382 12.2617 9.67676 12.6833 9.84517 13.1328Z" fill="#E6E7E8"/>
<path d="M17.6312 14.2987C17.6517 14.6947 16.9114 15.0218 15.9778 15.0309C15.0441 15.0395 14.2709 14.726 14.2504 14.33C14.2299 13.9345 14.9702 13.6062 15.9038 13.5977C16.8375 13.5892 17.6113 13.9027 17.6312 14.2987Z" fill="#E6E7E8"/>
<path d="M12.4531 10.787C12.4531 10.787 14.2482 11.2649 15.8953 12.8842C17.5749 14.5353 19.1572 15.102 20.0789 15.3643C20.0789 15.3643 19.1225 14.702 18.7538 14.603C17.2244 14.1934 15.0908 11.7861 13.203 10.7995" fill="#E24E26"/>
<path d="M17.6312 12.7994C17.6517 13.7331 16.9114 14.5063 15.9778 14.5268C15.0441 14.5473 14.2709 13.8071 14.2504 12.8734C14.2299 11.9397 14.9702 11.1665 15.9038 11.146C16.8375 11.1256 17.6113 11.8658 17.6312 12.7994Z" fill="url(#paint1_radial_1698_53277)"/>
<path d="M19.5653 10.944C19.7007 10.907 19.8384 10.8774 19.9772 10.8541C19.3502 10.4797 18.6805 10.3175 18.0979 10.5326C16.523 11.1129 15.4596 15.8165 13.4062 15.5941C13.4068 15.5946 13.408 15.5952 13.4091 15.5958C14.5203 16.1898 15.4881 15.8672 16.1077 15.0046C16.7882 14.0567 17.1534 12.871 17.7093 12.1934C17.686 12.1928 18.5314 11.1994 19.5653 10.944Z" fill="url(#paint2_linear_1698_53277)"/>
<path d="M22.0974 13.5306C22.0371 13.3133 21.9489 13.0914 21.8368 12.8706C21.4568 12.123 20.8104 11.3936 20.0952 10.9311C20.0543 10.9049 20.0133 10.8793 19.9718 10.8542C19.8329 10.8776 19.6964 10.91 19.5598 10.9441C18.526 11.1996 17.6806 12.193 17.7033 12.193C17.7016 12.193 17.7067 12.1868 17.717 12.1765C17.9315 11.9182 18.1534 11.7236 18.3878 11.6229C18.4196 11.6093 18.4515 11.5967 18.4845 11.5865C18.5357 11.5706 18.5909 11.562 18.6489 11.5609C18.9886 11.5529 19.4392 11.7839 19.8557 12.135C20.2443 12.4633 20.6033 12.8957 20.815 13.3361C21.0494 13.8242 21.0847 14.3147 20.7939 14.6896C20.3279 15.2904 18.1835 14.4108 17.6641 14.0785C17.6635 14.0791 18.105 14.4091 18.105 14.4091C18.5767 14.7129 19.4421 15.3746 20.6335 15.4594C20.8639 15.4759 21.096 15.4623 21.302 15.398C21.4818 15.3416 21.6525 15.2512 21.7976 15.1141C22.2066 14.7266 22.2698 14.1497 22.0974 13.5306Z" fill="url(#paint3_radial_1698_53277)"/>
<path d="M12.3651 14.6464C12.2296 14.6834 12.0925 14.713 11.9531 14.7363C12.5801 15.1107 13.2498 15.2728 13.8324 15.0577C15.4073 14.4774 16.4712 9.77381 18.5241 9.99627C18.5229 9.9957 18.5223 9.99514 18.5218 9.99514C17.4106 9.40114 16.4428 9.72374 15.8232 10.5863C15.1427 11.5342 14.7774 12.7193 14.2216 13.3975C14.2443 13.3975 13.3989 14.3909 12.3651 14.6464Z" fill="url(#paint4_linear_1698_53277)"/>
<path d="M9.82542 12.06C9.88573 12.2773 9.97392 12.4992 10.086 12.72C10.4655 13.4676 11.1124 14.1976 11.8276 14.6601C11.8686 14.6863 11.9095 14.7119 11.9505 14.7364C12.0899 14.713 12.2259 14.6806 12.3624 14.6465C13.3962 14.391 14.2423 13.3976 14.2189 13.3976C14.2206 13.3976 14.2155 13.4039 14.2047 13.4141C13.9908 13.6724 13.7689 13.867 13.5339 13.9683C13.502 13.9819 13.4702 13.9944 13.4378 14.0047C13.3865 14.0206 13.3314 14.0292 13.2728 14.0303C12.9337 14.0383 12.483 13.8073 12.066 13.4562C11.6768 13.1285 11.3184 12.6955 11.1067 12.2551C10.8723 11.7664 10.8194 11.2686 11.1101 10.8936C11.5761 10.2928 13.8076 11.2134 13.9538 11.2748C13.9544 11.2742 13.9544 11.2737 13.9549 11.2731C13.848 11.1957 12.4626 10.2091 11.2711 10.1244C11.0413 10.1073 10.8177 10.1244 10.6123 10.1887C10.4325 10.2456 10.2658 10.3377 10.1207 10.4749C9.71163 10.8623 9.65302 11.4409 9.82542 12.06Z" fill="url(#paint5_radial_1698_53277)"/>
<path d="M3.46313 8.88187C2.96471 9.0105 2.6753 9.51696 2.80393 10.0073L7.49069 27.9987C8.4393 27.9987 8.80106 27.9987 9.40399 27.9987L4.5886 9.54107C4.45997 9.04265 3.95351 8.74521 3.46313 8.88187Z" fill="#FF9769"/>
<defs>
<linearGradient id="paint0_linear_1698_53277" x1="2.81367" y1="1.60781" x2="26.1269" y2="26.5289" gradientUnits="userSpaceOnUse">
<stop offset="0.151969" stop-color="#FF9464"/>
<stop offset="1" stop-color="#FF5C00"/>
</linearGradient>
<radialGradient id="paint1_radial_1698_53277" cx="0" cy="0" r="1" gradientUnits="userSpaceOnUse" gradientTransform="translate(15.1491 11.9206) scale(3.19676)">
<stop offset="0.0070508" stop-color="white"/>
<stop offset="0.0908" stop-color="#FDF0DA"/>
<stop offset="0.2529" stop-color="#F5CC83"/>
<stop offset="0.547" stop-color="#F2BA58"/>
<stop offset="0.7374" stop-color="#EFAD39"/>
<stop offset="0.8197" stop-color="#EEA935"/>
<stop offset="0.9134" stop-color="#EC9E28"/>
<stop offset="1" stop-color="#E98E14"/>
</radialGradient>
<linearGradient id="paint2_linear_1698_53277" x1="18.3877" y1="11.0051" x2="14.4953" y2="16.0988" gradientUnits="userSpaceOnUse">
<stop stop-color="#F2B322"/>
<stop offset="0.5634" stop-color="#EA803E"/>
<stop offset="1" stop-color="#E24E26"/>
</linearGradient>
<radialGradient id="paint3_radial_1698_53277" cx="0" cy="0" r="1" gradientUnits="userSpaceOnUse" gradientTransform="translate(18.085 12.878) scale(3.83331 3.83331)">
<stop stop-color="white"/>
<stop offset="0.3879" stop-color="#F2B322"/>
<stop offset="0.7091" stop-color="#EA803E"/>
<stop offset="1" stop-color="#E24E26"/>
</radialGradient>
<linearGradient id="paint4_linear_1698_53277" x1="17.2806" y1="9.63968" x2="13.0282" y2="15.3169" gradientUnits="userSpaceOnUse">
<stop stop-color="#F2B322"/>
<stop offset="0.5634" stop-color="#EA803E"/>
<stop offset="1" stop-color="#E24E26"/>
</linearGradient>
<radialGradient id="paint5_radial_1698_53277" cx="0" cy="0" r="1" gradientUnits="userSpaceOnUse" gradientTransform="translate(12.6314 12.4774) scale(3.24435)">
<stop stop-color="white"/>
<stop offset="0.3879" stop-color="#F2B322"/>
<stop offset="0.7091" stop-color="#EA803E"/>
<stop offset="1" stop-color="#E24E26"/>
</radialGradient>
</defs>
</svg>
