<svg width="77" height="69" viewBox="0 0 77 69" fill="none" xmlns="http://www.w3.org/2000/svg">
<path d="M7.92969 8.05302C7.92969 8.05302 16.3647 -2.72981 31.963 0.65908C47.5613 4.04797 48.3918 9.10563 65.9107 5.9478L76.1366 40.5812C76.1366 40.5812 69.3107 46.2807 55.633 42.0703C41.9553 37.8599 36.6347 34.471 26.3829 36.7816C16.1311 39.0922 16.78 42.2757 16.78 42.2757L7.92969 8.05302Z" fill="#F7FEFC"/>
<path d="M61.883 24.7529C61.6933 24.2476 61.416 23.7314 61.0602 23.2169C59.8562 21.4803 57.7985 19.7892 55.5146 18.7238C55.385 18.6636 55.2537 18.6034 55.1205 18.5469C54.6754 18.6034 54.2358 18.6837 53.7979 18.764C50.4778 19.3806 47.7488 21.7138 47.8217 21.7156C47.8163 21.7156 47.8345 21.701 47.8673 21.6773C48.5587 21.0698 49.2738 20.6119 50.0291 20.3711C50.1312 20.3383 50.2352 20.3091 50.3392 20.2854C50.5034 20.2471 50.6803 20.227 50.8664 20.2215C51.9555 20.196 53.3948 20.7268 54.7247 21.5386C55.9651 22.2975 57.1071 23.299 57.7766 24.3224C58.5191 25.4571 58.6212 26.6009 57.6836 27.482C56.1786 28.894 49.1133 26.8089 48.5186 26.6283C48.5168 26.6283 48.5168 26.6301 48.5168 26.6319C49.0695 26.8782 53.3364 29.1056 57.1545 29.2807C57.8934 29.3154 58.6377 29.2789 59.298 29.1238C59.8763 28.9888 60.4254 28.7754 60.8924 28.4507C62.2113 27.5404 62.423 26.1941 61.883 24.7529Z" fill="#E6E7E8"/>
<path d="M53.8019 18.7641C54.236 18.6747 54.6775 18.6035 55.1245 18.547C53.1214 17.6859 50.978 17.3193 49.1063 17.8319C44.0458 19.2165 40.547 30.2148 33.9688 29.735C33.9706 29.7369 33.9742 29.7387 33.976 29.7387C37.5278 31.1032 40.6363 30.3316 42.6375 28.3067C44.8376 26.0811 46.0306 23.3064 47.8257 21.7139C47.7527 21.7139 50.4818 19.3807 53.8019 18.7641Z" fill="#E6E7E8"/>
<path d="M47.8683 21.6775C47.8345 21.7019 47.8157 21.717 47.8213 21.717C47.8363 21.7019 47.8533 21.6888 47.8683 21.6775Z" fill="#E6E7E8"/>
<path d="M30.6507 27.5444C30.2165 27.6338 29.7751 27.705 29.3281 27.7615C31.3311 28.6226 33.4746 28.9892 35.3481 28.4766C40.4086 27.092 43.9074 16.0937 50.4856 16.5735C50.482 16.5716 50.4802 16.5716 50.4784 16.5698C46.9266 15.2053 43.8181 15.9769 41.8169 18.0018C39.6168 20.2274 38.4238 23.0003 36.6287 24.5946C36.6999 24.5946 33.9708 26.9278 30.6507 27.5444Z" fill="#E6E7E8"/>
<path d="M36.5859 24.6305C36.6198 24.6061 36.6367 24.5911 36.6329 24.5911C36.6179 24.6042 36.6029 24.6174 36.5859 24.6305Z" fill="#E6E7E8"/>
<path d="M22.5691 21.5551C22.7589 22.0604 23.0362 22.5767 23.3919 23.0893C24.5941 24.826 26.6536 26.517 28.9376 27.5824C29.0671 27.6426 29.2003 27.7028 29.3316 27.7575C29.7785 27.701 30.2164 27.6225 30.6542 27.5404C33.9725 26.9238 36.7034 24.5906 36.6304 24.5906C36.6359 24.5906 36.6194 24.6052 36.5848 24.629C35.8934 25.2346 35.1783 25.6943 34.4231 25.9351C34.3209 25.9679 34.2187 25.9971 34.1129 26.0209C33.9488 26.0592 33.7718 26.0792 33.5839 26.0847C32.4948 26.1102 31.0555 25.5794 29.7256 24.7676C28.4852 24.0087 27.3432 23.0072 26.6737 21.9838C25.9312 20.8473 25.7707 19.6871 26.712 18.806C28.217 17.394 35.3534 19.501 35.8204 19.6415C35.8204 19.6415 35.8222 19.6397 35.8241 19.6378C35.4829 19.4591 31.061 17.1824 27.2428 17.0073C26.504 16.9726 25.7871 17.0182 25.1267 17.1733C24.5484 17.3083 24.0121 17.5272 23.5451 17.8501C22.2262 18.7622 22.0292 20.114 22.5691 21.5551Z" fill="#E6E7E8"/>
<path d="M47.5167 25.2878C47.5824 26.5575 45.2091 27.6064 42.2155 27.6356C39.2219 27.663 36.7428 26.6578 36.6771 25.3881C36.6114 24.1203 38.9848 23.0677 41.9784 23.0403C44.9719 23.013 47.4529 24.0181 47.5167 25.2878Z" fill="#E6E7E8"/>
<path d="M30.9141 14.0352C30.9141 14.0352 36.6695 15.5675 41.9507 20.7593C47.3359 26.0532 52.4091 27.8702 55.3643 28.7112C55.3643 28.7112 52.2978 26.5877 51.1157 26.2703C46.2121 24.9569 39.3712 17.2385 33.3184 14.0753" fill="#E24E26"/>
<path d="M47.5167 20.4832C47.5824 23.4768 45.2091 25.956 42.2155 26.0216C39.2219 26.0873 36.7428 23.714 36.6771 20.7204C36.6114 17.7268 38.9848 15.2477 41.9784 15.182C44.9719 15.1163 47.4529 17.4897 47.5167 20.4832Z" fill="url(#paint0_radial_1691_53530)"/>
<path d="M53.7122 14.5351C54.1464 14.4165 54.5879 14.3216 55.033 14.2468C53.0227 13.0465 50.8755 12.5266 49.0075 13.2161C43.958 15.0769 40.5485 30.1579 33.9648 29.4446C33.9667 29.4464 33.9703 29.4482 33.974 29.45C37.5367 31.3546 40.6397 30.3202 42.6263 27.5547C44.8081 24.5155 45.9793 20.7138 47.7616 18.5411C47.6868 18.5393 50.3976 15.3542 53.7122 14.5351Z" fill="url(#paint1_linear_1691_53530)"/>
<path d="M61.8512 22.8227C61.6578 22.1258 61.3751 21.4144 61.0157 20.7066C59.7971 18.3095 57.7248 15.9708 55.4317 14.4877C55.3003 14.4038 55.169 14.3217 55.0358 14.2415C54.5907 14.3162 54.1529 14.4202 53.7151 14.5297C50.4004 15.3488 47.6896 18.5339 47.7626 18.5339C47.7571 18.5339 47.7735 18.5138 47.8064 18.481C48.4941 17.6528 49.2056 17.0289 49.9572 16.706C50.0593 16.6622 50.1615 16.6221 50.2673 16.5893C50.4315 16.5382 50.6084 16.5108 50.7945 16.5072C51.8835 16.4816 53.3283 17.2223 54.6637 18.3478C55.9096 19.4004 57.0607 20.7868 57.7394 22.1988C58.4909 23.764 58.604 25.3365 57.6719 26.5387C56.1778 28.465 49.3023 25.6448 47.6367 24.5794C47.6349 24.5812 49.0505 25.6393 49.0505 25.6393C50.5628 26.6134 53.3375 28.735 57.1574 29.0068C57.8962 29.0598 58.6405 29.016 59.3009 28.8098C59.8774 28.6292 60.4246 28.3392 60.8898 27.8995C62.2014 26.6572 62.4039 24.8075 61.8512 22.8227Z" fill="url(#paint2_radial_1691_53530)"/>
<path d="M30.6293 26.4037C30.1952 26.5223 29.7555 26.6171 29.3086 26.6919C31.3189 27.8923 33.466 28.4122 35.3341 27.7226C40.3836 25.8619 43.7949 10.7809 50.3767 11.4942C50.3731 11.4924 50.3713 11.4905 50.3694 11.4905C46.8067 9.58603 43.7037 10.6204 41.7171 13.3859C39.5353 16.4251 38.3641 20.225 36.5818 22.3995C36.6548 22.3995 33.944 25.5846 30.6293 26.4037Z" fill="url(#paint3_linear_1691_53530)"/>
<path d="M22.495 18.1066C22.6884 18.8034 22.9712 19.5149 23.3305 20.2227C24.5473 22.6198 26.6215 24.9603 28.9145 26.4434C29.0459 26.5273 29.1772 26.6094 29.3086 26.6878C29.7555 26.613 30.1915 26.509 30.6293 26.3996C33.944 25.5805 36.6566 22.3954 36.5818 22.3954C36.5873 22.3954 36.5709 22.4154 36.5362 22.4483C35.8503 23.2765 35.1388 23.9004 34.3854 24.2251C34.2833 24.2689 34.1811 24.309 34.0771 24.3418C33.9129 24.3929 33.736 24.4203 33.5481 24.4239C32.4609 24.4495 31.0161 23.7088 29.6789 22.5833C28.4311 21.5325 27.2818 20.1443 26.6032 18.7323C25.8516 17.1653 25.682 15.5691 26.6142 14.3669C28.1082 12.4405 35.2629 15.3921 35.7317 15.5891C35.7335 15.5873 35.7335 15.5855 35.7354 15.5837C35.3924 15.3356 30.9504 12.1723 27.1304 11.9005C26.3934 11.8458 25.6765 11.9005 25.018 12.1067C24.4415 12.2891 23.907 12.5846 23.4418 13.0243C22.1302 14.2666 21.9423 16.1218 22.495 18.1066Z" fill="url(#paint4_radial_1691_53530)"/>
<path d="M2.22741 8.03715C0.617726 8.44733 -0.316928 10.0624 0.0984738 11.6262L15.2347 69.0001C18.2983 69.0001 19.4666 69.0001 21.4138 69.0001L5.86218 10.1393C5.44678 8.54988 3.81113 7.60134 2.22741 8.03715Z" fill="black"/>
<defs>
<radialGradient id="paint0_radial_1691_53530" cx="0" cy="0" r="1" gradientUnits="userSpaceOnUse" gradientTransform="translate(39.5585 17.6653) scale(10.2497 10.2497)">
<stop offset="0.0070508" stop-color="white"/>
<stop offset="0.0908" stop-color="#FDF0DA"/>
<stop offset="0.2529" stop-color="#F5CC83"/>
<stop offset="0.547" stop-color="#F2BA58"/>
<stop offset="0.7374" stop-color="#EFAD39"/>
<stop offset="0.8197" stop-color="#EEA935"/>
<stop offset="0.9134" stop-color="#EC9E28"/>
<stop offset="1" stop-color="#E98E14"/>
</radialGradient>
<linearGradient id="paint1_linear_1691_53530" x1="49.9365" y1="14.7313" x2="37.4566" y2="31.063" gradientUnits="userSpaceOnUse">
<stop stop-color="#F2B322"/>
<stop offset="0.5634" stop-color="#EA803E"/>
<stop offset="1" stop-color="#E24E26"/>
</linearGradient>
<radialGradient id="paint2_radial_1691_53530" cx="0" cy="0" r="1" gradientUnits="userSpaceOnUse" gradientTransform="translate(48.9862 20.7302) scale(12.2906 12.2906)">
<stop stop-color="white"/>
<stop offset="0.3879" stop-color="#F2B322"/>
<stop offset="0.7091" stop-color="#EA803E"/>
<stop offset="1" stop-color="#E24E26"/>
</radialGradient>
<linearGradient id="paint3_linear_1691_53530" x1="46.3898" y1="10.3509" x2="32.7556" y2="28.5535" gradientUnits="userSpaceOnUse">
<stop stop-color="#F2B322"/>
<stop offset="0.5634" stop-color="#EA803E"/>
<stop offset="1" stop-color="#E24E26"/>
</linearGradient>
<radialGradient id="paint4_radial_1691_53530" cx="0" cy="0" r="1" gradientUnits="userSpaceOnUse" gradientTransform="translate(31.4918 19.4448) scale(10.4023)">
<stop stop-color="white"/>
<stop offset="0.3879" stop-color="#F2B322"/>
<stop offset="0.7091" stop-color="#EA803E"/>
<stop offset="1" stop-color="#E24E26"/>
</radialGradient>
</defs>
</svg>
