<svg width="234" height="38" viewBox="0 0 234 38" fill="none" xmlns="http://www.w3.org/2000/svg">
<path d="M75.7733 27.1707C75.411 26.2059 74.8816 25.2201 74.2023 24.2378C71.9034 20.9218 67.9743 17.6929 63.6134 15.6587C63.366 15.5437 63.1153 15.4288 62.861 15.3208C62.0111 15.4288 61.1716 15.582 60.3356 15.7353C53.9962 16.9126 48.7853 21.3677 48.9246 21.3712C48.9142 21.3712 48.949 21.3433 49.0117 21.298C50.3318 20.1381 51.6972 19.2638 53.1393 18.804C53.3344 18.7413 53.5329 18.6856 53.7314 18.6403C54.0449 18.5672 54.3828 18.5288 54.7381 18.5184C56.8176 18.4696 59.5658 19.4833 62.1051 21.0333C64.4737 22.4823 66.6542 24.3946 67.9325 26.3487C69.3502 28.5152 69.5453 30.6992 67.7549 32.3816C64.8812 35.0776 51.3907 31.0963 50.2552 30.7515C50.2517 30.7515 50.2517 30.755 50.2517 30.7584C51.3071 31.2287 59.4544 35.4817 66.7448 35.8161C68.1555 35.8823 69.5766 35.8126 70.8376 35.5165C71.9417 35.2588 72.9902 34.8512 73.8819 34.2312C76.4003 32.4931 76.8043 29.9225 75.7733 27.1707Z" fill="#393B44" fill-opacity="0.2"/>
<path d="M60.3383 15.7354C61.1673 15.5647 62.0103 15.4289 62.8637 15.3209C59.0391 13.6768 54.9463 12.9767 51.3725 13.9555C41.7101 16.5993 35.0292 37.5996 22.4688 36.6835C22.4722 36.687 22.4792 36.6905 22.4827 36.6905C29.2645 39.2959 35.1999 37.8225 39.021 33.9562C43.2218 29.7066 45.4998 24.4086 48.9273 21.3678C48.788 21.3678 53.9989 16.9128 60.3383 15.7354Z" fill="#393B44" fill-opacity="0.2"/>
<path d="M49.0108 21.2983C48.9481 21.3436 48.9133 21.3715 48.9237 21.3715C48.9516 21.3436 48.9829 21.3192 49.0108 21.2983Z" fill="#E6E7E8"/>
<path d="M16.1347 32.4969C15.3057 32.6676 14.4628 32.8034 13.6094 32.9114C17.434 34.5555 21.5267 35.2556 25.104 34.2768C34.7665 31.6331 41.4473 10.6327 54.0078 11.5488C54.0008 11.5453 53.9973 11.5453 53.9938 11.5418C47.212 8.9364 41.2766 10.4098 37.4555 14.2762C33.2547 18.5257 30.9767 23.8202 27.5492 26.8645C27.6851 26.8645 22.4742 31.3196 16.1347 32.4969Z" fill="#393B44" fill-opacity="0.2"/>
<path d="M27.4609 26.9345C27.5236 26.8892 27.555 26.8613 27.548 26.8613C27.5202 26.8857 27.4923 26.9101 27.4609 26.9345Z" fill="#E6E7E8"/>
<path d="M0.698859 21.0615C1.06111 22.0264 1.59056 23.0121 2.26979 23.9909C4.56524 27.3069 8.49779 30.5359 12.8588 32.5701C13.1061 32.685 13.3604 32.8 13.6112 32.9045C14.4646 32.7965 15.3005 32.6467 16.1365 32.49C22.4725 31.3126 27.6869 26.8576 27.5475 26.8576C27.558 26.8576 27.5266 26.8855 27.4605 26.9307C26.1403 28.0872 24.7749 28.9649 23.3328 29.4247C23.1378 29.4874 22.9427 29.5432 22.7407 29.5884C22.4272 29.6616 22.0893 29.6999 21.7306 29.7104C19.6511 29.7591 16.9028 28.7455 14.3635 27.1955C11.9949 25.7464 9.81445 23.8342 8.53611 21.8801C7.11844 19.71 6.81191 17.4947 8.60926 15.8123C11.4829 13.1163 25.1093 17.1394 26.001 17.4076C26.001 17.4076 26.0045 17.4041 26.008 17.4006C25.3566 17.0593 16.9133 12.7122 9.62287 12.3778C8.21217 12.3117 6.84326 12.3987 5.58234 12.6948C4.47816 12.9526 3.45409 13.3706 2.56238 13.9871C0.044013 15.7287 -0.332175 18.3098 0.698859 21.0615Z" fill="#393B44" fill-opacity="0.2"/>
<path d="M48.3327 28.1986C48.4581 30.6229 43.9264 32.6258 38.2104 32.6815C32.4944 32.7338 27.7607 30.8145 27.6354 28.3902C27.51 25.9694 32.0416 23.9595 37.7576 23.9073C43.4736 23.855 48.2107 25.7743 48.3327 28.1986Z" fill="#393B44" fill-opacity="0.2"/>
<path d="M16.6406 6.70361C16.6406 6.70361 27.6302 9.62952 37.7141 19.5428C47.9966 29.6511 57.6834 33.1204 63.3263 34.7261C63.3263 34.7261 57.471 30.6717 55.2138 30.0656C45.8509 27.5577 32.7888 12.8202 21.2315 6.78024" fill="#E24E26"/>
<path d="M48.3327 19.0242C48.4581 24.7402 43.9264 29.4739 38.2104 29.5993C32.4944 29.7247 27.7607 25.193 27.6354 19.477C27.51 13.761 32.0416 9.02735 37.7576 8.90195C43.4736 8.77656 48.2107 13.3082 48.3327 19.0242Z" fill="url(#paint0_radial_2117_11134)"/>
<path d="M60.159 7.6649C60.988 7.43849 61.8309 7.25736 62.6809 7.11455C58.8423 4.82259 54.7426 3.82987 51.1758 5.14653C41.5342 8.69942 35.0241 37.4952 22.4531 36.1333C22.4566 36.1368 22.4636 36.1402 22.4705 36.1437C29.2733 39.7802 35.1982 37.8052 38.9915 32.5247C43.1574 26.7216 45.3936 19.4626 48.7967 15.3141C48.6539 15.3106 53.83 9.22887 60.159 7.6649Z" fill="url(#paint1_linear_2117_11134)"/>
<path d="M75.696 23.4993C75.3267 22.1687 74.7868 20.8103 74.1006 19.4588C71.7738 14.8818 67.8169 10.4164 63.4385 7.58449C63.1877 7.42426 62.9369 7.26752 62.6826 7.11426C61.8327 7.25707 60.9968 7.45561 60.1608 7.66461C53.8318 9.22857 48.6557 15.3103 48.795 15.3103C48.7846 15.3103 48.8159 15.272 48.8786 15.2093C50.1918 13.6279 51.5503 12.4366 52.9853 11.8201C53.1804 11.7365 53.3755 11.6599 53.5775 11.5972C53.891 11.4996 54.2289 11.4474 54.5841 11.4404C56.6636 11.3917 59.4223 12.8058 61.9721 14.955C64.3511 16.9648 66.549 19.6121 67.8448 22.3081C69.2799 25.2967 69.4958 28.2992 67.7159 30.5947C64.8631 34.2729 51.7349 28.8879 48.5547 26.8537C48.5512 26.8572 51.2542 28.8774 51.2542 28.8774C54.1418 30.7375 59.4398 34.7885 66.7336 35.3075C68.1443 35.4085 69.5655 35.3249 70.8264 34.9313C71.9271 34.5864 72.9721 34.0326 73.8603 33.1931C76.3647 30.8211 76.7514 27.2891 75.696 23.4993Z" fill="url(#paint2_radial_2117_11134)"/>
<path d="M16.0922 30.3303C15.2632 30.5567 14.4237 30.7379 13.5703 30.8807C17.4088 33.1726 21.5086 34.1653 25.0754 32.8487C34.717 29.2958 41.2306 0.499997 53.798 1.86194C53.7911 1.85845 53.7876 1.85497 53.7841 1.85497C46.9814 -1.78151 41.0564 0.193474 37.2632 5.47404C33.0973 11.2771 30.861 18.5326 27.4579 22.6846C27.5972 22.6846 22.4212 28.7663 16.0922 30.3303Z" fill="url(#paint3_linear_2117_11134)"/>
<path d="M0.557372 14.4958C0.926594 15.8264 1.46649 17.1849 2.15269 18.5364C4.476 23.1133 8.43642 27.5823 12.8148 30.4142C13.0656 30.5744 13.3164 30.7311 13.5672 30.8809C14.4206 30.7381 15.2531 30.5396 16.0891 30.3306C22.4181 28.7666 27.5976 22.6849 27.4548 22.6849C27.4653 22.6849 27.4339 22.7232 27.3677 22.7859C26.058 24.3673 24.6996 25.5586 23.261 26.1786C23.066 26.2622 22.8709 26.3388 22.6723 26.4015C22.3589 26.499 22.021 26.5513 21.6622 26.5582C19.5862 26.607 16.8275 25.1928 14.2743 23.0437C11.8918 21.0373 9.69735 18.3866 8.40159 15.6906C6.9665 12.6985 6.64256 9.65069 8.42249 7.35524C11.2752 3.67696 24.9364 9.31281 25.8316 9.689C25.8351 9.68552 25.8351 9.68203 25.8386 9.67855C25.1838 9.20483 16.7021 3.16493 9.40824 2.64593C8.00102 2.54143 6.63211 2.64593 5.37467 3.03953C4.27397 3.38785 3.25339 3.95214 2.36516 4.79159C-0.139272 7.16367 -0.498044 10.7061 0.557372 14.4958Z" fill="url(#paint4_radial_2117_11134)"/>
<path d="M200.361 23.0476H189.008V11.146H192.332V14.7448H197.036V11.146H200.361V23.0476ZM197.036 20.4373V17.3349H192.332V20.4373H197.036ZM206.658 32.3107H192.982V24.6937H196.387V29.6802H206.658V32.3107ZM209.66 18.3919H206.174V26.0573H202.769V9.5H206.174V15.5436H209.66V18.3919Z" fill="#E24E26"/>
<path d="M229.716 19.425H224.608V20.7644H233.581V23.3747H212.227V20.7644H221.199V19.425H216.092V10.2749H219.416V12.4616H226.391V10.2749H229.716V19.425ZM229.554 32.7588H226.149V27.0662H215.579V24.4801H229.554V32.7588ZM226.391 16.8147V15.0275H219.416V16.8147H226.391Z" fill="#E24E26"/>
<path d="M97.9367 27.0944C98.5378 27.1266 99.0623 27.0298 99.506 26.7999C99.9539 26.5739 100.301 26.2713 100.559 25.8921C100.833 25.4362 101.039 24.944 101.172 24.4195C101.309 23.8951 101.378 23.3101 101.378 22.6646V11.937H104.819V22.8259C104.819 23.5481 104.743 24.3106 104.585 25.1135C104.432 25.9163 104.097 26.6546 103.589 27.3284C103.097 28.0182 102.387 28.5992 101.459 29.0591C100.531 29.5231 99.3568 29.7531 97.9326 29.7531C96.5125 29.7531 95.3385 29.5231 94.4065 29.0591C93.4786 28.5952 92.7686 28.0182 92.2764 27.3284C91.768 26.6546 91.4372 25.9123 91.2919 25.1014C91.1507 24.2945 91.0781 23.536 91.0781 22.8259V11.937H94.5195V22.6646C94.5195 23.3101 94.584 23.8951 94.7091 24.4195C94.8382 24.948 95.0359 25.4362 95.3102 25.8921C95.5644 26.2673 95.9114 26.5659 96.3471 26.7756C96.7868 26.9854 97.3154 27.0944 97.9367 27.0944Z" fill="#E24E26"/>
<path d="M118.62 29.4999H115.231V21.6731C115.231 20.8259 115.029 20.1481 114.63 19.6478C114.376 19.3332 113.948 19.1758 113.347 19.1758C112.819 19.1758 112.298 19.43 111.79 19.9424C111.281 20.4547 110.898 21.2414 110.644 22.3106C110.571 22.5768 110.523 22.8431 110.495 23.1013C110.467 23.3595 110.454 23.6621 110.454 24.0091V29.4999H107.094V16.8641H110.454V17.9009C110.801 17.5096 111.265 17.1909 111.846 16.9448C112.431 16.7027 112.968 16.5776 113.46 16.5776C115.098 16.5776 116.365 16.9649 117.256 17.7315C118.168 18.5182 118.624 19.6559 118.624 21.1486V29.4999H118.62Z" fill="#E24E26"/>
<path d="M124.465 15.2856H120.641V11.937H124.465V15.2856ZM124.304 29.4989H120.863V16.8631H124.304V29.4989Z" fill="#E24E26"/>
<path d="M138.561 16.8628L133.562 29.4986H130.694L125.203 16.8628H128.701L132.114 25.0648L135.257 16.8628H138.561Z" fill="#E24E26"/>
<path d="M142.306 24.2666C142.359 24.4885 142.431 24.7064 142.524 24.9283C142.669 25.2914 142.899 25.6464 143.206 26.0014C143.516 26.3565 143.908 26.6591 144.38 26.9092C144.525 26.9899 144.763 27.0665 145.09 27.1432C145.417 27.2239 145.808 27.2602 146.264 27.2602C146.792 27.2602 147.398 27.1795 148.079 27.0141C148.761 26.8487 149.512 26.5542 150.335 26.1306V28.7005C149.37 29.2048 148.438 29.5235 147.547 29.6687C146.655 29.81 145.752 29.8422 144.844 29.7615C144.061 29.6849 143.282 29.4791 142.508 29.1483C141.733 28.8175 141.112 28.4261 140.636 27.9703C140.091 27.4054 139.627 26.6994 139.256 25.8602C138.881 25.0211 138.695 24.0488 138.695 22.9474C138.695 22.0356 138.832 21.2005 139.107 20.438C139.381 19.6755 139.781 19.0219 140.309 18.4692C140.838 17.9205 141.503 17.4686 142.302 17.1136C143.105 16.7586 144.049 16.5811 145.142 16.5811C146.054 16.5811 146.901 16.7505 147.684 17.0894C148.467 17.4283 149.076 17.8559 149.516 18.3723C150.318 19.2841 150.718 20.7769 150.718 22.8506V24.2626H142.306V24.2666ZM142.25 21.7895H147.333C147.333 21.0673 147.18 20.446 146.869 19.9256C146.704 19.6755 146.47 19.4657 146.159 19.3003C145.848 19.1348 145.501 19.0542 145.122 19.0542C144.356 19.0542 143.674 19.385 143.073 20.0426C142.653 20.5025 142.379 21.0835 142.25 21.7895Z" fill="#E24E26"/>
<path d="M160.774 19.4092C159.935 19.4092 159.293 19.4576 158.849 19.5504C158.401 19.6432 157.978 19.7844 157.578 19.974C157.179 20.1798 156.812 20.4501 156.485 20.789C156.158 21.1279 155.94 21.5394 155.832 22.0275C155.686 22.6569 155.614 23.3791 155.614 24.1981V29.5033H152.281V16.8635H155.614V18.2997C155.888 18.0012 156.223 17.7268 156.622 17.4767C157.587 16.8957 158.97 16.5972 160.774 16.5811V19.4092Z" fill="#E24E26"/>
<path d="M171.321 25.9605C171.321 26.5092 171.208 27.0256 170.978 27.5057C170.748 27.9858 170.417 28.3811 169.981 28.6958C169.509 29.0428 168.864 29.305 168.057 29.4866C167.246 29.6681 166.375 29.7569 165.447 29.7569C164.369 29.7569 162.925 29.5148 161.102 29.0267V25.9847C161.941 26.4244 162.756 26.7472 163.546 26.953C164.337 27.1587 164.971 27.2596 165.447 27.2596C166.266 27.2596 166.851 27.187 167.194 27.0457C167.686 26.7956 167.932 26.4729 167.932 26.0775C167.932 25.8112 167.847 25.5772 167.674 25.3836C167.5 25.1859 167.242 25.0043 166.895 24.8308C166.548 24.6735 166.052 24.4799 165.406 24.2539C164.761 24.028 164.119 23.7779 163.482 23.5116C162.917 23.2615 162.389 22.8741 161.896 22.3577C161.404 21.8373 161.158 21.1555 161.158 20.3083C161.158 19.1302 161.642 18.2144 162.606 17.5608C163.571 16.9072 164.809 16.5845 166.322 16.5845C167.597 16.5845 169.009 16.8144 170.558 17.2703V20.1469C169.61 19.7233 168.815 19.4328 168.166 19.2754C167.52 19.1181 166.887 19.0414 166.266 19.0414C165.737 19.0414 165.309 19.1342 164.983 19.3239C164.656 19.5135 164.49 19.7797 164.49 20.1267C164.49 20.3607 164.543 20.5544 164.656 20.7036C164.765 20.8529 164.954 21.0143 165.229 21.1878C165.539 21.3451 166.068 21.5549 166.814 21.8131C167.561 22.0713 168.226 22.3295 168.807 22.5796C169.461 22.8782 170.046 23.3018 170.554 23.8505C171.063 24.3911 171.321 25.0971 171.321 25.9605Z" fill="#E24E26"/>
<path d="M175.525 24.2666C175.581 24.4885 175.654 24.7064 175.743 24.9283C175.888 25.2914 176.114 25.6464 176.425 26.0014C176.735 26.3565 177.127 26.6591 177.599 26.9092C177.744 26.9899 177.982 27.0665 178.309 27.1432C178.635 27.2239 179.027 27.2602 179.483 27.2602C180.011 27.2602 180.616 27.1795 181.298 27.0141C181.98 26.8487 182.734 26.5542 183.553 26.1306V28.7005C182.589 29.2048 181.657 29.5235 180.766 29.6687C179.874 29.814 178.97 29.8422 178.063 29.7615C177.28 29.6849 176.501 29.4791 175.727 29.1483C174.952 28.8175 174.327 28.4261 173.855 27.9703C173.31 27.4054 172.846 26.6994 172.475 25.8602C172.1 25.0211 171.914 24.0488 171.914 22.9474C171.914 22.0356 172.051 21.2005 172.326 20.438C172.6 19.6755 172.999 19.0219 173.528 18.4692C174.056 17.9205 174.722 17.4686 175.521 17.1136C176.324 16.7586 177.268 16.5811 178.361 16.5811C179.273 16.5811 180.12 16.7505 180.903 17.0894C181.685 17.4283 182.295 17.8559 182.734 18.3723C183.537 19.2841 183.937 20.7769 183.937 22.8506V24.2626H175.525V24.2666ZM175.468 21.7895H180.552C180.552 21.0673 180.398 20.446 180.088 19.9256C179.922 19.6755 179.688 19.4657 179.378 19.3003C179.067 19.1348 178.724 19.0542 178.341 19.0542C177.574 19.0542 176.893 19.385 176.291 20.0426C175.868 20.5025 175.597 21.0835 175.468 21.7895Z" fill="#E24E26"/>
<defs>
<radialGradient id="paint0_radial_2117_11134" cx="0" cy="0" r="1" gradientUnits="userSpaceOnUse" gradientTransform="translate(33.137 13.6436) scale(19.5708 19.5708)">
<stop offset="0.0070508" stop-color="white"/>
<stop offset="0.0908" stop-color="#FDF0DA"/>
<stop offset="0.2529" stop-color="#F5CC83"/>
<stop offset="0.547" stop-color="#F2BA58"/>
<stop offset="0.7374" stop-color="#EFAD39"/>
<stop offset="0.8197" stop-color="#EEA935"/>
<stop offset="0.9134" stop-color="#EC9E28"/>
<stop offset="1" stop-color="#E98E14"/>
</radialGradient>
<linearGradient id="paint1_linear_2117_11134" x1="52.9496" y1="8.03952" x2="29.1203" y2="39.2235" gradientUnits="userSpaceOnUse">
<stop stop-color="#F2B322"/>
<stop offset="0.5634" stop-color="#EA803E"/>
<stop offset="1" stop-color="#E24E26"/>
</linearGradient>
<radialGradient id="paint2_radial_2117_11134" cx="0" cy="0" r="1" gradientUnits="userSpaceOnUse" gradientTransform="translate(51.1314 19.5039) scale(23.4678 23.4678)">
<stop stop-color="white"/>
<stop offset="0.3879" stop-color="#F2B322"/>
<stop offset="0.7091" stop-color="#EA803E"/>
<stop offset="1" stop-color="#E24E26"/>
</radialGradient>
<linearGradient id="paint3_linear_2117_11134" x1="46.1853" y1="-0.321137" x2="20.1521" y2="34.4351" gradientUnits="userSpaceOnUse">
<stop stop-color="#F2B322"/>
<stop offset="0.5634" stop-color="#EA803E"/>
<stop offset="1" stop-color="#E24E26"/>
</linearGradient>
<radialGradient id="paint4_radial_2117_11134" cx="0" cy="0" r="1" gradientUnits="userSpaceOnUse" gradientTransform="translate(17.7358 17.0511) scale(19.8622 19.8622)">
<stop stop-color="white"/>
<stop offset="0.3879" stop-color="#F2B322"/>
<stop offset="0.7091" stop-color="#EA803E"/>
<stop offset="1" stop-color="#E24E26"/>
</radialGradient>
</defs>
</svg>
