<svg width="28" height="28" viewBox="0 0 28 28" fill="none" xmlns="http://www.w3.org/2000/svg">
<path d="M6.32247 17.2509L4.23646 26.282C4.17187 26.5555 4.19126 26.842 4.2921 27.1043C4.39295 27.3666 4.57056 27.5924 4.80174 27.7522C5.03292 27.9119 5.30692 27.9983 5.58796 28C5.869 28.0016 6.14401 27.9185 6.37707 27.7615L14.0001 22.6805L21.6232 27.7615C21.8616 27.9198 22.1429 28.0013 22.4291 27.995C22.7152 27.9888 22.9926 27.895 23.2239 27.7264C23.4552 27.5578 23.6293 27.3224 23.7228 27.052C23.8164 26.7815 23.8248 26.4888 23.747 26.2134L21.1864 17.2551L27.5368 11.5414C27.7402 11.3583 27.8854 11.1196 27.9546 10.8549C28.0237 10.5901 28.0137 10.3109 27.9259 10.0518C27.838 9.79261 27.676 9.56491 27.4601 9.3968C27.2441 9.22869 26.9836 9.12756 26.7108 9.1059L18.7293 8.47043L15.2755 0.826495C15.1654 0.58036 14.9864 0.371352 14.7601 0.224695C14.5337 0.0780378 14.2698 0 14.0001 0C13.7304 0 13.4665 0.0780378 13.2402 0.224695C13.0139 0.371352 12.8348 0.58036 12.7247 0.826495L9.27089 8.47043L1.28944 9.1045C1.02128 9.12574 0.764914 9.22378 0.551017 9.38687C0.337119 9.54997 0.174748 9.77122 0.0833277 10.0242C-0.00809258 10.2771 -0.0246905 10.551 0.0355199 10.8132C0.0957302 11.0753 0.230199 11.3145 0.422839 11.5022L6.32247 17.2509Z" fill="#A5A4A8"/>
</svg>
