<svg width="1470" height="906" viewBox="0 0 1470 906" fill="none" xmlns="http://www.w3.org/2000/svg">
<g opacity="0.6">
<path d="M1460.77 50.7643L1460.73 50.6941L1434.12 4.4694L1434.05 4.35347L1439.77 1.07415L1439.83 1.18093C1441.79 0.149847 1444.59 0.515906 1448 2.54756C1456.67 7.70602 1465.99 21.6348 1468.83 33.66C1470.55 40.9507 1469.5 45.8652 1466.47 47.4575L1466.48 47.485L1460.77 50.7643Z" fill="url(#paint0_linear_1698_48334)"/>
<path d="M1432.25 17.9711C1435.09 29.9963 1444.41 43.925 1453.08 49.0865C1461.74 54.245 1466.46 48.6808 1463.62 36.6556C1460.78 24.6304 1451.45 10.7017 1442.79 5.54322C1434.13 0.384764 1429.41 5.94894 1432.25 17.9711Z" fill="url(#paint1_linear_1698_48334)"/>
<path d="M1431.83 18.2121C1434.67 30.2373 1443.99 44.166 1452.66 49.3275C1461.32 54.486 1466.04 48.9218 1463.2 36.8966C1460.36 24.8714 1451.03 10.9427 1442.37 5.78421C1433.71 0.622702 1428.99 6.18688 1431.83 18.2121Z" fill="url(#paint2_radial_1698_48334)"/>
<path d="M1435.43 20.0759C1437.65 29.4563 1444.92 40.3192 1451.68 44.3429C1455.24 46.4661 1457.95 46.2586 1459.39 44.2147C1458.16 47.0914 1455.22 47.2287 1451.17 44.8187C1444.42 40.7951 1437.14 29.9322 1434.93 20.5518C1433.88 16.1193 1434.28 12.9681 1435.43 11.4368C1434.61 13.3647 1434.55 16.3146 1435.43 20.0759Z" fill="url(#paint3_linear_1698_48334)"/>
<path d="M1443.14 11.3117C1449.9 15.3353 1457.17 26.2014 1459.39 35.5787C1460.28 39.34 1460.22 42.2899 1459.39 44.2148C1457.95 46.2586 1455.24 46.463 1451.68 44.3429C1444.92 40.3192 1437.65 29.4563 1435.43 20.0759C1434.54 16.3146 1434.61 13.3647 1435.43 11.4398C1436.87 9.39595 1439.58 9.19157 1443.14 11.3117Z" fill="url(#paint4_linear_1698_48334)"/>
<path d="M1435.71 19.9355C1437.93 29.3159 1445.2 40.1789 1451.96 44.2026C1454.49 45.7126 1456.75 45.9444 1458.27 45.2733C1456.73 46.2311 1454.47 46.0024 1451.68 44.3398C1444.92 40.3162 1437.65 29.4532 1435.43 20.0728C1434.54 16.3115 1434.61 13.3616 1435.43 11.4368C1435.85 10.848 1436.37 10.4179 1436.99 10.1433C1436.56 10.4087 1436.18 10.7595 1435.87 11.2019C1435.05 13.1328 1434.82 16.1742 1435.71 19.9355Z" fill="url(#paint5_linear_1698_48334)"/>
<path d="M1443.11 12.0835C1439.55 9.96031 1436.84 10.1677 1435.41 12.2116C1435.07 13.0017 1434.86 13.9626 1434.79 15.0821C1434.8 13.627 1435.02 12.4068 1435.43 11.4398C1436.87 9.39595 1439.57 9.19157 1443.14 11.3117C1449.89 15.3353 1457.17 26.2014 1459.39 35.5787C1459.91 37.7995 1460.1 39.7335 1460 41.3442C1460.01 39.8982 1459.8 38.2265 1459.36 36.3505C1457.14 26.9731 1449.87 16.1071 1443.11 12.0835Z" fill="#F3D689"/>
<path d="M1442.37 5.78411C1451.03 10.9426 1460.35 24.8713 1463.19 36.8965C1464.16 40.972 1464.25 44.3032 1463.62 46.7284C1463.55 46.7558 1463.51 46.768 1463.51 46.768C1464.17 38.2937 1461.7 30.5026 1454.84 19.9172C1446.5 7.04094 1438.52 4.11548 1438.52 4.11243C1439.69 4.40528 1440.98 4.95437 1442.37 5.78411Z" fill="#F3D689"/>
<path d="M1452.66 49.3245C1445.74 45.2063 1438.41 35.5025 1434.28 25.6371C1434.28 25.6401 1446.8 52.6221 1460.84 50.685C1458.88 51.7283 1456.07 51.3622 1452.66 49.3245Z" fill="url(#paint6_radial_1698_48334)"/>
<path d="M1452.66 49.3245C1445.74 45.2063 1438.41 35.5025 1434.28 25.6371C1434.28 25.6401 1446.8 52.6221 1460.84 50.685C1458.88 51.7283 1456.07 51.3622 1452.66 49.3245Z" fill="#F3D689"/>
</g>
<g opacity="0.8">
<path d="M1296.68 884.742L1296.81 884.677L1378.96 841.023L1379.17 840.915L1384.55 851.065L1384.36 851.167C1386.05 854.657 1385.24 859.517 1381.5 865.342C1372 880.14 1347.17 895.572 1326.03 899.811C1313.22 902.382 1304.71 900.247 1302.11 894.87L1302.07 894.897L1296.68 884.742Z" fill="url(#paint7_linear_1698_48334)"/>
<path d="M1355.53 836.953C1334.39 841.192 1309.56 856.625 1300.06 871.423C1290.56 886.22 1299.99 894.778 1321.12 890.539C1342.25 886.299 1367.08 870.867 1376.59 856.069C1386.09 841.275 1376.66 832.713 1355.53 836.953Z" fill="url(#paint8_linear_1698_48334)"/>
<path d="M1355.14 836.212C1334 840.451 1309.17 855.884 1299.67 870.682C1290.17 885.479 1299.59 894.037 1320.73 889.798C1341.86 885.558 1366.69 870.126 1376.2 855.328C1385.7 840.531 1376.27 831.972 1355.14 836.212Z" fill="url(#paint9_radial_1698_48334)"/>
<path d="M1351.68 842.386C1335.19 845.693 1315.83 857.73 1308.41 869.27C1304.51 875.355 1304.71 880.086 1308.19 882.717C1303.24 880.396 1303.17 875.269 1307.61 868.358C1315.02 856.815 1334.39 844.781 1350.87 841.475C1358.66 839.912 1364.14 840.797 1366.74 842.899C1363.42 841.345 1358.29 841.061 1351.68 842.386Z" fill="url(#paint10_linear_1698_48334)"/>
<path d="M1366.5 856.343C1359.09 867.883 1339.72 879.921 1323.24 883.226C1316.63 884.553 1311.49 884.272 1308.18 882.714C1304.7 880.086 1304.5 875.355 1308.41 869.267C1315.82 857.723 1335.19 845.69 1351.67 842.383C1358.29 841.057 1363.42 841.341 1366.73 842.896C1370.21 845.528 1370.41 850.258 1366.5 856.343Z" fill="url(#paint11_linear_1698_48334)"/>
<path d="M1351.9 842.88C1335.42 846.186 1316.05 858.223 1308.64 869.764C1305.86 874.093 1305.32 878.02 1306.4 880.71C1304.82 877.965 1305.35 874.037 1308.41 869.273C1315.82 857.73 1335.19 845.696 1351.68 842.389C1358.28 841.064 1363.42 841.347 1366.73 842.902C1367.74 843.659 1368.46 844.599 1368.9 845.69C1368.46 844.928 1367.87 844.253 1367.12 843.683C1363.8 842.124 1358.51 841.554 1351.9 842.88Z" fill="url(#paint12_linear_1698_48334)"/>
<path d="M1365.16 856.254C1369.07 850.166 1368.87 845.435 1365.39 842.807C1364.03 842.169 1362.37 841.748 1360.42 841.558C1362.96 841.656 1365.08 842.117 1366.74 842.896C1370.21 845.524 1370.42 850.255 1366.51 856.343C1359.1 867.883 1339.73 879.921 1323.24 883.227C1319.34 884.011 1315.96 884.232 1313.16 883.962C1315.67 884.058 1318.6 883.798 1321.9 883.137C1338.38 879.835 1357.75 867.796 1365.16 856.254Z" fill="#F3D689"/>
<path d="M1376.19 855.328C1366.69 870.126 1341.86 885.558 1320.72 889.798C1313.56 891.235 1307.74 891.2 1303.55 889.952C1303.51 889.824 1303.49 889.754 1303.49 889.754C1318.23 891.425 1331.96 887.575 1350.81 876.244C1373.76 862.457 1379.32 848.733 1379.33 848.716C1378.75 850.742 1377.71 852.955 1376.19 855.328Z" fill="#F3D689"/>
<path d="M1299.66 870.685C1307.25 858.874 1324.6 846.66 1342.04 840.053C1342.03 840.054 1294.25 860.274 1296.81 884.882C1295.11 881.386 1295.92 876.52 1299.66 870.685Z" fill="url(#paint13_radial_1698_48334)"/>
<path d="M1299.66 870.685C1307.25 858.874 1324.6 846.66 1342.04 840.053C1342.03 840.054 1294.25 860.274 1296.81 884.882C1295.11 881.386 1295.92 876.52 1299.66 870.685Z" fill="#F3D689"/>
</g>
<path d="M522.058 662.44L521.933 662.479L439.198 688.868L438.99 688.935L435.744 678.717L435.935 678.656C434.973 675.171 436.522 670.841 440.931 666.12C452.129 654.114 477.509 644.087 497.623 643.718C509.818 643.494 517.273 646.871 518.761 652.241L518.81 652.226L522.058 662.44Z" fill="url(#paint14_linear_1698_48334)"/>
<path d="M460.029 696.512C480.143 696.143 505.525 686.111 516.728 674.106C527.926 662.101 520.701 652.673 500.587 653.042C480.473 653.41 455.092 663.443 443.894 675.444C432.695 687.454 439.92 696.882 460.029 696.512Z" fill="url(#paint15_linear_1698_48334)"/>
<path d="M460.274 697.261C480.388 696.892 505.77 686.859 516.973 674.855C528.171 662.85 520.946 653.422 500.832 653.791C480.718 654.159 455.336 664.192 444.139 676.192C432.936 688.196 440.16 697.629 460.274 697.261Z" fill="url(#paint16_radial_1698_48334)"/>
<path d="M464.482 692.165C480.173 691.875 499.967 684.054 508.702 674.69C513.31 669.752 513.914 665.375 511.158 662.381C515.309 665.337 514.515 670.054 509.284 675.661C500.549 685.025 480.755 692.846 465.064 693.136C457.65 693.273 452.774 691.549 450.736 689.183C453.518 691.166 458.19 692.281 464.482 692.165Z" fill="url(#paint17_linear_1698_48334)"/>
<path d="M453.199 676.881C461.933 667.521 481.733 659.696 497.419 659.405C503.71 659.289 508.383 660.405 511.16 662.386C513.915 665.38 513.307 669.756 508.703 674.695C499.968 684.059 480.174 691.88 464.483 692.17C458.192 692.286 453.519 691.171 450.742 689.189C447.988 686.19 448.596 681.815 453.199 676.881Z" fill="url(#paint18_linear_1698_48334)"/>
<path d="M464.352 691.675C480.043 691.384 499.837 683.564 508.572 674.199C511.849 670.687 512.998 667.171 512.455 664.52C513.447 667.304 512.303 670.821 508.694 674.689C499.959 684.053 480.165 691.874 464.475 692.164C458.183 692.28 453.51 691.165 450.733 689.183C449.94 688.319 449.436 687.34 449.212 686.264C449.487 687.036 449.915 687.754 450.511 688.403C453.298 690.386 458.061 691.79 464.352 691.675Z" fill="url(#paint19_linear_1698_48334)"/>
<path d="M454.418 677.186C449.809 682.124 449.205 686.501 451.961 689.495C453.101 690.307 454.557 690.974 456.316 691.467C454.002 690.955 452.138 690.179 450.741 689.189C447.986 686.195 448.595 681.819 453.198 676.88C461.932 667.521 481.732 659.696 497.418 659.405C501.133 659.336 504.276 659.697 506.804 660.413C504.506 659.905 501.774 659.658 498.636 659.715C482.951 660.002 463.151 667.826 454.418 677.186Z" fill="#F3D689"/>
<path d="M444.137 676.197C455.336 664.192 480.716 654.164 500.83 653.796C507.647 653.672 512.98 654.671 516.621 656.514C516.639 656.64 516.645 656.707 516.645 656.707C503.392 652.718 490.142 653.96 470.931 661.225C447.562 670.061 440.156 681.734 440.148 681.748C441.019 679.983 442.338 678.122 444.137 676.197Z" fill="#F3D689"/>
<path d="M516.962 674.854C508.023 684.434 490.051 692.757 472.93 695.917C472.935 695.918 520.186 685.317 521.953 662.296C522.934 665.786 521.384 670.12 516.962 674.854Z" fill="url(#paint20_radial_1698_48334)"/>
<path d="M516.962 674.854C508.023 684.434 490.051 692.757 472.93 695.917C472.935 695.918 520.186 685.317 521.953 662.296C522.934 665.786 521.384 670.12 516.962 674.854Z" fill="#F3D689"/>
<path d="M152.685 421.121L152.808 421.055L234.964 377.401L235.168 377.293L240.553 387.443L240.363 387.545C242.049 391.035 241.242 395.896 237.502 401.72C228 416.518 203.168 431.95 182.035 436.189C169.221 438.76 160.711 436.625 158.114 431.248L158.067 431.275L152.685 421.121Z" fill="url(#paint21_linear_1698_48334)"/>
<path d="M211.528 373.331C190.395 377.57 165.56 393.003 156.058 407.801C146.556 422.598 155.985 431.156 177.119 426.916C198.252 422.677 223.084 407.245 232.586 392.447C242.089 377.653 232.662 369.091 211.528 373.331Z" fill="url(#paint22_linear_1698_48334)"/>
<path d="M211.138 372.59C190.004 376.829 165.17 392.262 155.668 407.06C146.166 421.857 155.595 430.415 176.728 426.176C197.862 421.936 222.693 406.504 232.195 391.706C241.697 376.909 232.271 368.35 211.138 372.59Z" fill="url(#paint23_radial_1698_48334)"/>
<path d="M207.678 378.764C191.193 382.071 171.828 394.107 164.415 405.648C160.506 411.733 160.707 416.464 164.186 419.095C159.242 416.774 159.173 411.647 163.61 404.736C171.022 393.193 190.388 381.159 206.873 377.852C214.663 376.29 220.136 377.175 222.737 379.277C219.424 377.723 214.286 377.438 207.678 378.764Z" fill="url(#paint24_linear_1698_48334)"/>
<path d="M222.504 392.721C215.094 404.261 195.723 416.299 179.241 419.605C172.629 420.931 167.492 420.65 164.182 419.092C160.704 416.464 160.503 411.733 164.411 405.645C171.823 394.102 191.189 382.068 207.674 378.761C214.286 377.435 219.423 377.719 222.733 379.274C226.209 381.906 226.413 386.636 222.504 392.721Z" fill="url(#paint25_linear_1698_48334)"/>
<path d="M207.901 379.258C191.417 382.564 172.051 394.601 164.638 406.142C161.858 410.471 161.319 414.398 162.401 417.088C160.823 414.343 161.355 410.415 164.413 405.651C171.825 394.107 191.191 382.074 207.675 378.767C214.284 377.441 219.425 377.725 222.734 379.28C223.739 380.037 224.459 380.977 224.898 382.068C224.461 381.306 223.869 380.631 223.116 380.061C219.799 378.502 214.51 377.932 207.901 379.258Z" fill="url(#paint26_linear_1698_48334)"/>
<path d="M221.162 392.632C225.07 386.544 224.869 381.813 221.391 379.185C220.035 378.547 218.368 378.126 216.421 377.936C218.957 378.034 221.076 378.494 222.736 379.274C226.215 381.902 226.416 386.633 222.507 392.721C215.098 404.261 195.726 416.299 179.245 419.604C175.344 420.389 171.957 420.61 169.155 420.34C171.674 420.436 174.605 420.176 177.899 419.515C194.381 416.212 213.753 404.174 221.162 392.632Z" fill="#F3D689"/>
<path d="M232.189 391.706C222.688 406.504 197.856 421.936 176.722 426.176C169.56 427.613 163.744 427.578 159.553 426.33C159.511 426.202 159.489 426.132 159.489 426.132C174.227 427.803 187.957 423.953 206.815 412.622C229.755 398.834 235.318 385.111 235.327 385.094C234.75 387.12 233.714 389.333 232.189 391.706Z" fill="#F3D689"/>
<path d="M155.663 407.063C163.246 395.252 180.596 383.038 198.038 376.431C198.035 376.432 150.251 396.652 152.813 421.26C151.113 417.764 151.916 412.898 155.663 407.063Z" fill="url(#paint27_radial_1698_48334)"/>
<path d="M155.663 407.063C163.246 395.252 180.596 383.038 198.038 376.431C198.035 376.432 150.251 396.652 152.813 421.26C151.113 417.764 151.916 412.898 155.663 407.063Z" fill="#F3D689"/>
<path d="M224.039 755.536L223.736 755.318L21.8296 610.348L21.329 609.987L3.42055 634.872L3.88752 635.208C-1.82956 643.827 -1.43833 656.958 6.37795 673.7C26.2299 716.229 86.4506 765.962 140.891 784.779C173.902 796.188 197.204 793.612 206.013 780.337L206.131 780.421L224.039 755.536Z" fill="url(#paint28_linear_1698_48334)"/>
<path d="M85.3553 608.041C139.8 626.858 200.029 676.595 219.877 719.12C239.729 761.65 211.682 780.875 157.242 762.053C102.797 743.236 42.5761 693.504 22.7283 650.974C2.88055 608.444 30.9106 589.22 85.3553 608.041Z" fill="url(#paint29_linear_1698_48334)"/>
<path d="M86.6617 606.222C141.106 625.039 201.336 674.775 221.183 717.301C241.035 759.831 212.988 779.055 158.548 760.234C104.103 741.417 43.8825 691.685 24.0347 649.155C4.18271 606.629 32.217 587.404 86.6617 606.222Z" fill="url(#paint30_radial_1698_48334)"/>
<path d="M93.6084 623.787C136.076 638.465 183.041 677.246 198.527 710.422C206.692 727.911 204.458 740.345 194.307 746.039C208.232 741.682 210.255 728.164 200.983 708.3C185.498 675.124 138.533 636.343 96.0652 621.665C75.9945 614.727 61.1865 615.093 53.5469 619.715C62.8692 616.794 76.575 617.9 93.6084 623.787Z" fill="url(#paint31_linear_1698_48334)"/>
<path d="M49.322 655.332C64.8031 688.499 111.781 727.293 154.24 741.967C171.269 747.854 184.979 748.96 194.302 746.039C204.457 740.341 206.687 727.911 198.521 710.422C183.036 677.246 136.071 638.465 93.603 623.787C76.5738 617.899 62.8638 616.798 53.5415 619.715C43.3904 625.409 41.1566 637.838 49.322 655.332Z" fill="url(#paint32_linear_1698_48334)"/>
<path d="M92.8381 625.005C135.306 639.683 182.271 678.465 197.756 711.641C203.566 724.087 203.579 734.656 199.755 741.375C204.921 734.689 204.925 724.113 198.535 710.422C183.049 677.246 136.084 638.465 93.6164 623.787C76.5872 617.899 62.8771 616.798 53.5548 619.715C50.6269 621.358 48.3804 623.581 46.8281 626.304C48.2627 624.45 50.0674 622.875 52.2717 621.639C61.5899 618.723 75.8047 619.118 92.8381 625.005Z" fill="url(#paint33_linear_1698_48334)"/>
<path d="M52.9189 655.58C44.7534 638.087 46.9872 625.657 57.1383 619.963C60.9623 618.765 65.5225 618.248 70.7432 618.454C63.9954 617.799 58.2194 618.248 53.5415 619.711C43.3904 625.409 41.1566 637.834 49.322 655.328C64.8031 688.495 111.781 727.289 154.24 741.963C164.29 745.438 173.179 747.245 180.697 747.544C173.991 746.892 166.326 745.148 157.837 742.211C115.382 727.537 68.4 688.747 52.9189 655.58Z" fill="#F3D689"/>
<path d="M24.0338 649.159C43.8858 691.689 104.106 741.421 158.547 760.238C176.998 766.617 192.412 768.617 203.96 766.831C204.115 766.508 204.199 766.331 204.199 766.331C164.571 765.436 129.591 750.321 83.7202 713.574C27.9209 668.871 18.1106 630.598 18.0938 630.548C18.9015 636.111 20.8492 642.335 24.0338 649.159Z" fill="#F3D689"/>
<path d="M221.186 717.301C205.343 683.356 163.775 644.823 119.961 621.08C119.969 621.085 239.25 691.735 223.634 755.847C229.393 747.228 229.019 734.08 221.186 717.301Z" fill="url(#paint34_radial_1698_48334)"/>
<path d="M221.186 717.301C205.343 683.356 163.775 644.823 119.961 621.08C119.969 621.085 239.25 691.735 223.634 755.847C229.393 747.228 229.019 734.08 221.186 717.301Z" fill="#F3D689"/>
<defs>
<linearGradient id="paint0_linear_1698_48334" x1="1441.68" y1="-0.0233447" x2="1468.35" y2="46.4131" gradientUnits="userSpaceOnUse">
<stop stop-color="#A07836"/>
<stop offset="0.5215" stop-color="#C1914C"/>
<stop offset="0.7471" stop-color="#8E5C2F"/>
<stop offset="1" stop-color="#634323"/>
</linearGradient>
<linearGradient id="paint1_linear_1698_48334" x1="1434.61" y1="4.17261" x2="1461.21" y2="50.4818" gradientUnits="userSpaceOnUse">
<stop stop-color="#A07836"/>
<stop offset="0.5215" stop-color="#966A3B"/>
<stop offset="1" stop-color="#402910"/>
</linearGradient>
<radialGradient id="paint2_radial_1698_48334" cx="0" cy="0" r="1" gradientUnits="userSpaceOnUse" gradientTransform="translate(1447.47 27.4331) rotate(60.0719) scale(27.635 11.091)">
<stop stop-color="#EDC573"/>
<stop offset="0.7856" stop-color="#DDAC5B"/>
<stop offset="0.9042" stop-color="#EBC36F"/>
</radialGradient>
<linearGradient id="paint3_linear_1698_48334" x1="1435.74" y1="20.2209" x2="1458.18" y2="46.5283" gradientUnits="userSpaceOnUse">
<stop stop-color="#9A6F31"/>
<stop offset="0.5203" stop-color="#DDAC5B"/>
<stop offset="1" stop-color="#B28A42"/>
</linearGradient>
<linearGradient id="paint4_linear_1698_48334" x1="1443.08" y1="40.4965" x2="1450.38" y2="19.0852" gradientUnits="userSpaceOnUse">
<stop stop-color="#EAC26A"/>
<stop offset="1" stop-color="#C69347"/>
</linearGradient>
<linearGradient id="paint5_linear_1698_48334" x1="1435.44" y1="18.3051" x2="1461.5" y2="46.518" gradientUnits="userSpaceOnUse">
<stop offset="0.00040993" stop-color="#CD9A4C"/>
<stop offset="0.1982" stop-color="#E1B96B"/>
<stop offset="0.4142" stop-color="#F2D587"/>
<stop offset="0.54" stop-color="#F9DF91"/>
<stop offset="0.5456" stop-color="#F8DE8F"/>
<stop offset="0.6285" stop-color="#EDCC7A"/>
<stop offset="0.7208" stop-color="#E5BF6B"/>
<stop offset="0.8299" stop-color="#E0B763"/>
<stop offset="0.9967" stop-color="#DFB560"/>
</linearGradient>
<radialGradient id="paint6_radial_1698_48334" cx="0" cy="0" r="1" gradientUnits="userSpaceOnUse" gradientTransform="translate(1447.47 27.4331) rotate(60.0719) scale(27.6351 11.091)">
<stop stop-color="#EDC573"/>
<stop offset="0.7856" stop-color="#DDAC5B"/>
<stop offset="0.9042" stop-color="#EBC36F"/>
</radialGradient>
<linearGradient id="paint7_linear_1698_48334" x1="1386.36" y1="854.461" x2="1303.85" y2="898.243" gradientUnits="userSpaceOnUse">
<stop stop-color="#A07836"/>
<stop offset="0.5215" stop-color="#C1914C"/>
<stop offset="0.7471" stop-color="#8E5C2F"/>
<stop offset="1" stop-color="#634323"/>
</linearGradient>
<linearGradient id="paint8_linear_1698_48334" x1="1379.45" y1="841.893" x2="1297.17" y2="885.556" gradientUnits="userSpaceOnUse">
<stop stop-color="#A07836"/>
<stop offset="0.5215" stop-color="#966A3B"/>
<stop offset="1" stop-color="#402910"/>
</linearGradient>
<radialGradient id="paint9_radial_1698_48334" cx="0" cy="0" r="1" gradientUnits="userSpaceOnUse" gradientTransform="translate(1337.95 862.903) rotate(152.015) scale(48.1998 19.3504)">
<stop stop-color="#EDC573"/>
<stop offset="0.7856" stop-color="#DDAC5B"/>
<stop offset="0.9042" stop-color="#EBC36F"/>
</radialGradient>
<linearGradient id="paint10_linear_1698_48334" x1="1351.4" y1="842.92" x2="1304.23" y2="880.482" gradientUnits="userSpaceOnUse">
<stop stop-color="#9A6F31"/>
<stop offset="0.5203" stop-color="#DDAC5B"/>
<stop offset="1" stop-color="#B28A42"/>
</linearGradient>
<linearGradient id="paint11_linear_1698_48334" x1="1315.62" y1="854.505" x2="1352.53" y2="868.496" gradientUnits="userSpaceOnUse">
<stop stop-color="#EAC26A"/>
<stop offset="1" stop-color="#C69347"/>
</linearGradient>
<linearGradient id="paint12_linear_1698_48334" x1="1354.76" y1="842.514" x2="1304.05" y2="886.277" gradientUnits="userSpaceOnUse">
<stop offset="0.00040993" stop-color="#CD9A4C"/>
<stop offset="0.1982" stop-color="#E1B96B"/>
<stop offset="0.4142" stop-color="#F2D587"/>
<stop offset="0.54" stop-color="#F9DF91"/>
<stop offset="0.5456" stop-color="#F8DE8F"/>
<stop offset="0.6285" stop-color="#EDCC7A"/>
<stop offset="0.7208" stop-color="#E5BF6B"/>
<stop offset="0.8299" stop-color="#E0B763"/>
<stop offset="0.9967" stop-color="#DFB560"/>
</linearGradient>
<radialGradient id="paint13_radial_1698_48334" cx="0" cy="0" r="1" gradientUnits="userSpaceOnUse" gradientTransform="translate(1337.94 862.903) rotate(152.015) scale(48.2 19.3505)">
<stop stop-color="#EDC573"/>
<stop offset="0.7856" stop-color="#DDAC5B"/>
<stop offset="0.9042" stop-color="#EBC36F"/>
</radialGradient>
<linearGradient id="paint14_linear_1698_48334" x1="434.656" y1="675.299" x2="517.749" y2="648.886" gradientUnits="userSpaceOnUse">
<stop stop-color="#A07836"/>
<stop offset="0.5215" stop-color="#C1914C"/>
<stop offset="0.7471" stop-color="#8E5C2F"/>
<stop offset="1" stop-color="#634323"/>
</linearGradient>
<linearGradient id="paint15_linear_1698_48334" x1="438.89" y1="687.989" x2="521.755" y2="661.648" gradientUnits="userSpaceOnUse">
<stop stop-color="#A07836"/>
<stop offset="0.5215" stop-color="#966A3B"/>
<stop offset="1" stop-color="#402910"/>
</linearGradient>
<radialGradient id="paint16_radial_1698_48334" cx="0" cy="0" r="1" gradientUnits="userSpaceOnUse" gradientTransform="translate(480.345 675.554) rotate(-17.6893) scale(44.9937 18.0577)">
<stop stop-color="#EDC573"/>
<stop offset="0.7856" stop-color="#DDAC5B"/>
<stop offset="0.9042" stop-color="#EBC36F"/>
</radialGradient>
<linearGradient id="paint17_linear_1698_48334" x1="464.82" y1="691.722" x2="514.421" y2="665.109" gradientUnits="userSpaceOnUse">
<stop stop-color="#9A6F31"/>
<stop offset="0.5203" stop-color="#DDAC5B"/>
<stop offset="1" stop-color="#B28A42"/>
</linearGradient>
<linearGradient id="paint18_linear_1698_48334" x1="499.615" y1="687.05" x2="468.067" y2="668.039" gradientUnits="userSpaceOnUse">
<stop stop-color="#EAC26A"/>
<stop offset="1" stop-color="#C69347"/>
</linearGradient>
<linearGradient id="paint19_linear_1698_48334" x1="461.666" y1="691.536" x2="515.549" y2="659.815" gradientUnits="userSpaceOnUse">
<stop offset="0.00040993" stop-color="#CD9A4C"/>
<stop offset="0.1982" stop-color="#E1B96B"/>
<stop offset="0.4142" stop-color="#F2D587"/>
<stop offset="0.54" stop-color="#F9DF91"/>
<stop offset="0.5456" stop-color="#F8DE8F"/>
<stop offset="0.6285" stop-color="#EDCC7A"/>
<stop offset="0.7208" stop-color="#E5BF6B"/>
<stop offset="0.8299" stop-color="#E0B763"/>
<stop offset="0.9967" stop-color="#DFB560"/>
</linearGradient>
<radialGradient id="paint20_radial_1698_48334" cx="0" cy="0" r="1" gradientUnits="userSpaceOnUse" gradientTransform="translate(480.339 675.554) rotate(-17.6893) scale(44.9938 18.0578)">
<stop stop-color="#EDC573"/>
<stop offset="0.7856" stop-color="#DDAC5B"/>
<stop offset="0.9042" stop-color="#EBC36F"/>
</radialGradient>
<linearGradient id="paint21_linear_1698_48334" x1="242.357" y1="390.839" x2="159.847" y2="434.621" gradientUnits="userSpaceOnUse">
<stop stop-color="#A07836"/>
<stop offset="0.5215" stop-color="#C1914C"/>
<stop offset="0.7471" stop-color="#8E5C2F"/>
<stop offset="1" stop-color="#634323"/>
</linearGradient>
<linearGradient id="paint22_linear_1698_48334" x1="235.453" y1="378.271" x2="153.168" y2="421.934" gradientUnits="userSpaceOnUse">
<stop stop-color="#A07836"/>
<stop offset="0.5215" stop-color="#966A3B"/>
<stop offset="1" stop-color="#402910"/>
</linearGradient>
<radialGradient id="paint23_radial_1698_48334" cx="0" cy="0" r="1" gradientUnits="userSpaceOnUse" gradientTransform="translate(193.95 399.281) rotate(152.015) scale(48.1998 19.3504)">
<stop stop-color="#EDC573"/>
<stop offset="0.7856" stop-color="#DDAC5B"/>
<stop offset="0.9042" stop-color="#EBC36F"/>
</radialGradient>
<linearGradient id="paint24_linear_1698_48334" x1="207.404" y1="379.298" x2="160.232" y2="416.859" gradientUnits="userSpaceOnUse">
<stop stop-color="#9A6F31"/>
<stop offset="0.5203" stop-color="#DDAC5B"/>
<stop offset="1" stop-color="#B28A42"/>
</linearGradient>
<linearGradient id="paint25_linear_1698_48334" x1="171.618" y1="390.883" x2="208.532" y2="404.874" gradientUnits="userSpaceOnUse">
<stop stop-color="#EAC26A"/>
<stop offset="1" stop-color="#C69347"/>
</linearGradient>
<linearGradient id="paint26_linear_1698_48334" x1="210.759" y1="378.892" x2="160.053" y2="422.655" gradientUnits="userSpaceOnUse">
<stop offset="0.00040993" stop-color="#CD9A4C"/>
<stop offset="0.1982" stop-color="#E1B96B"/>
<stop offset="0.4142" stop-color="#F2D587"/>
<stop offset="0.54" stop-color="#F9DF91"/>
<stop offset="0.5456" stop-color="#F8DE8F"/>
<stop offset="0.6285" stop-color="#EDCC7A"/>
<stop offset="0.7208" stop-color="#E5BF6B"/>
<stop offset="0.8299" stop-color="#E0B763"/>
<stop offset="0.9967" stop-color="#DFB560"/>
</linearGradient>
<radialGradient id="paint27_radial_1698_48334" cx="0" cy="0" r="1" gradientUnits="userSpaceOnUse" gradientTransform="translate(193.945 399.281) rotate(152.015) scale(48.2 19.3505)">
<stop stop-color="#EDC573"/>
<stop offset="0.7856" stop-color="#DDAC5B"/>
<stop offset="0.9042" stop-color="#EBC36F"/>
</radialGradient>
<linearGradient id="paint28_linear_1698_48334" x1="-2.56973" y1="643.197" x2="199.983" y2="788.963" gradientUnits="userSpaceOnUse">
<stop stop-color="#A07836"/>
<stop offset="0.5215" stop-color="#C1914C"/>
<stop offset="0.7471" stop-color="#8E5C2F"/>
<stop offset="1" stop-color="#634323"/>
</linearGradient>
<linearGradient id="paint29_linear_1698_48334" x1="20.2242" y1="612.472" x2="222.221" y2="757.838" gradientUnits="userSpaceOnUse">
<stop stop-color="#A07836"/>
<stop offset="0.5215" stop-color="#966A3B"/>
<stop offset="1" stop-color="#402910"/>
</linearGradient>
<radialGradient id="paint30_radial_1698_48334" cx="0" cy="0" r="1" gradientUnits="userSpaceOnUse" gradientTransform="translate(122.717 683.319) rotate(35.6799) scale(128.78 51.6345)">
<stop stop-color="#EDC573"/>
<stop offset="0.7856" stop-color="#DDAC5B"/>
<stop offset="0.9042" stop-color="#EBC36F"/>
</radialGradient>
<linearGradient id="paint31_linear_1698_48334" x1="94.1376" y1="625.292" x2="205.345" y2="741.776" gradientUnits="userSpaceOnUse">
<stop stop-color="#9A6F31"/>
<stop offset="0.5203" stop-color="#DDAC5B"/>
<stop offset="1" stop-color="#B28A42"/>
</linearGradient>
<linearGradient id="paint32_linear_1698_48334" x1="184.741" y1="668.799" x2="81.9936" y2="692.632" gradientUnits="userSpaceOnUse">
<stop stop-color="#EAC26A"/>
<stop offset="1" stop-color="#C69347"/>
</linearGradient>
<linearGradient id="paint33_linear_1698_48334" x1="85.3944" y1="623.008" x2="203.693" y2="757.176" gradientUnits="userSpaceOnUse">
<stop offset="0.00040993" stop-color="#CD9A4C"/>
<stop offset="0.1982" stop-color="#E1B96B"/>
<stop offset="0.4142" stop-color="#F2D587"/>
<stop offset="0.54" stop-color="#F9DF91"/>
<stop offset="0.5456" stop-color="#F8DE8F"/>
<stop offset="0.6285" stop-color="#EDCC7A"/>
<stop offset="0.7208" stop-color="#E5BF6B"/>
<stop offset="0.8299" stop-color="#E0B763"/>
<stop offset="0.9967" stop-color="#DFB560"/>
</linearGradient>
<radialGradient id="paint34_radial_1698_48334" cx="0" cy="0" r="1" gradientUnits="userSpaceOnUse" gradientTransform="translate(122.719 683.319) rotate(35.6799) scale(128.781 51.6346)">
<stop stop-color="#EDC573"/>
<stop offset="0.7856" stop-color="#DDAC5B"/>
<stop offset="0.9042" stop-color="#EBC36F"/>
</radialGradient>
</defs>
</svg>
