<svg width="839" height="414" viewBox="0 0 839 414" fill="none" xmlns="http://www.w3.org/2000/svg">
<line x1="13" y1="370.5" x2="793" y2="370.5" stroke="#A5A4A8"/>
<path d="M10.3711 398.609H1.05469V397.484H5.02734V395.727H6.39844V397.484H10.3711V398.609ZM1.95117 402.248C1.95117 401.68 2.10645 401.185 2.41699 400.763C2.72754 400.335 3.16699 400.007 3.73535 399.778C4.30371 399.544 4.96289 399.424 5.71289 399.418C6.45703 399.424 7.11035 399.544 7.67285 399.778C8.24121 400.007 8.68066 400.335 8.99121 400.763C9.30762 401.185 9.46875 401.68 9.47461 402.248C9.46875 402.805 9.30762 403.297 8.99121 403.725C8.68066 404.146 8.24121 404.475 7.67285 404.709C7.10449 404.943 6.45117 405.061 5.71289 405.061C4.96875 405.061 4.30957 404.943 3.73535 404.709C3.16699 404.475 2.72754 404.146 2.41699 403.725C2.10645 403.297 1.95117 402.805 1.95117 402.248ZM3.00586 406.432H13.2363V411.424H11.8652V407.557H3.00586V406.432ZM3.26953 402.248C3.26953 402.588 3.36914 402.887 3.56836 403.145C3.76758 403.402 4.04883 403.602 4.41211 403.742C4.78125 403.883 5.20605 403.953 5.68652 403.953C6.17285 403.953 6.60352 403.886 6.97852 403.751C7.35352 403.61 7.64355 403.411 7.84863 403.153C8.05957 402.896 8.16797 402.594 8.17383 402.248C8.16797 401.896 8.0625 401.589 7.85742 401.325C7.65234 401.062 7.3623 400.856 6.9873 400.71C6.61816 400.563 6.19336 400.49 5.71289 400.49C5.22656 400.49 4.7959 400.563 4.4209 400.71C4.05176 400.856 3.76758 401.062 3.56836 401.325C3.36914 401.589 3.26953 401.896 3.26953 402.248ZM11.8652 395.797H13.2363V400.139H15.5918V401.299H13.2363V405.57H11.8652V395.797ZM19.7578 407.012H27.5625V405.184H28.9512V411.213H18.3867V405.184H19.7578V407.012ZM16.5762 402.934H30.8145V404.076H16.5762V402.934ZM17.3848 400.719C18.3281 400.59 19.2305 400.332 20.0918 399.945C20.9531 399.559 21.6504 399.084 22.1836 398.521C22.7227 397.953 22.9922 397.35 22.9922 396.711V395.973H24.416V396.711C24.416 397.326 24.6826 397.921 25.2158 398.495C25.7549 399.069 26.4551 399.556 27.3164 399.954C28.1836 400.347 29.0801 400.602 30.0059 400.719L29.4961 401.826C28.6816 401.703 27.8906 401.489 27.123 401.185C26.3613 400.88 25.6816 400.496 25.084 400.033C24.4863 399.57 24.0264 399.055 23.7041 398.486C23.3818 399.055 22.9189 399.57 22.3154 400.033C21.7178 400.496 21.0381 400.88 20.2764 401.185C19.5146 401.489 18.7266 401.703 17.9121 401.826L17.3848 400.719ZM27.5625 410.105V408.102H19.7578V410.105H27.5625ZM37.6875 399.998C37.6875 400.924 37.8779 401.844 38.2588 402.758C38.6396 403.666 39.1523 404.475 39.7969 405.184C40.4473 405.893 41.1562 406.42 41.9238 406.766L41.0801 407.855C40.1836 407.422 39.375 406.769 38.6543 405.896C37.9336 405.017 37.3857 404.023 37.0107 402.916C36.6533 404.094 36.1113 405.148 35.3848 406.08C34.6582 407.012 33.8379 407.709 32.9238 408.172L32.0449 407.012C32.8184 406.66 33.5303 406.118 34.1807 405.386C34.8311 404.653 35.3467 403.815 35.7275 402.872C36.1143 401.923 36.3105 400.965 36.3164 399.998V397.15H37.6875V399.998ZM43.6289 395.797H45.0176V411.459H43.6289V395.797ZM52.9805 398.697C52.9805 399.383 53.1416 400.042 53.4639 400.675C53.7861 401.308 54.2373 401.867 54.8174 402.354C55.3975 402.84 56.0684 403.215 56.8301 403.479L56.127 404.551C55.2363 404.234 54.46 403.771 53.7979 403.162C53.1416 402.553 52.6465 401.841 52.3125 401.026C51.9785 401.911 51.4688 402.688 50.7832 403.355C50.0977 404.018 49.2949 404.516 48.375 404.85L47.6367 403.777C48.4102 403.502 49.0986 403.109 49.7021 402.6C50.3057 402.084 50.7744 401.489 51.1084 400.815C51.4482 400.142 51.6211 399.436 51.627 398.697V398.029H48.0586V396.904H56.4961V398.029H52.9805V398.697ZM49.6758 406.045H59.9062V411.424H58.5352V407.17H49.6758V406.045ZM58.5352 395.797H59.9062V399.928H62.2617V401.105H59.9062V405.219H58.5352V395.797Z" fill="white"/>
<path d="M260.192 410H258.593V398.926H258.522L255.429 400.982V399.383L258.593 397.273H260.192V410ZM276.364 411.424H275.011V403.25H272.849V410.65H271.53V396.219H272.849V402.107H275.011V395.797H276.364V411.424ZM263.04 407.1C264.78 406.127 266.078 404.958 266.934 403.593C267.789 402.222 268.278 400.684 268.401 398.979H263.638V397.836H269.755C269.743 400.004 269.283 401.958 268.375 403.698C267.473 405.433 265.964 406.889 263.849 408.066L263.04 407.1ZM291.464 405.025H290.075V404.164H286.911V403.25H290.075V395.814H291.464V405.025ZM279.695 401.703C283.416 401.703 286.448 401.574 288.792 401.316L288.88 402.213C287.456 402.418 285.897 402.559 284.204 402.635V405.078H282.851V402.688C281.866 402.723 280.478 402.74 278.685 402.74L278.526 401.703H279.695ZM279.739 398.469C279.739 397.988 279.897 397.572 280.214 397.221C280.536 396.863 280.99 396.591 281.576 396.403C282.162 396.21 282.845 396.113 283.624 396.113C284.397 396.113 285.074 396.21 285.654 396.403C286.24 396.591 286.694 396.863 287.017 397.221C287.339 397.572 287.503 397.988 287.509 398.469C287.503 398.949 287.339 399.365 287.017 399.717C286.694 400.068 286.24 400.338 285.654 400.525C285.074 400.713 284.397 400.807 283.624 400.807C282.839 400.807 282.153 400.713 281.567 400.525C280.987 400.338 280.536 400.068 280.214 399.717C279.897 399.365 279.739 398.949 279.739 398.469ZM280.917 405.588H291.464V408.822H282.341V410.229H291.974V411.248H280.987V407.855H290.093V406.59H280.917V405.588ZM281.04 398.469C281.04 398.744 281.146 398.987 281.356 399.198C281.567 399.403 281.869 399.564 282.262 399.682C282.654 399.799 283.108 399.857 283.624 399.857C284.134 399.857 284.582 399.799 284.969 399.682C285.361 399.564 285.666 399.403 285.883 399.198C286.1 398.987 286.208 398.744 286.208 398.469C286.208 398.193 286.1 397.953 285.883 397.748C285.672 397.537 285.373 397.373 284.986 397.256C284.605 397.139 284.163 397.08 283.659 397.08C283.132 397.08 282.669 397.139 282.271 397.256C281.878 397.367 281.573 397.528 281.356 397.739C281.146 397.944 281.04 398.188 281.04 398.469Z" fill="white"/>
<path d="M501.979 410.176C501.141 410.176 500.391 410.035 499.729 409.754C499.066 409.473 498.542 409.077 498.155 408.567C497.774 408.052 497.572 407.463 497.549 406.801H499.148C499.178 407.199 499.318 407.548 499.57 407.847C499.822 408.14 500.156 408.368 500.572 408.532C500.988 408.69 501.451 408.77 501.961 408.77C502.518 408.77 503.016 408.676 503.455 408.488C503.895 408.301 504.237 408.037 504.483 407.697C504.735 407.357 504.861 406.971 504.861 406.537C504.855 406.074 504.732 405.664 504.492 405.307C504.252 404.949 503.897 404.671 503.429 404.472C502.966 404.267 502.412 404.164 501.768 404.164H500.73V402.775H501.768C502.277 402.775 502.731 402.685 503.13 402.503C503.528 402.321 503.836 402.066 504.053 401.738C504.275 401.404 504.387 401.023 504.387 400.596C504.387 400.174 504.29 399.805 504.097 399.488C503.903 399.166 503.628 398.917 503.271 398.741C502.913 398.56 502.494 398.469 502.014 398.469C501.557 398.475 501.126 398.56 500.722 398.724C500.323 398.882 499.998 399.113 499.746 399.418C499.5 399.717 499.365 400.068 499.342 400.473H497.812C497.836 399.816 498.038 399.233 498.419 398.724C498.806 398.208 499.315 397.81 499.948 397.528C500.587 397.241 501.281 397.098 502.031 397.098C502.816 397.098 503.502 397.253 504.088 397.563C504.68 397.874 505.134 398.29 505.45 398.812C505.767 399.333 505.922 399.898 505.916 400.508C505.922 401.223 505.731 401.835 505.345 402.345C504.958 402.849 504.428 403.197 503.754 403.391V403.479C504.299 403.561 504.771 403.742 505.169 404.023C505.573 404.299 505.881 404.653 506.092 405.087C506.303 405.515 506.408 405.998 506.408 406.537C506.408 407.223 506.215 407.844 505.828 408.4C505.447 408.951 504.92 409.385 504.246 409.701C503.572 410.018 502.816 410.176 501.979 410.176ZM521.473 411.424H520.119V403.25H517.957V410.65H516.639V396.219H517.957V402.107H520.119V395.797H521.473V411.424ZM508.148 407.1C509.889 406.127 511.187 404.958 512.042 403.593C512.897 402.222 513.387 400.684 513.51 398.979H508.746V397.836H514.863C514.852 400.004 514.392 401.958 513.483 403.698C512.581 405.433 511.072 406.889 508.957 408.066L508.148 407.1ZM536.572 405.025H535.184V404.164H532.02V403.25H535.184V395.814H536.572V405.025ZM524.804 401.703C528.524 401.703 531.557 401.574 533.9 401.316L533.988 402.213C532.564 402.418 531.006 402.559 529.312 402.635V405.078H527.959V402.688C526.975 402.723 525.586 402.74 523.793 402.74L523.635 401.703H524.804ZM524.848 398.469C524.848 397.988 525.006 397.572 525.322 397.221C525.645 396.863 526.099 396.591 526.685 396.403C527.271 396.21 527.953 396.113 528.732 396.113C529.506 396.113 530.183 396.21 530.763 396.403C531.349 396.591 531.803 396.863 532.125 397.221C532.447 397.572 532.611 397.988 532.617 398.469C532.611 398.949 532.447 399.365 532.125 399.717C531.803 400.068 531.349 400.338 530.763 400.525C530.183 400.713 529.506 400.807 528.732 400.807C527.947 400.807 527.262 400.713 526.676 400.525C526.096 400.338 525.645 400.068 525.322 399.717C525.006 399.365 524.848 398.949 524.848 398.469ZM526.025 405.588H536.572V408.822H527.449V410.229H537.082V411.248H526.096V407.855H535.201V406.59H526.025V405.588ZM526.148 398.469C526.148 398.744 526.254 398.987 526.465 399.198C526.676 399.403 526.978 399.564 527.37 399.682C527.763 399.799 528.217 399.857 528.732 399.857C529.242 399.857 529.69 399.799 530.077 399.682C530.47 399.564 530.774 399.403 530.991 399.198C531.208 398.987 531.316 398.744 531.316 398.469C531.316 398.193 531.208 397.953 530.991 397.748C530.78 397.537 530.481 397.373 530.095 397.256C529.714 397.139 529.271 397.08 528.768 397.08C528.24 397.08 527.777 397.139 527.379 397.256C526.986 397.367 526.682 397.528 526.465 397.739C526.254 397.944 526.148 398.188 526.148 398.469Z" fill="white"/>
<path d="M754.102 410.176C753.275 410.176 752.511 409.991 751.808 409.622C751.11 409.247 750.536 408.611 750.085 407.715C749.634 406.812 749.408 405.617 749.408 404.129C749.408 402.641 749.602 401.372 749.988 400.323C750.381 399.269 750.938 398.469 751.658 397.924C752.385 397.373 753.246 397.098 754.242 397.098C754.975 397.098 755.634 397.241 756.22 397.528C756.806 397.81 757.283 398.205 757.652 398.715C758.027 399.225 758.268 399.811 758.373 400.473H756.809C756.656 399.881 756.36 399.406 755.921 399.049C755.481 398.686 754.922 398.504 754.242 398.504C753.545 398.504 752.944 398.697 752.44 399.084C751.942 399.465 751.562 400.019 751.298 400.745C751.034 401.472 750.902 402.342 750.902 403.355H751.061C751.43 402.822 751.896 402.409 752.458 402.116C753.026 401.817 753.65 401.668 754.33 401.668C755.08 401.668 755.771 401.85 756.404 402.213C757.037 402.576 757.541 403.08 757.916 403.725C758.291 404.363 758.479 405.084 758.479 405.887C758.479 406.684 758.297 407.407 757.934 408.058C757.57 408.708 757.055 409.224 756.387 409.604C755.725 409.985 754.963 410.176 754.102 410.176ZM751.113 405.922C751.113 406.42 751.239 406.889 751.491 407.328C751.749 407.768 752.101 408.122 752.546 408.392C752.997 408.655 753.498 408.787 754.049 408.787C754.588 408.787 755.077 408.658 755.517 408.4C755.956 408.137 756.305 407.785 756.562 407.346C756.82 406.906 756.949 406.426 756.949 405.904C756.949 405.389 756.823 404.914 756.571 404.48C756.325 404.047 755.982 403.701 755.543 403.443C755.109 403.186 754.623 403.057 754.084 403.057C753.539 403.057 753.041 403.191 752.59 403.461C752.139 403.725 751.781 404.076 751.518 404.516C751.254 404.955 751.119 405.424 751.113 405.922ZM773.438 411.424H772.084V403.25H769.922V410.65H768.604V396.219H769.922V402.107H772.084V395.797H773.438V411.424ZM760.113 407.1C761.854 406.127 763.151 404.958 764.007 403.593C764.862 402.222 765.352 400.684 765.475 398.979H760.711V397.836H766.828C766.816 400.004 766.356 401.958 765.448 403.698C764.546 405.433 763.037 406.889 760.922 408.066L760.113 407.1ZM788.537 405.025H787.148V404.164H783.984V403.25H787.148V395.814H788.537V405.025ZM776.769 401.703C780.489 401.703 783.521 401.574 785.865 401.316L785.953 402.213C784.529 402.418 782.971 402.559 781.277 402.635V405.078H779.924V402.688C778.939 402.723 777.551 402.74 775.758 402.74L775.6 401.703H776.769ZM776.812 398.469C776.812 397.988 776.971 397.572 777.287 397.221C777.609 396.863 778.063 396.591 778.649 396.403C779.235 396.21 779.918 396.113 780.697 396.113C781.471 396.113 782.147 396.21 782.728 396.403C783.313 396.591 783.768 396.863 784.09 397.221C784.412 397.572 784.576 397.988 784.582 398.469C784.576 398.949 784.412 399.365 784.09 399.717C783.768 400.068 783.313 400.338 782.728 400.525C782.147 400.713 781.471 400.807 780.697 400.807C779.912 400.807 779.227 400.713 778.641 400.525C778.061 400.338 777.609 400.068 777.287 399.717C776.971 399.365 776.812 398.949 776.812 398.469ZM777.99 405.588H788.537V408.822H779.414V410.229H789.047V411.248H778.061V407.855H787.166V406.59H777.99V405.588ZM778.113 398.469C778.113 398.744 778.219 398.987 778.43 399.198C778.641 399.403 778.942 399.564 779.335 399.682C779.728 399.799 780.182 399.857 780.697 399.857C781.207 399.857 781.655 399.799 782.042 399.682C782.435 399.564 782.739 399.403 782.956 399.198C783.173 398.987 783.281 398.744 783.281 398.469C783.281 398.193 783.173 397.953 782.956 397.748C782.745 397.537 782.446 397.373 782.06 397.256C781.679 397.139 781.236 397.08 780.732 397.08C780.205 397.08 779.742 397.139 779.344 397.256C778.951 397.367 778.646 397.528 778.43 397.739C778.219 397.944 778.113 398.188 778.113 398.469Z" fill="white"/>
<path d="M23.6611 24.3594H19.1064V22.4043H16.7217V24.3594H12.1455V26.25H23.6611V24.3594ZM13.1338 30.5469C13.1338 32.6738 15.0996 34.0918 17.9033 34.0918C20.707 34.0918 22.6406 32.6738 22.6514 30.5469C22.6406 28.4199 20.707 27.002 17.9033 27.002C15.0996 27.002 13.1338 28.4199 13.1338 30.5469ZM14.5088 37.4648H25.0576V41.9121H27.4424V35.5527H14.5088V37.4648ZM15.4541 30.5469C15.4434 29.4512 16.4316 28.8066 17.9033 28.8066C19.375 28.8066 20.374 29.4512 20.374 30.5469C20.374 31.6426 19.375 32.2549 17.9033 32.2441C16.4316 32.2549 15.4434 31.6426 15.4541 30.5469ZM25.0576 34.6504H27.4424V29.6016H30.1494V27.6465H27.4424V22.4902H25.0576V34.6504ZM35.6279 34.1348H33.2646V41.6758H46.5635V34.1348H44.1787V35.9824H35.6279V34.1348ZM31.1377 33.0391H48.8408V31.084H31.1377V33.0391ZM32.04 28.1836L32.9209 30.0742C36.1543 29.6338 38.7324 28.1943 39.9893 26.2178C41.2354 28.1836 43.8027 29.6338 47.0576 30.0742L47.8955 28.1836C43.8779 27.7109 41.2139 25.5303 41.2139 23.4355V22.7051H38.7646V23.4355C38.7539 25.5947 36.1006 27.6787 32.04 28.1836ZM35.6279 39.7852V37.8086H44.1787V39.7852H35.6279ZM68.1982 25.2617H65.4697V22.5117H63.085V34.2422H65.4697V31.3418H68.1982V29.3438H65.4697V27.2383H68.1982V25.2617ZM50.8818 25.584H57.4131V27.4746H50.9033V33.2754H52.4932C56.3281 33.2861 58.8633 33.1787 61.7529 32.6523L61.4951 30.7402C58.8525 31.1807 56.5752 31.2988 53.2881 31.3203V29.2793H59.7549V23.6934H50.8818V25.584ZM52.5576 38.2812C52.5469 40.5586 55.0605 41.8691 59.1318 41.8691C63.1387 41.8691 65.6523 40.5586 65.6631 38.2812C65.6523 35.9932 63.1387 34.6182 59.1318 34.6074C55.0605 34.6182 52.5469 35.9932 52.5576 38.2812ZM54.8994 38.2812C54.8887 37.1104 56.4141 36.4766 59.1318 36.4766C61.8066 36.4766 63.2998 37.1104 63.2998 38.2812C63.2998 39.4414 61.8066 40.0752 59.1318 40.0645C56.4141 40.0752 54.8887 39.4414 54.8994 38.2812Z" fill="white"/>
<path opacity="0.3" d="M98.5 249.5L13 298V360H793V127V15L721 82.5L641.5 127L514.93 152.774H396.977H269.486L203.232 184H134.969L98.5 249.5Z" fill="url(#paint0_linear_1489_48633)"/>
<path d="M26 276.5L93 257L134.969 185H203.232L269.487 153.774H396.977H514.931L646.5 128L735 74L793 128" stroke="#FF5C00" stroke-width="3"/>
<path d="M15 369.5L74.2673 248L163.851 300.5L269.911 335H383.178L477.396 300.5L536.089 287L698.782 300.5L793 335" stroke="#DBDBDB"/>
<circle cx="766" cy="73" r="73" fill="#FF6B00"/>
<path d="M726.418 99.5156H729.395C729.969 99.5156 730.451 99.6152 730.842 99.8145C731.236 100.01 731.529 100.277 731.721 100.617C731.916 100.957 732.012 101.34 732.008 101.766C732.012 102.27 731.887 102.664 731.633 102.949C731.379 103.23 731.043 103.43 730.625 103.547V103.629C730.902 103.645 731.172 103.738 731.434 103.91C731.699 104.082 731.918 104.326 732.09 104.643C732.262 104.955 732.348 105.324 732.348 105.75C732.344 106.188 732.24 106.576 732.037 106.916C731.838 107.252 731.525 107.518 731.1 107.713C730.678 107.904 730.145 108 729.5 108H726.418V99.5156ZM729.488 107.062C730.117 107.062 730.582 106.941 730.883 106.699C731.184 106.457 731.332 106.137 731.328 105.738C731.332 105.449 731.26 105.184 731.111 104.941C730.963 104.699 730.752 104.506 730.479 104.361C730.209 104.217 729.898 104.145 729.547 104.145H727.473V107.062H729.488ZM729.359 103.23C729.664 103.23 729.941 103.172 730.191 103.055C730.441 102.934 730.639 102.764 730.783 102.545C730.928 102.322 731 102.066 731 101.777C731 101.523 730.941 101.297 730.824 101.098C730.707 100.898 730.527 100.742 730.285 100.629C730.047 100.512 729.75 100.453 729.395 100.453H727.473V103.23H729.359ZM739.566 100.406H733.355V99.6562H736.004V98.4844H736.918V99.6562H739.566V100.406ZM733.953 102.832C733.953 102.453 734.057 102.123 734.264 101.842C734.471 101.557 734.764 101.338 735.143 101.186C735.521 101.029 735.961 100.949 736.461 100.945C736.957 100.949 737.393 101.029 737.768 101.186C738.146 101.338 738.439 101.557 738.646 101.842C738.857 102.123 738.965 102.453 738.969 102.832C738.965 103.203 738.857 103.531 738.646 103.816C738.439 104.098 738.146 104.316 737.768 104.473C737.389 104.629 736.953 104.707 736.461 104.707C735.965 104.707 735.525 104.629 735.143 104.473C734.764 104.316 734.471 104.098 734.264 103.816C734.057 103.531 733.953 103.203 733.953 102.832ZM734.656 105.621H741.477V108.949H740.562V106.371H734.656V105.621ZM734.832 102.832C734.832 103.059 734.898 103.258 735.031 103.43C735.164 103.602 735.352 103.734 735.594 103.828C735.84 103.922 736.123 103.969 736.443 103.969C736.768 103.969 737.055 103.924 737.305 103.834C737.555 103.74 737.748 103.607 737.885 103.436C738.025 103.264 738.098 103.062 738.102 102.832C738.098 102.598 738.027 102.393 737.891 102.217C737.754 102.041 737.561 101.904 737.311 101.807C737.064 101.709 736.781 101.66 736.461 101.66C736.137 101.66 735.85 101.709 735.6 101.807C735.354 101.904 735.164 102.041 735.031 102.217C734.898 102.393 734.832 102.598 734.832 102.832ZM740.562 98.5312H741.477V101.426H743.047V102.199H741.477V105.047H740.562V98.5312ZM746.809 100.605C746.812 100.992 746.9 101.371 747.072 101.742C747.244 102.113 747.492 102.447 747.816 102.744C748.141 103.037 748.52 103.266 748.953 103.43L748.473 104.133C747.98 103.941 747.555 103.67 747.195 103.318C746.84 102.967 746.566 102.562 746.375 102.105C746.18 102.617 745.896 103.078 745.525 103.488C745.154 103.898 744.719 104.211 744.219 104.426L743.715 103.711C744.16 103.52 744.549 103.254 744.881 102.914C745.217 102.574 745.475 102.203 745.654 101.801C745.834 101.395 745.926 100.996 745.93 100.605V99.1875H746.809V100.605ZM745.613 107.074C745.609 106.684 745.746 106.35 746.023 106.072C746.305 105.791 746.709 105.578 747.236 105.434C747.764 105.285 748.387 105.211 749.105 105.211C749.82 105.211 750.439 105.285 750.963 105.434C751.49 105.578 751.896 105.791 752.182 106.072C752.467 106.35 752.609 106.684 752.609 107.074C752.609 107.461 752.467 107.793 752.182 108.07C751.896 108.348 751.49 108.559 750.963 108.703C750.439 108.852 749.82 108.926 749.105 108.926C748.387 108.926 747.764 108.852 747.236 108.703C746.709 108.559 746.305 108.348 746.023 108.07C745.746 107.793 745.609 107.461 745.613 107.074ZM746.527 107.074C746.523 107.309 746.623 107.512 746.826 107.684C747.033 107.852 747.328 107.98 747.711 108.07C748.098 108.164 748.553 108.211 749.076 108.211C749.607 108.211 750.068 108.166 750.459 108.076C750.85 107.986 751.152 107.855 751.367 107.684C751.582 107.512 751.691 107.309 751.695 107.074C751.691 106.836 751.584 106.631 751.373 106.459C751.162 106.283 750.861 106.148 750.471 106.055C750.084 105.961 749.629 105.914 749.105 105.914C748.574 105.914 748.113 105.961 747.723 106.055C747.336 106.148 747.039 106.283 746.832 106.459C746.625 106.631 746.523 106.836 746.527 107.074ZM749.422 98.7422H750.289V101.344H751.672V98.543H752.551V104.977H751.672V102.105H750.289V104.648H749.422V98.7422ZM757.484 99.293C758.023 99.293 758.504 99.3965 758.926 99.6035C759.352 99.8105 759.684 100.1 759.922 100.471C760.164 100.842 760.285 101.266 760.285 101.742C760.285 102.219 760.164 102.643 759.922 103.014C759.684 103.385 759.352 103.674 758.926 103.881C758.504 104.088 758.023 104.191 757.484 104.191C756.941 104.191 756.455 104.088 756.025 103.881C755.6 103.674 755.268 103.385 755.029 103.014C754.791 102.643 754.672 102.219 754.672 101.742C754.672 101.266 754.791 100.842 755.029 100.471C755.268 100.1 755.6 99.8105 756.025 99.6035C756.455 99.3965 756.941 99.293 757.484 99.293ZM754.619 105.891C755.803 105.891 756.926 105.867 757.988 105.82C759.055 105.773 760.062 105.68 761.012 105.539L761.082 106.219C760.031 106.414 758.963 106.539 757.877 106.594C756.791 106.648 755.586 106.676 754.262 106.676L754.133 105.891H754.619ZM755.574 101.742C755.574 102.062 755.654 102.348 755.814 102.598C755.979 102.844 756.205 103.037 756.494 103.178C756.787 103.314 757.117 103.383 757.484 103.383C757.848 103.383 758.174 103.314 758.463 103.178C758.752 103.037 758.977 102.844 759.137 102.598C759.301 102.348 759.383 102.062 759.383 101.742C759.383 101.426 759.301 101.143 759.137 100.893C758.977 100.643 758.752 100.449 758.463 100.312C758.174 100.172 757.848 100.102 757.484 100.102C757.117 100.102 756.787 100.172 756.494 100.312C756.205 100.449 755.979 100.643 755.814 100.893C755.654 101.143 755.574 101.426 755.574 101.742ZM761.703 98.5312H762.617V108.973H761.703V98.5312ZM772.168 105.117C772.91 105.117 773.555 105.193 774.102 105.346C774.652 105.494 775.076 105.713 775.373 106.002C775.674 106.287 775.824 106.629 775.824 107.027C775.824 107.422 775.674 107.762 775.373 108.047C775.076 108.332 774.652 108.549 774.102 108.697C773.555 108.85 772.91 108.926 772.168 108.926C771.426 108.926 770.779 108.85 770.229 108.697C769.682 108.549 769.26 108.332 768.963 108.047C768.67 107.762 768.523 107.422 768.523 107.027C768.523 106.629 768.67 106.287 768.963 106.002C769.26 105.713 769.682 105.494 770.229 105.346C770.779 105.193 771.426 105.117 772.168 105.117ZM767.469 103.395H771.395V101.379H772.297V103.395H776.949V104.145H767.469V103.395ZM768.594 99.0703H775.742V99.9492C775.738 100.523 775.721 101.01 775.689 101.408C775.658 101.803 775.578 102.238 775.449 102.715L774.547 102.609C774.672 102.133 774.75 101.705 774.781 101.326C774.812 100.943 774.828 100.484 774.828 99.9492V99.8203H768.594V99.0703ZM769.438 107.027C769.438 107.266 769.549 107.475 769.771 107.654C769.994 107.83 770.311 107.965 770.721 108.059C771.135 108.152 771.617 108.199 772.168 108.199C772.719 108.199 773.199 108.152 773.609 108.059C774.023 107.965 774.342 107.83 774.564 107.654C774.791 107.475 774.906 107.266 774.91 107.027C774.906 106.781 774.791 106.568 774.564 106.389C774.342 106.209 774.023 106.07 773.609 105.973C773.199 105.871 772.719 105.82 772.168 105.82C771.617 105.82 771.135 105.871 770.721 105.973C770.311 106.07 769.994 106.209 769.771 106.389C769.549 106.568 769.438 106.781 769.438 107.027ZM787.355 105.469H783.008V108.949H782.105V105.469H777.816V104.719H787.355V105.469ZM779.035 98.9648H779.949V100.406H785.199V98.9648H786.125V103.453H779.035V98.9648ZM785.199 102.703V101.156H779.949V102.703H785.199ZM790.32 106.008H795.523V104.789H796.449V108.809H789.406V104.789H790.32V106.008ZM788.199 103.289H797.691V104.051H788.199V103.289ZM788.738 101.812C789.367 101.727 789.969 101.555 790.543 101.297C791.117 101.039 791.582 100.723 791.938 100.348C792.297 99.9688 792.477 99.5664 792.477 99.1406V98.6484H793.426V99.1406C793.426 99.5508 793.604 99.9473 793.959 100.33C794.318 100.713 794.785 101.037 795.359 101.303C795.938 101.564 796.535 101.734 797.152 101.812L796.812 102.551C796.27 102.469 795.742 102.326 795.23 102.123C794.723 101.92 794.27 101.664 793.871 101.355C793.473 101.047 793.166 100.703 792.951 100.324C792.736 100.703 792.428 101.047 792.025 101.355C791.627 101.664 791.174 101.92 790.666 102.123C790.158 102.326 789.633 102.469 789.09 102.551L788.738 101.812ZM795.523 108.07V106.734H790.32V108.07H795.523ZM804.348 99.8906C804.344 100.434 804.326 100.936 804.295 101.396C804.264 101.857 804.191 102.383 804.078 102.973L803.152 102.902C803.262 102.355 803.334 101.869 803.369 101.443C803.408 101.018 803.432 100.574 803.439 100.113H799.156V99.3398H804.348V99.8906ZM798.512 103.945C799.336 103.945 800.082 103.936 800.75 103.916V101.648H801.664V103.887C803.008 103.832 804.152 103.738 805.098 103.605L805.156 104.285C804.184 104.453 803.156 104.564 802.074 104.619C800.992 104.674 799.836 104.703 798.605 104.707L798.512 103.945ZM800.117 105.668H801.043V107.953H807.078V108.727H800.117V105.668ZM805.801 98.5312H806.738V101.93H808.262V102.715H806.738V106.371H805.801V98.5312Z" fill="white"/>
<path d="M725.614 54.6582L730.993 46.2734H734.315V54.623H735.933V56.75H734.315V59H731.802V56.75H725.614V54.6582ZM731.837 54.623V49.1738H731.714L728.286 54.5176V54.623H731.837ZM742.911 49.6309C742.911 50.416 743.049 51.1982 743.324 51.9775C743.6 52.7568 744.016 53.4717 744.572 54.1221C745.135 54.7725 745.823 55.291 746.638 55.6777L745.39 57.3652C744.558 56.9902 743.84 56.4512 743.236 55.748C742.639 55.0449 742.167 54.2305 741.821 53.3047C741.464 54.3008 740.966 55.1768 740.327 55.9326C739.694 56.6885 738.938 57.2598 738.06 57.6465L736.829 55.9062C737.661 55.5371 738.367 55.0186 738.947 54.3506C739.527 53.6768 739.961 52.9297 740.248 52.1094C740.541 51.2832 740.69 50.457 740.696 49.6309V49.0156H737.392V47.2227H740.679V44.9727H742.929V47.2227H746.181V49.0156H742.911V49.6309ZM747.499 44.6211H749.749V50.8262H752.104V52.707H749.749V60.6172H747.499V44.6211ZM769.524 49.1387H771.687V50.9844H769.524V56.416H767.274V44.6387H769.524V49.1387ZM757.308 45.7637H759.54V48.084H762.81V45.7637H765.06V53.8672H757.308V45.7637ZM759.153 55.2031H761.386V58.543H770.104V60.3359H759.153V55.2031ZM762.81 52.1094V49.8066H759.54V52.1094H762.81ZM786.979 54.3594H772.39V52.5488H778.542V51.1953H774.253V45.0078H776.468V46.4668H782.884V45.0078H785.116V51.1953H780.792V52.5488H786.979V54.3594ZM774.007 55.4492H785.204V60.6172H782.972V57.2246H774.007V55.4492ZM782.884 49.4375V48.1191H776.468V49.4375H782.884ZM805.929 48.084H792.798V46.2734H798.265V44.6035H800.497V46.2734H805.929V48.084ZM792.095 54.957H806.737V56.7852H800.497V60.6348H798.265V56.7852H792.095V54.957ZM793.87 51.4414C793.87 50.8555 794.087 50.3574 794.521 49.9473C794.96 49.5371 795.593 49.2266 796.419 49.0156C797.245 48.8047 798.235 48.6992 799.39 48.6992C800.538 48.6992 801.522 48.8047 802.343 49.0156C803.169 49.2266 803.802 49.5371 804.241 49.9473C804.687 50.3574 804.909 50.8555 804.909 51.4414C804.909 52.0215 804.687 52.5166 804.241 52.9268C803.802 53.3369 803.169 53.6475 802.343 53.8584C801.522 54.0693 800.538 54.1777 799.39 54.1836C798.235 54.1777 797.245 54.0693 796.419 53.8584C795.593 53.6475 794.96 53.3398 794.521 52.9355C794.087 52.5254 793.87 52.0273 793.87 51.4414ZM796.19 51.4414C796.19 51.8047 796.454 52.0742 796.981 52.25C797.509 52.4258 798.312 52.5137 799.39 52.5137C800.456 52.5137 801.253 52.4258 801.78 52.25C802.308 52.0742 802.571 51.8047 802.571 51.4414C802.571 51.0781 802.308 50.8086 801.78 50.6328C801.253 50.4512 800.456 50.3574 799.39 50.3516C798.317 50.3574 797.515 50.4512 796.981 50.6328C796.454 50.8086 796.19 51.0781 796.19 51.4414ZM713.822 70.207H710.287C710.294 70.9167 710.443 71.5938 710.736 72.2383C711.036 72.8828 711.492 73.4557 712.104 73.957C712.715 74.4583 713.477 74.8424 714.389 75.1094L713.197 77.0625C712.24 76.7695 711.417 76.3398 710.727 75.7734C710.036 75.207 709.49 74.5332 709.086 73.752C708.676 74.6699 708.103 75.4674 707.367 76.1445C706.638 76.8151 705.756 77.3229 704.721 77.668L703.451 75.6953C704.395 75.3958 705.189 74.9629 705.834 74.3965C706.479 73.8301 706.957 73.1855 707.27 72.4629C707.589 71.7402 707.755 70.9883 707.768 70.207H704.135V68.2148H713.822V70.207ZM705.912 81.3398C705.912 80.6237 706.156 80.0085 706.645 79.4941C707.133 78.9798 707.836 78.5892 708.754 78.3223C709.672 78.0553 710.756 77.9219 712.006 77.9219C713.236 77.9219 714.301 78.0553 715.199 78.3223C716.098 78.5892 716.788 78.9798 717.27 79.4941C717.758 80.0085 718.002 80.6237 718.002 81.3398C718.002 82.0625 717.758 82.681 717.27 83.1953C716.788 83.7161 716.098 84.1133 715.199 84.3867C714.301 84.6602 713.236 84.7969 712.006 84.7969C710.756 84.7969 709.672 84.6602 708.754 84.3867C707.842 84.1133 707.139 83.7161 706.645 83.1953C706.156 82.6745 705.912 82.056 705.912 81.3398ZM708.412 81.3398C708.406 81.8411 708.708 82.222 709.32 82.4824C709.932 82.7363 710.827 82.8633 712.006 82.8633C713.165 82.8633 714.044 82.7363 714.643 82.4824C715.242 82.2285 715.541 81.8477 715.541 81.3398C715.541 80.8516 715.245 80.4837 714.652 80.2363C714.066 79.9824 713.207 79.8555 712.074 79.8555C710.87 79.8555 709.955 79.9792 709.33 80.2266C708.712 80.474 708.406 80.8451 708.412 81.3398ZM715.326 67.0234H717.826V71.1445H720.229V73.1758H717.826V77.5703H715.326V67.0234ZM735.951 84.7969H733.432V67.0234H735.951V84.7969ZM721.068 79.7578C722.585 79.0417 723.835 78.2441 724.818 77.3652C725.808 76.4863 726.563 75.513 727.084 74.4453C727.611 73.3711 727.943 72.1667 728.08 70.832H722.025V68.8789H730.619C730.613 70.7799 730.355 72.5085 729.848 74.0645C729.34 75.6204 728.477 77.0495 727.26 78.3516C726.049 79.6536 724.421 80.7865 722.377 81.75L721.068 79.7578ZM753.236 84.7969H750.717V67.0234H753.236V84.7969ZM738.354 79.7578C739.87 79.0417 741.12 78.2441 742.104 77.3652C743.093 76.4863 743.848 75.513 744.369 74.4453C744.896 73.3711 745.229 72.1667 745.365 70.832H739.311V68.8789H747.904C747.898 70.7799 747.641 72.5085 747.133 74.0645C746.625 75.6204 745.762 77.0495 744.545 78.3516C743.334 79.6536 741.706 80.7865 739.662 81.75L738.354 79.7578ZM770.561 84.8164H768.08V80.3242H758.354V78.3516H770.561V84.8164ZM755.814 72.3164C755.808 71.4896 756.01 70.7474 756.42 70.0898C756.837 69.4258 757.406 68.9082 758.129 68.5371C758.852 68.1595 759.656 67.974 760.541 67.9805C761.29 67.974 761.983 68.1107 762.621 68.3906C763.266 68.6706 763.803 69.0645 764.232 69.5723C764.669 70.0801 764.962 70.6628 765.111 71.3203H768.08V67.0234H770.561V77.5312H768.08V73.3711H765.102C764.945 74.0352 764.649 74.6243 764.213 75.1387C763.783 75.6465 763.249 76.0436 762.611 76.3301C761.98 76.61 761.29 76.75 760.541 76.75C759.649 76.75 758.842 76.5612 758.119 76.1836C757.396 75.7995 756.83 75.2721 756.42 74.6016C756.01 73.9245 755.808 73.1628 755.814 72.3164ZM758.178 72.3164C758.178 72.7917 758.279 73.2051 758.48 73.5566C758.682 73.9017 758.962 74.1654 759.32 74.3477C759.685 74.5299 760.092 74.6211 760.541 74.6211C760.977 74.6211 761.371 74.5299 761.723 74.3477C762.074 74.1654 762.351 73.9017 762.553 73.5566C762.761 73.2051 762.865 72.7917 762.865 72.3164C762.865 71.8672 762.761 71.4733 762.553 71.1348C762.351 70.7897 762.074 70.526 761.723 70.3438C761.371 70.1615 760.977 70.0703 760.541 70.0703C760.092 70.0703 759.685 70.1615 759.32 70.3438C758.962 70.526 758.682 70.7897 758.48 71.1348C758.279 71.4733 758.178 71.8672 758.178 72.3164ZM791.693 71.2227H793.959V73.293H791.693V77.4922H789.193V67.0234H791.693V71.2227ZM777.279 75.5781C779.128 75.5781 780.567 75.5684 781.596 75.5488V74.7676C780.606 74.6439 779.835 74.3835 779.281 73.9863C778.734 73.5892 778.464 73.0781 778.471 72.4531C778.471 71.9779 778.643 71.571 778.988 71.2324C779.34 70.8874 779.841 70.6237 780.492 70.4414C781.143 70.2591 781.905 70.168 782.777 70.168C783.663 70.168 784.434 70.2591 785.092 70.4414C785.756 70.6172 786.27 70.8776 786.635 71.2227C786.999 71.5677 787.182 71.9779 787.182 72.4531C787.175 73.0716 786.898 73.5794 786.352 73.9766C785.805 74.3737 785.046 74.6341 784.076 74.7578V75.4609C785.665 75.3763 787.097 75.2526 788.373 75.0898L788.549 76.6328C786.876 76.9128 785.154 77.0951 783.383 77.1797C781.618 77.2578 779.669 77.2969 777.533 77.2969L777.279 75.5781ZM777.748 68.1367H781.596V66.8672H784.076V68.1367H787.924V69.7969H777.748V68.1367ZM779.643 78.1172H791.693V82.1016H782.162V83.0195H792.279V84.6797H779.662V80.5977H789.193V79.7773H779.643V78.1172ZM780.854 72.4531C780.847 72.7201 781.013 72.9219 781.352 73.0586C781.69 73.1953 782.182 73.2669 782.826 73.2734C783.458 73.2669 783.943 73.1953 784.281 73.0586C784.62 72.9219 784.792 72.7201 784.799 72.4531C784.792 71.9583 784.135 71.7109 782.826 71.7109C781.505 71.7109 780.847 71.9583 780.854 72.4531ZM801.479 69.4453C801.472 70.2656 801.612 71.0339 801.898 71.75C802.191 72.4661 802.641 73.0977 803.246 73.6445C803.858 74.1914 804.623 74.6081 805.541 74.8945L804.232 76.8477C803.295 76.5221 802.494 76.0664 801.83 75.4805C801.173 74.888 800.652 74.1816 800.268 73.3613C799.864 74.3184 799.298 75.1419 798.568 75.832C797.839 76.5221 796.954 77.043 795.912 77.3945L794.604 75.4023C795.58 75.0898 796.394 74.6374 797.045 74.0449C797.696 73.446 798.174 72.7656 798.48 72.0039C798.793 71.2357 798.952 70.4219 798.959 69.5625V67.9414H801.479V69.4453ZM797.553 81.3594C797.553 80.6367 797.797 80.015 798.285 79.4941C798.78 78.9733 799.486 78.5794 800.404 78.3125C801.322 78.0391 802.41 77.9023 803.666 77.9023C804.929 77.9023 806.02 78.0391 806.938 78.3125C807.855 78.5794 808.562 78.9733 809.057 79.4941C809.551 80.015 809.799 80.6367 809.799 81.3594C809.799 82.082 809.551 82.7005 809.057 83.2148C808.562 83.7357 807.855 84.1296 806.938 84.3965C806.02 84.6634 804.929 84.7969 803.666 84.7969C802.403 84.7969 801.312 84.6634 800.395 84.3965C799.483 84.1296 798.78 83.7357 798.285 83.2148C797.797 82.7005 797.553 82.082 797.553 81.3594ZM800.033 81.3594C800.033 81.8542 800.342 82.2285 800.961 82.4824C801.586 82.7363 802.488 82.8633 803.666 82.8633C804.851 82.8633 805.753 82.7363 806.371 82.4824C806.996 82.2285 807.312 81.8542 807.318 81.3594C807.312 80.8516 806.999 80.4707 806.381 80.2168C805.762 79.9629 804.857 79.8359 803.666 79.8359C802.481 79.8359 801.579 79.9661 800.961 80.2266C800.342 80.4805 800.033 80.8581 800.033 81.3594ZM803.92 70.2852H807.26V67.0234H809.74V77.4336H807.26V72.3164H803.92V70.2852ZM826.264 74.25H828.588V76.3203H826.264V84.7969H823.744V67.0234H826.264V74.25ZM811.83 79.7773C813.705 79.7773 815.17 79.7643 816.225 79.7383V78.2148C815.6 78.0911 815.053 77.8796 814.584 77.5801C814.115 77.2806 813.754 76.9095 813.5 76.4668C813.246 76.0241 813.119 75.5326 813.119 74.9922C813.119 74.3411 813.301 73.7617 813.666 73.2539C814.037 72.7461 814.555 72.3522 815.219 72.0723C815.883 71.7923 816.641 71.6523 817.494 71.6523C818.334 71.6523 819.083 71.7923 819.74 72.0723C820.404 72.3522 820.922 72.7461 821.293 73.2539C821.671 73.7617 821.863 74.3411 821.869 74.9922C821.863 75.5326 821.729 76.0273 821.469 76.4766C821.208 76.9193 820.84 77.2904 820.365 77.5898C819.896 77.8893 819.35 78.0977 818.725 78.2148V79.6504C820.307 79.5658 821.687 79.4388 822.865 79.2695L823.021 81.0859C821.459 81.3724 819.841 81.5645 818.168 81.6621C816.495 81.7598 814.73 81.8086 812.875 81.8086H812.162L811.83 79.7773ZM812.182 68.9961H816.225V67.1211H818.725V68.9961H822.729V70.9492H812.182V68.9961ZM815.482 74.9922C815.476 75.4544 815.652 75.8125 816.01 76.0664C816.374 76.3138 816.869 76.4375 817.494 76.4375C818.1 76.4375 818.578 76.3138 818.93 76.0664C819.288 75.8125 819.467 75.4544 819.467 74.9922C819.467 74.543 819.288 74.1914 818.93 73.9375C818.572 73.6836 818.093 73.5534 817.494 73.5469C816.876 73.5534 816.384 73.6836 816.02 73.9375C815.655 74.1914 815.476 74.543 815.482 74.9922Z" fill="white"/>
<circle cx="77" cy="275" r="56" fill="#585469"/>
<path d="M46.5801 261.273H44.084L40.9375 263.277V265.615L43.8555 263.787H43.9258V274H46.5801V261.273ZM54.7891 264.631V264.016H58.0586V262.223H54.8066V259.973H52.5566V262.223H49.2695V264.016H52.5742V264.631C52.5566 267.03 51.3174 269.755 48.707 270.906L49.9375 272.646C51.748 271.847 53.0049 270.229 53.6992 268.305C54.3672 270.089 55.5537 271.592 57.2676 272.365L58.5156 270.678C55.9668 269.474 54.7891 266.907 54.7891 264.631ZM59.377 275.617H61.627V267.707H63.9824V265.826H61.627V259.621H59.377V275.617ZM81.4023 259.639H79.1523V271.416H81.4023V265.984H83.5645V264.139H81.4023V259.639ZM69.1855 268.867H76.9375V260.764H74.6875V263.084H71.418V260.764H69.1855V268.867ZM71.0312 275.336H81.9824V273.543H73.2637V270.203H71.0312V275.336ZM71.418 267.109V264.807H74.6875V267.109H71.418ZM98.8574 267.549H92.6699V266.195H96.9941V260.008H94.7617V261.467H88.3457V260.008H86.1309V266.195H90.4199V267.549H84.2676V269.359H98.8574V267.549ZM85.8848 272.225H94.8496V275.617H97.082V270.449H85.8848V272.225ZM88.3457 264.438V263.119H94.7617V264.438H88.3457ZM107.98 260.939H100.299V268.621H107.98V260.939ZM102.145 275.336H113.096V273.543H104.377V270.15H102.145V275.336ZM102.514 266.863V262.732H105.766V266.863H102.514ZM110.266 271.293H112.516V266.072H114.678V264.227H112.516V259.621H110.266V271.293Z" fill="white"/>
<path d="M35.5332 295L38.6387 286.516H39.752L42.8574 295H41.7441L40.8945 292.609H37.4844L36.6348 295H35.5332ZM40.5723 291.684L39.2246 287.887H39.1543L37.8066 291.684H40.5723ZM49.7246 287.406H43.5137V286.656H46.1621V285.484H47.0762V286.656H49.7246V287.406ZM44.1113 289.832C44.1113 289.453 44.2148 289.123 44.4219 288.842C44.6289 288.557 44.9219 288.338 45.3008 288.186C45.6797 288.029 46.1191 287.949 46.6191 287.945C47.1152 287.949 47.5508 288.029 47.9258 288.186C48.3047 288.338 48.5977 288.557 48.8047 288.842C49.0156 289.123 49.123 289.453 49.127 289.832C49.123 290.203 49.0156 290.531 48.8047 290.816C48.5977 291.098 48.3047 291.316 47.9258 291.473C47.5469 291.629 47.1113 291.707 46.6191 291.707C46.123 291.707 45.6836 291.629 45.3008 291.473C44.9219 291.316 44.6289 291.098 44.4219 290.816C44.2148 290.531 44.1113 290.203 44.1113 289.832ZM44.8145 292.621H51.6348V295.949H50.7207V293.371H44.8145V292.621ZM44.9902 289.832C44.9902 290.059 45.0566 290.258 45.1895 290.43C45.3223 290.602 45.5098 290.734 45.752 290.828C45.998 290.922 46.2812 290.969 46.6016 290.969C46.9258 290.969 47.2129 290.924 47.4629 290.834C47.7129 290.74 47.9062 290.607 48.043 290.436C48.1836 290.264 48.2559 290.062 48.2598 289.832C48.2559 289.598 48.1855 289.393 48.0488 289.217C47.9121 289.041 47.7188 288.904 47.4688 288.807C47.2227 288.709 46.9395 288.66 46.6191 288.66C46.2949 288.66 46.0078 288.709 45.7578 288.807C45.5117 288.904 45.3223 289.041 45.1895 289.217C45.0566 289.393 44.9902 289.598 44.9902 289.832ZM50.7207 285.531H51.6348V288.426H53.2051V289.199H51.6348V292.047H50.7207V285.531ZM56.9668 287.605C56.9707 287.992 57.0586 288.371 57.2305 288.742C57.4023 289.113 57.6504 289.447 57.9746 289.744C58.2988 290.037 58.6777 290.266 59.1113 290.43L58.6309 291.133C58.1387 290.941 57.7129 290.67 57.3535 290.318C56.998 289.967 56.7246 289.562 56.5332 289.105C56.3379 289.617 56.0547 290.078 55.6836 290.488C55.3125 290.898 54.877 291.211 54.377 291.426L53.873 290.711C54.3184 290.52 54.707 290.254 55.0391 289.914C55.375 289.574 55.6328 289.203 55.8125 288.801C55.9922 288.395 56.084 287.996 56.0879 287.605V286.188H56.9668V287.605ZM55.7715 294.074C55.7676 293.684 55.9043 293.35 56.1816 293.072C56.4629 292.791 56.8672 292.578 57.3945 292.434C57.9219 292.285 58.5449 292.211 59.2637 292.211C59.9785 292.211 60.5977 292.285 61.1211 292.434C61.6484 292.578 62.0547 292.791 62.3398 293.072C62.625 293.35 62.7676 293.684 62.7676 294.074C62.7676 294.461 62.625 294.793 62.3398 295.07C62.0547 295.348 61.6484 295.559 61.1211 295.703C60.5977 295.852 59.9785 295.926 59.2637 295.926C58.5449 295.926 57.9219 295.852 57.3945 295.703C56.8672 295.559 56.4629 295.348 56.1816 295.07C55.9043 294.793 55.7676 294.461 55.7715 294.074ZM56.6855 294.074C56.6816 294.309 56.7812 294.512 56.9844 294.684C57.1914 294.852 57.4863 294.98 57.8691 295.07C58.2559 295.164 58.7109 295.211 59.2344 295.211C59.7656 295.211 60.2266 295.166 60.6172 295.076C61.0078 294.986 61.3105 294.855 61.5254 294.684C61.7402 294.512 61.8496 294.309 61.8535 294.074C61.8496 293.836 61.7422 293.631 61.5312 293.459C61.3203 293.283 61.0195 293.148 60.6289 293.055C60.2422 292.961 59.7871 292.914 59.2637 292.914C58.7324 292.914 58.2715 292.961 57.8809 293.055C57.4941 293.148 57.1973 293.283 56.9902 293.459C56.7832 293.631 56.6816 293.836 56.6855 294.074ZM59.5801 285.742H60.4473V288.344H61.8301V285.543H62.709V291.977H61.8301V289.105H60.4473V291.648H59.5801V285.742ZM67.6426 286.293C68.1816 286.293 68.6621 286.396 69.084 286.604C69.5098 286.811 69.8418 287.1 70.0801 287.471C70.3223 287.842 70.4434 288.266 70.4434 288.742C70.4434 289.219 70.3223 289.643 70.0801 290.014C69.8418 290.385 69.5098 290.674 69.084 290.881C68.6621 291.088 68.1816 291.191 67.6426 291.191C67.0996 291.191 66.6133 291.088 66.1836 290.881C65.7578 290.674 65.4258 290.385 65.1875 290.014C64.9492 289.643 64.8301 289.219 64.8301 288.742C64.8301 288.266 64.9492 287.842 65.1875 287.471C65.4258 287.1 65.7578 286.811 66.1836 286.604C66.6133 286.396 67.0996 286.293 67.6426 286.293ZM64.7773 292.891C65.9609 292.891 67.084 292.867 68.1465 292.82C69.2129 292.773 70.2207 292.68 71.1699 292.539L71.2402 293.219C70.1895 293.414 69.1211 293.539 68.0352 293.594C66.9492 293.648 65.7441 293.676 64.4199 293.676L64.291 292.891H64.7773ZM65.7324 288.742C65.7324 289.062 65.8125 289.348 65.9727 289.598C66.1367 289.844 66.3633 290.037 66.6523 290.178C66.9453 290.314 67.2754 290.383 67.6426 290.383C68.0059 290.383 68.332 290.314 68.6211 290.178C68.9102 290.037 69.1348 289.844 69.2949 289.598C69.459 289.348 69.541 289.062 69.541 288.742C69.541 288.426 69.459 288.143 69.2949 287.893C69.1348 287.643 68.9102 287.449 68.6211 287.312C68.332 287.172 68.0059 287.102 67.6426 287.102C67.2754 287.102 66.9453 287.172 66.6523 287.312C66.3633 287.449 66.1367 287.643 65.9727 287.893C65.8125 288.143 65.7324 288.426 65.7324 288.742ZM71.8613 285.531H72.7754V295.973H71.8613V285.531ZM82.3262 292.117C83.0684 292.117 83.7129 292.193 84.2598 292.346C84.8105 292.494 85.2344 292.713 85.5312 293.002C85.832 293.287 85.9824 293.629 85.9824 294.027C85.9824 294.422 85.832 294.762 85.5312 295.047C85.2344 295.332 84.8105 295.549 84.2598 295.697C83.7129 295.85 83.0684 295.926 82.3262 295.926C81.584 295.926 80.9375 295.85 80.3867 295.697C79.8398 295.549 79.418 295.332 79.1211 295.047C78.8281 294.762 78.6816 294.422 78.6816 294.027C78.6816 293.629 78.8281 293.287 79.1211 293.002C79.418 292.713 79.8398 292.494 80.3867 292.346C80.9375 292.193 81.584 292.117 82.3262 292.117ZM77.627 290.395H81.5527V288.379H82.4551V290.395H87.1074V291.145H77.627V290.395ZM78.752 286.07H85.9004V286.949C85.8965 287.523 85.8789 288.01 85.8477 288.408C85.8164 288.803 85.7363 289.238 85.6074 289.715L84.7051 289.609C84.8301 289.133 84.9082 288.705 84.9395 288.326C84.9707 287.943 84.9863 287.484 84.9863 286.949V286.82H78.752V286.07ZM79.5957 294.027C79.5957 294.266 79.707 294.475 79.9297 294.654C80.1523 294.83 80.4688 294.965 80.8789 295.059C81.293 295.152 81.7754 295.199 82.3262 295.199C82.877 295.199 83.3574 295.152 83.7676 295.059C84.1816 294.965 84.5 294.83 84.7227 294.654C84.9492 294.475 85.0645 294.266 85.0684 294.027C85.0645 293.781 84.9492 293.568 84.7227 293.389C84.5 293.209 84.1816 293.07 83.7676 292.973C83.3574 292.871 82.877 292.82 82.3262 292.82C81.7754 292.82 81.293 292.871 80.8789 292.973C80.4688 293.07 80.1523 293.209 79.9297 293.389C79.707 293.568 79.5957 293.781 79.5957 294.027ZM97.5137 292.469H93.166V295.949H92.2637V292.469H87.9746V291.719H97.5137V292.469ZM89.1934 285.965H90.1074V287.406H95.3574V285.965H96.2832V290.453H89.1934V285.965ZM95.3574 289.703V288.156H90.1074V289.703H95.3574ZM100.479 293.008H105.682V291.789H106.607V295.809H99.5645V291.789H100.479V293.008ZM98.3574 290.289H107.85V291.051H98.3574V290.289ZM98.8965 288.812C99.5254 288.727 100.127 288.555 100.701 288.297C101.275 288.039 101.74 287.723 102.096 287.348C102.455 286.969 102.635 286.566 102.635 286.141V285.648H103.584V286.141C103.584 286.551 103.762 286.947 104.117 287.33C104.477 287.713 104.943 288.037 105.518 288.303C106.096 288.564 106.693 288.734 107.311 288.812L106.971 289.551C106.428 289.469 105.9 289.326 105.389 289.123C104.881 288.92 104.428 288.664 104.029 288.355C103.631 288.047 103.324 287.703 103.109 287.324C102.895 287.703 102.586 288.047 102.184 288.355C101.785 288.664 101.332 288.92 100.824 289.123C100.316 289.326 99.791 289.469 99.248 289.551L98.8965 288.812ZM105.682 295.07V293.734H100.479V295.07H105.682ZM114.506 286.891C114.502 287.434 114.484 287.936 114.453 288.396C114.422 288.857 114.35 289.383 114.236 289.973L113.311 289.902C113.42 289.355 113.492 288.869 113.527 288.443C113.566 288.018 113.59 287.574 113.598 287.113H109.314V286.34H114.506V286.891ZM108.67 290.945C109.494 290.945 110.24 290.936 110.908 290.916V288.648H111.822V290.887C113.166 290.832 114.311 290.738 115.256 290.605L115.314 291.285C114.342 291.453 113.314 291.564 112.232 291.619C111.15 291.674 109.994 291.703 108.764 291.707L108.67 290.945ZM110.275 292.668H111.201V294.953H117.236V295.727H110.275V292.668ZM115.959 285.531H116.896V288.93H118.42V289.715H116.896V293.371H115.959V285.531Z" fill="white"/>
<defs>
<linearGradient id="paint0_linear_1489_48633" x1="403" y1="127" x2="403" y2="335" gradientUnits="userSpaceOnUse">
<stop offset="0.244792" stop-color="#FF5C00"/>
<stop offset="1" stop-color="#D9D9D9" stop-opacity="0"/>
<stop offset="1" stop-color="#FF5C00" stop-opacity="0"/>
</linearGradient>
</defs>
</svg>
