<svg width="339" height="281" viewBox="0 0 339 281" fill="none" xmlns="http://www.w3.org/2000/svg">
<path d="M113.58 277H118.806V276.012H116.882V267.471H115.972C115.465 267.783 114.854 268.004 113.996 268.147V268.914H115.699V276.012H113.58V277ZM129.214 266.262V278.014H130.254V266.262H129.214ZM127.316 270.981V271.865H129.565V270.981H127.316ZM124.274 267.77V267.978C124.274 270.695 123.234 273.074 120.283 274.725L120.92 275.492C124.274 273.607 125.314 270.799 125.314 267.77H124.274ZM120.738 267.77V268.667H124.638V267.77H120.738ZM126.601 266.574V277.442H127.628V266.574H126.601ZM135.401 271.124V273.217H136.48V271.124H135.401ZM140.796 266.262V273.178H141.875V266.262H140.796ZM132.346 271.488C134.543 271.488 137.351 271.462 139.925 271.085L139.86 270.383C137.351 270.669 134.478 270.682 132.216 270.682L132.346 271.488ZM133.997 273.607V274.387H140.809V275.336H134.023V277.377H135.076V276.051H141.875V273.607H133.997ZM134.023 277.104V277.884H142.265V277.104H134.023ZM138.456 271.852V272.554H141.134V271.852H138.456ZM136.012 266.483C134.257 266.483 133.113 267.159 133.113 268.251C133.113 269.343 134.257 270.019 136.012 270.019C137.754 270.019 138.898 269.343 138.898 268.251C138.898 267.159 137.754 266.483 136.012 266.483ZM136.012 267.237C137.143 267.237 137.884 267.627 137.884 268.251C137.884 268.875 137.143 269.265 136.012 269.265C134.855 269.265 134.114 268.875 134.114 268.251C134.114 267.627 134.855 267.237 136.012 267.237Z" fill="white"/>
<path d="M0.602031 267.172V268.537H7.68703V267.172H0.602031ZM4.15103 268.914C2.40903 268.914 1.18703 269.811 1.18703 271.137C1.18703 272.463 2.40903 273.347 4.15103 273.347C5.88003 273.347 7.10203 272.463 7.10203 271.137C7.10203 269.811 5.88003 268.914 4.15103 268.914ZM4.15103 270.214C4.91803 270.214 5.45103 270.526 5.45103 271.137C5.45103 271.735 4.91803 272.047 4.15103 272.047C3.37103 272.047 2.85103 271.735 2.85103 271.137C2.85103 270.526 3.37103 270.214 4.15103 270.214ZM8.35003 266.119V273.672H10.079V266.119H8.35003ZM9.59803 269.226V270.63H11.678V269.226H9.59803ZM2.04503 274.166V275.544H8.35003V278.157H10.079V274.166H2.04503ZM3.28003 266.054V267.952H5.00903V266.054H3.28003ZM13.835 273.334V278.027H22.077V273.334H20.361V274.348H15.538V273.334H13.835ZM15.538 275.635H20.361V276.675H15.538V275.635ZM12.561 271.371V272.736H23.442V271.371H12.561ZM17.124 266.249V266.613C17.124 267.835 15.811 269.174 13.094 269.499L13.705 270.838C16.812 270.435 18.606 268.706 18.606 266.613V266.249H17.124ZM17.41 266.249V266.613C17.41 268.693 19.191 270.435 22.298 270.838L22.909 269.499C20.205 269.174 18.892 267.822 18.892 266.613V266.249H17.41ZM27.458 267.042V268.797C27.458 271.137 26.47 273.451 24.377 274.361L25.404 275.791C27.796 274.686 28.862 271.891 28.862 268.797V267.042H27.458ZM27.796 267.042V268.797C27.796 271.761 28.862 274.439 31.189 275.505L32.203 274.114C30.149 273.23 29.2 271.02 29.2 268.797V267.042H27.796ZM32.775 266.106V278.183H34.517V266.106H32.775ZM39.157 267.354V268.108C39.157 269.616 38.312 271.176 36.297 271.826L37.194 273.165C39.495 272.424 40.574 270.383 40.574 268.108V267.354H39.157ZM39.508 267.354V268.108C39.508 270.266 40.548 272.229 42.797 272.957L43.681 271.618C41.731 270.994 40.912 269.525 40.912 268.108V267.354H39.508ZM36.765 266.821V268.199H43.265V266.821H36.765ZM44.227 266.119V273.373H45.956V266.119H44.227ZM45.475 269.031V270.448H47.555V269.031H45.475ZM37.922 273.893V275.284H44.227V278.157H45.956V273.893H37.922Z" fill="white"/>
<path d="M2.58152 42.172V43.537H9.66652V42.172H2.58152ZM6.13052 43.914C4.38852 43.914 3.16652 44.811 3.16652 46.137C3.16652 47.463 4.38852 48.347 6.13052 48.347C7.85952 48.347 9.08152 47.463 9.08152 46.137C9.08152 44.811 7.85952 43.914 6.13052 43.914ZM6.13052 45.214C6.89752 45.214 7.43052 45.526 7.43052 46.137C7.43052 46.735 6.89752 47.047 6.13052 47.047C5.35052 47.047 4.83052 46.735 4.83052 46.137C4.83052 45.526 5.35052 45.214 6.13052 45.214ZM10.3295 41.119V48.672H12.0585V41.119H10.3295ZM11.5775 44.226V45.63H13.6575V44.226H11.5775ZM4.02452 49.166V50.544H10.3295V53.157H12.0585V49.166H4.02452ZM5.25952 41.054V42.952H6.98852V41.054H5.25952ZM15.8145 48.334V53.027H24.0565V48.334H22.3405V49.348H17.5175V48.334H15.8145ZM17.5175 50.635H22.3405V51.675H17.5175V50.635ZM14.5405 46.371V47.736H25.4215V46.371H14.5405ZM19.1035 41.249V41.613C19.1035 42.835 17.7905 44.174 15.0735 44.499L15.6845 45.838C18.7915 45.435 20.5855 43.706 20.5855 41.613V41.249H19.1035ZM19.3895 41.249V41.613C19.3895 43.693 21.1705 45.435 24.2775 45.838L24.8885 44.499C22.1845 44.174 20.8715 42.822 20.8715 41.613V41.249H19.3895ZM35.4825 42.731V44.148H37.5755V42.731H35.4825ZM35.4825 45.266V46.683H37.5755V45.266H35.4825ZM34.2475 41.119V48.373H35.9765V41.119H34.2475ZM26.9285 46.475V47.879H27.9425C30.3735 47.879 31.8945 47.814 33.5845 47.489L33.4285 46.111C31.7645 46.423 30.3085 46.475 27.9425 46.475H26.9285ZM26.9155 41.834V43.199H30.7115V44.161H26.9285V47.32H28.6445V45.448H32.4145V41.834H26.9155ZM32.0245 48.581C29.5155 48.581 27.9425 49.439 27.9425 50.882C27.9425 52.325 29.5155 53.157 32.0245 53.157C34.5335 53.157 36.0935 52.325 36.0935 50.882C36.0935 49.439 34.5335 48.581 32.0245 48.581ZM32.0245 49.907C33.5845 49.907 34.4035 50.219 34.4035 50.882C34.4035 51.545 33.5845 51.857 32.0245 51.857C30.4645 51.857 29.6455 51.545 29.6455 50.882C29.6455 50.219 30.4645 49.907 32.0245 49.907Z" fill="white"/>
<path d="M212.855 277.182C214.558 277.182 215.923 276.155 215.923 274.465C215.923 273.152 215.013 272.307 213.895 272.034V271.982C214.909 271.618 215.585 270.851 215.585 269.694C215.585 268.173 214.415 267.302 212.816 267.302C211.724 267.302 210.879 267.783 210.164 268.433L210.801 269.2C211.334 268.654 212.01 268.264 212.777 268.264C213.765 268.264 214.376 268.862 214.376 269.772C214.376 270.812 213.713 271.592 211.75 271.592V272.515C213.947 272.515 214.714 273.269 214.714 274.413C214.714 275.505 213.908 276.194 212.777 276.194C211.685 276.194 210.97 275.674 210.411 275.089L209.813 275.869C210.437 276.558 211.36 277.182 212.855 277.182ZM226.214 266.262V278.014H227.254V266.262H226.214ZM224.316 270.981V271.865H226.565V270.981H224.316ZM221.274 267.77V267.978C221.274 270.695 220.234 273.074 217.283 274.725L217.92 275.492C221.274 273.607 222.314 270.799 222.314 267.77H221.274ZM217.738 267.77V268.667H221.638V267.77H217.738ZM223.601 266.574V277.442H224.628V266.574H223.601ZM232.401 271.124V273.217H233.48V271.124H232.401ZM237.796 266.262V273.178H238.875V266.262H237.796ZM229.346 271.488C231.543 271.488 234.351 271.462 236.925 271.085L236.86 270.383C234.351 270.669 231.478 270.682 229.216 270.682L229.346 271.488ZM230.997 273.607V274.387H237.809V275.336H231.023V277.377H232.076V276.051H238.875V273.607H230.997ZM231.023 277.104V277.884H239.265V277.104H231.023ZM235.456 271.852V272.554H238.134V271.852H235.456ZM233.012 266.483C231.257 266.483 230.113 267.159 230.113 268.251C230.113 269.343 231.257 270.019 233.012 270.019C234.754 270.019 235.898 269.343 235.898 268.251C235.898 267.159 234.754 266.483 233.012 266.483ZM233.012 267.237C234.143 267.237 234.884 267.627 234.884 268.251C234.884 268.875 234.143 269.265 233.012 269.265C231.855 269.265 231.114 268.875 231.114 268.251C231.114 267.627 231.855 267.237 233.012 267.237Z" fill="white"/>
<path d="M311.349 277.182C312.818 277.182 314.079 275.934 314.079 274.088C314.079 272.086 313.039 271.098 311.427 271.098C310.66 271.098 309.776 271.566 309.191 272.333L309.23 273.282C309.867 272.333 310.634 271.969 311.245 271.969C312.389 271.969 312.961 272.788 312.961 274.088C312.961 275.375 312.259 276.246 311.349 276.246C310.01 276.246 309.269 274.907 309.269 272.463C309.269 269.343 310.387 268.29 311.726 268.29C312.298 268.29 312.883 268.563 313.247 269.005L313.91 268.277C313.39 267.718 312.662 267.302 311.674 267.302C309.828 267.302 308.151 268.732 308.151 272.463C308.151 275.609 309.516 277.182 311.349 277.182ZM324.214 266.262V278.014H325.254V266.262H324.214ZM322.316 270.981V271.865H324.565V270.981H322.316ZM319.274 267.77V267.978C319.274 270.695 318.234 273.074 315.283 274.725L315.92 275.492C319.274 273.607 320.314 270.799 320.314 267.77H319.274ZM315.738 267.77V268.667H319.638V267.77H315.738ZM321.601 266.574V277.442H322.628V266.574H321.601ZM330.401 271.124V273.217H331.48V271.124H330.401ZM335.796 266.262V273.178H336.875V266.262H335.796ZM327.346 271.488C329.543 271.488 332.351 271.462 334.925 271.085L334.86 270.383C332.351 270.669 329.478 270.682 327.216 270.682L327.346 271.488ZM328.997 273.607V274.387H335.809V275.336H329.023V277.377H330.076V276.051H336.875V273.607H328.997ZM329.023 277.104V277.884H337.265V277.104H329.023ZM333.456 271.852V272.554H336.134V271.852H333.456ZM331.012 266.483C329.257 266.483 328.113 267.159 328.113 268.251C328.113 269.343 329.257 270.019 331.012 270.019C332.754 270.019 333.898 269.343 333.898 268.251C333.898 267.159 332.754 266.483 331.012 266.483ZM331.012 267.237C332.143 267.237 332.884 267.627 332.884 268.251C332.884 268.875 332.143 269.265 331.012 269.265C329.855 269.265 329.114 268.875 329.114 268.251C329.114 267.627 329.855 267.237 331.012 267.237Z" fill="white"/>
<path opacity="0.3" d="M39.7212 191.138L18.5 211L3 247H338V114.797V45L307.077 87.0652L274.5 118.5L218.573 130.859H167.913H113.158L84.7021 150.319H55.3842L39.7212 191.138Z" fill="url(#paint0_linear_1001_222696)"/>
<path d="M20 207L35.1571 189.526L53.3543 149.975H82.9518L111.679 132.822H166.957H218.099L275.146 118.663L313.518 89L335.5 59" stroke="#FF5C00" stroke-width="3"/>
<path d="M2.5 247.5L28.52 186L67.0941 212.79L112.762 230.395H161.534L202.104 212.79L227.376 205.901L297.431 212.79L338 230.395" stroke="#DBDBDB"/>
<circle cx="285.5" cy="52.5" r="52.5" fill="#FF6B00"/>
<path d="M249.115 74H251.455C253.085 74 254.225 73.29 254.225 71.86C254.225 70.86 253.615 70.27 252.735 70.1V70.06C253.425 69.83 253.805 69.19 253.805 68.47C253.805 67.18 252.775 66.67 251.285 66.67H249.115V74ZM250.045 69.79V67.4H251.175C252.315 67.4 252.895 67.72 252.895 68.58C252.895 69.33 252.385 69.79 251.125 69.79H250.045ZM250.045 73.27V70.5H251.325C252.605 70.5 253.325 70.92 253.325 71.83C253.325 72.82 252.575 73.27 251.325 73.27H250.045ZM255.208 66.69V67.37H260.548V66.69H255.208ZM257.878 67.83C256.578 67.83 255.708 68.47 255.708 69.47C255.708 70.46 256.578 71.09 257.878 71.09C259.158 71.09 260.038 70.46 260.038 69.47C260.038 68.47 259.158 67.83 257.878 67.83ZM257.878 68.48C258.688 68.48 259.248 68.86 259.248 69.47C259.248 70.06 258.688 70.45 257.878 70.45C257.048 70.45 256.498 70.06 256.498 69.47C256.498 68.86 257.048 68.48 257.878 68.48ZM261.368 65.74V71.39H262.198V65.74H261.368ZM261.968 68.23V68.92H263.538V68.23H261.968ZM256.328 71.88V72.56H261.368V74.78H262.198V71.88H256.328ZM257.458 65.69V67.07H258.288V65.69H257.458ZM266.277 66.3V67.51C266.277 68.53 265.567 69.7 264.377 70.22L264.827 70.87C266.157 70.28 266.937 68.86 266.937 67.51V66.3H266.277ZM266.407 66.3V67.51C266.407 68.84 267.157 70.09 268.457 70.61L268.907 69.98C267.747 69.53 267.067 68.51 267.067 67.51V66.3H266.407ZM271.207 65.75V71.32H271.997V65.75H271.207ZM269.767 68.16V68.84H271.477V68.16H269.767ZM269.267 65.92V71.03H270.057V65.92H269.267ZM269.027 71.52C267.157 71.52 266.017 72.12 266.017 73.15C266.017 74.17 267.157 74.76 269.027 74.76C270.887 74.76 272.047 74.17 272.047 73.15C272.047 72.12 270.887 71.52 269.027 71.52ZM269.027 72.17C270.387 72.17 271.217 72.53 271.217 73.15C271.217 73.76 270.387 74.12 269.027 74.12C267.667 74.12 266.827 73.76 266.827 73.15C266.827 72.53 267.667 72.17 269.027 72.17ZM276.516 66.39C275.106 66.39 274.086 67.26 274.086 68.52C274.086 69.79 275.106 70.66 276.516 70.66C277.926 70.66 278.936 69.79 278.936 68.52C278.936 67.26 277.926 66.39 276.516 66.39ZM276.516 67.11C277.446 67.11 278.126 67.68 278.126 68.52C278.126 69.36 277.446 69.94 276.516 69.94C275.576 69.94 274.896 69.36 274.896 68.52C274.896 67.68 275.576 67.11 276.516 67.11ZM280.116 65.73V74.79H280.946V65.73H280.116ZM273.746 72.81C275.356 72.81 277.566 72.8 279.596 72.41L279.526 71.8C277.556 72.11 275.276 72.12 273.626 72.12L273.746 72.81ZM289.638 71.44C287.708 71.44 286.488 72.07 286.488 73.11C286.488 74.14 287.708 74.76 289.638 74.76C291.558 74.76 292.788 74.14 292.788 73.11C292.788 72.07 291.558 71.44 289.638 71.44ZM289.638 72.09C291.058 72.09 291.958 72.48 291.958 73.11C291.958 73.73 291.058 74.12 289.638 74.12C288.218 74.12 287.308 73.73 287.308 73.11C287.308 72.48 288.218 72.09 289.638 72.09ZM286.558 66.19V66.87H292.378V66.19H286.558ZM285.588 69.95V70.62H293.748V69.95H285.588ZM288.938 68.21V70.14H289.758V68.21H288.938ZM291.898 66.19V66.96C291.898 67.67 291.898 68.33 291.648 69.26L292.468 69.36C292.708 68.42 292.708 67.69 292.708 66.96V66.19H291.898ZM294.777 71.09V71.77H302.977V71.09H294.777ZM298.437 71.41V74.78H299.257V71.41H298.437ZM295.807 66.1V70.01H301.927V66.1H301.107V67.34H296.637V66.1H295.807ZM296.637 68.01H301.107V69.34H296.637V68.01ZM305.016 71.16V74.66H311.086V71.16H310.256V72.21H305.836V71.16H305.016ZM305.836 72.85H310.256V73.99H305.836V72.85ZM303.976 69.86V70.53H312.146V69.86H303.976ZM307.646 65.84V66.24C307.646 67.38 306.076 68.35 304.446 68.57L304.746 69.22C306.606 68.94 308.356 67.81 308.356 66.24V65.84H307.646ZM307.776 65.84V66.24C307.776 67.79 309.536 68.94 311.376 69.22L311.686 68.57C310.076 68.35 308.486 67.36 308.486 66.24V65.84H307.776ZM313.666 66.44V67.12H317.666V66.44H313.666ZM315.026 68.46V70.72H315.846V68.46H315.026ZM317.336 66.44V66.92C317.336 67.5 317.336 68.32 317.106 69.51L317.916 69.6C318.156 68.41 318.156 67.51 318.156 66.92V66.44H317.336ZM319.386 65.74V72.55H320.216V65.74H319.386ZM319.836 68.68V69.37H321.506V68.68H319.836ZM314.506 73.9V74.58H320.506V73.9H314.506ZM314.506 71.92V74.11H315.326V71.92H314.506ZM313.206 71.11C314.796 71.11 316.956 71.07 318.836 70.74L318.776 70.14C316.946 70.39 314.726 70.43 313.116 70.43L313.206 71.11Z" fill="white"/>
<path d="M259.171 40H260.952V30.38H258.651L255.076 36.204V37.517H262.096V36.048H256.935L258.417 33.656C258.69 33.136 258.95 32.603 259.197 32.083H259.249C259.223 32.655 259.171 33.526 259.171 34.085V40ZM265.63 32.239V32.863C265.63 34.67 264.733 36.711 262.77 37.608L263.706 38.934C265.89 37.959 266.969 35.398 266.969 32.863V32.239H265.63ZM266.007 32.239V32.863C266.007 35.281 267.034 37.751 269.153 38.726L270.076 37.413C268.191 36.503 267.346 34.579 267.346 32.863V32.239H266.007ZM263.186 31.082V32.447H269.738V31.082H263.186ZM265.617 29.392V31.784H267.346V29.392H265.617ZM270.687 29.119V41.157H272.429V29.119H270.687ZM272.039 33.786V35.216H274.171V33.786H272.039ZM285.643 29.132V37.985H287.372V29.132H285.643ZM286.878 32.512V33.929H288.971V32.512H286.878ZM279.611 39.571V40.949H287.801V39.571H279.611ZM279.611 37.088V39.87H281.34V37.088H279.611ZM278.246 29.977V36.087H284.031V29.977H282.315V31.706H279.962V29.977H278.246ZM279.962 33.019H282.315V34.735H279.962V33.019ZM289.854 35.06V36.451H300.735V35.06H289.854ZM294.417 33.526V35.359H296.146V33.526H294.417ZM291.063 37.27V38.635H297.693V41.157H299.422V37.27H291.063ZM291.245 29.418V34.072H299.357V29.418H297.641V30.484H292.948V29.418H291.245ZM292.948 31.771H297.641V32.72H292.948V31.771ZM305.278 30.367V31.732H315.08V30.367H305.278ZM304.771 36.906V38.297H315.665V36.906H304.771ZM309.334 38.128V41.17H311.063V38.128H309.334ZM310.205 32.2C307.605 32.2 306.071 32.928 306.071 34.267C306.071 35.593 307.605 36.334 310.205 36.334C312.792 36.334 314.326 35.593 314.326 34.267C314.326 32.928 312.792 32.2 310.205 32.2ZM310.205 33.487C311.778 33.487 312.545 33.721 312.545 34.267C312.545 34.813 311.778 35.047 310.205 35.047C308.632 35.047 307.865 34.813 307.865 34.267C307.865 33.721 308.632 33.487 310.205 33.487ZM309.334 29.106V31.277H311.063V29.106H309.334ZM245.369 46.458V47.212C245.369 48.746 244.524 50.319 242.522 50.982L243.38 52.347C245.707 51.58 246.786 49.513 246.786 47.212V46.458H245.369ZM245.72 46.458V47.212C245.72 49.357 246.76 51.242 249.048 51.931L249.867 50.579C247.93 49.994 247.124 48.616 247.124 47.212V46.458H245.72ZM242.977 45.925V47.303H249.477V45.925H242.977ZM250.439 45.119V52.256H252.168V45.119H250.439ZM251.687 47.888V49.305H253.767V47.888H251.687ZM248.242 52.477C245.733 52.477 244.16 53.348 244.16 54.817C244.16 56.286 245.733 57.157 248.242 57.157C250.738 57.157 252.311 56.286 252.311 54.817C252.311 53.348 250.738 52.477 248.242 52.477ZM248.242 53.829C249.776 53.829 250.595 54.141 250.595 54.817C250.595 55.493 249.776 55.831 248.242 55.831C246.708 55.831 245.876 55.493 245.876 54.817C245.876 54.141 246.708 53.829 248.242 53.829ZM262.944 45.119V57.157H264.686V45.119H262.944ZM259.395 46.367V46.679C259.395 49.903 258.147 52.087 254.689 53.751L255.586 55.129C259.863 53.062 261.111 50.046 261.111 46.367H259.395ZM255.326 46.367V47.732H260.214V46.367H255.326ZM274.903 45.119V57.157H276.645V45.119H274.903ZM271.354 46.367V46.679C271.354 49.903 270.106 52.087 266.648 53.751L267.545 55.129C271.822 53.062 273.07 50.046 273.07 46.367H271.354ZM267.285 46.367V47.732H272.173V46.367H267.285ZM284.483 48.031V49.422H287.369V48.031H284.483ZM280.44 52.802V54.154H286.914V57.17H288.643V52.802H280.44ZM286.914 45.119V52.243H288.643V45.119H286.914ZM281.896 45.743C280.089 45.743 278.711 46.991 278.711 48.72C278.711 50.462 280.089 51.71 281.896 51.71C283.69 51.71 285.068 50.462 285.068 48.72C285.068 46.991 283.69 45.743 281.896 45.743ZM281.896 47.212C282.754 47.212 283.417 47.771 283.417 48.72C283.417 49.682 282.754 50.241 281.896 50.241C281.025 50.241 280.362 49.682 280.362 48.72C280.362 47.771 281.025 47.212 281.896 47.212ZM301.298 45.119V52.191H303.027V45.119H301.298ZM302.416 47.953V49.37H304.535V47.953H302.416ZM294.928 52.633V53.777H301.324V54.297H294.941V56.325H296.657V55.363H303.027V52.633H294.928ZM294.941 55.935V57.079H303.443V55.935H294.941ZM296.202 49.929V51.645H297.931V49.929H296.202ZM293.511 52.087C295.591 52.087 298.36 52.074 300.895 51.632L300.765 50.579C298.334 50.904 295.461 50.917 293.329 50.917L293.511 52.087ZM293.641 45.873V47.017H300.466V45.873H293.641ZM297.06 47.238C295.266 47.238 294.122 47.823 294.122 48.811C294.122 49.812 295.266 50.397 297.06 50.397C298.841 50.397 299.985 49.812 299.985 48.811C299.985 47.823 298.841 47.238 297.06 47.238ZM297.06 48.304C297.879 48.304 298.347 48.46 298.347 48.811C298.347 49.162 297.879 49.331 297.06 49.331C296.241 49.331 295.76 49.162 295.76 48.811C295.76 48.46 296.241 48.304 297.06 48.304ZM296.202 45.015V46.51H297.931V45.015H296.202ZM308.226 45.743V46.822C308.226 48.473 307.381 50.098 305.327 50.761L306.224 52.152C308.59 51.359 309.669 49.24 309.669 46.822V45.743H308.226ZM308.59 45.743V46.744C308.59 49.084 309.552 51.021 311.775 51.788L312.672 50.436C310.761 49.825 309.981 48.343 309.981 46.744V45.743H308.59ZM313.777 45.119V52.165H315.506V45.119H313.777ZM311.424 52.477C308.876 52.477 307.303 53.348 307.303 54.817C307.303 56.299 308.876 57.157 311.424 57.157C313.972 57.157 315.545 56.299 315.545 54.817C315.545 53.348 313.972 52.477 311.424 52.477ZM311.424 53.816C312.997 53.816 313.829 54.141 313.829 54.817C313.829 55.493 312.997 55.831 311.424 55.831C309.864 55.831 309.032 55.493 309.032 54.817C309.032 54.141 309.864 53.816 311.424 53.816ZM311.58 47.303V48.707H314.024V47.303H311.58ZM320.172 52.243V54.193H321.901V52.243H320.172ZM325.229 45.119V57.157H326.971V45.119H325.229ZM326.36 50.007V51.437H328.479V50.007H326.36ZM317.468 55.155C319.496 55.155 322.226 55.155 324.761 54.661L324.631 53.413C322.2 53.751 319.34 53.764 317.26 53.764L317.468 55.155ZM317.481 46.445V47.797H324.566V46.445H317.481ZM321.043 48.278C319.314 48.278 318.105 49.188 318.105 50.527C318.105 51.879 319.314 52.789 321.043 52.789C322.759 52.789 323.981 51.879 323.981 50.527C323.981 49.188 322.759 48.278 321.043 48.278ZM321.043 49.578C321.823 49.578 322.343 49.916 322.343 50.527C322.343 51.151 321.823 51.489 321.043 51.489C320.25 51.489 319.743 51.151 319.743 50.527C319.743 49.916 320.25 49.578 321.043 49.578ZM320.172 45.184V47.459H321.901V45.184H320.172Z" fill="white"/>
<circle cx="55.5" cy="184.5" r="42.5" fill="#585469"/>
<path d="M18.3894 198H19.3294L20.6194 193.9C20.8894 193.08 21.1194 192.28 21.3594 191.43H21.3994C21.6394 192.28 21.8694 193.08 22.1294 193.9L23.4194 198H24.3894L21.9094 190.67H20.8694L18.3894 198ZM19.6894 195.76H23.0694V195.03H19.6894V195.76ZM24.9634 190.69V191.37H30.3034V190.69H24.9634ZM27.6334 191.83C26.3334 191.83 25.4634 192.47 25.4634 193.47C25.4634 194.46 26.3334 195.09 27.6334 195.09C28.9134 195.09 29.7934 194.46 29.7934 193.47C29.7934 192.47 28.9134 191.83 27.6334 191.83ZM27.6334 192.48C28.4434 192.48 29.0034 192.86 29.0034 193.47C29.0034 194.06 28.4434 194.45 27.6334 194.45C26.8034 194.45 26.2534 194.06 26.2534 193.47C26.2534 192.86 26.8034 192.48 27.6334 192.48ZM31.1234 189.74V195.39H31.9534V189.74H31.1234ZM31.7234 192.23V192.92H33.2934V192.23H31.7234ZM26.0834 195.88V196.56H31.1234V198.78H31.9534V195.88H26.0834ZM27.2134 189.69V191.07H28.0434V189.69H27.2134ZM36.0326 190.3V191.51C36.0326 192.53 35.3226 193.7 34.1326 194.22L34.5826 194.87C35.9126 194.28 36.6926 192.86 36.6926 191.51V190.3H36.0326ZM36.1626 190.3V191.51C36.1626 192.84 36.9126 194.09 38.2126 194.61L38.6626 193.98C37.5026 193.53 36.8226 192.51 36.8226 191.51V190.3H36.1626ZM40.9626 189.75V195.32H41.7526V189.75H40.9626ZM39.5226 192.16V192.84H41.2326V192.16H39.5226ZM39.0226 189.92V195.03H39.8126V189.92H39.0226ZM38.7826 195.52C36.9126 195.52 35.7726 196.12 35.7726 197.15C35.7726 198.17 36.9126 198.76 38.7826 198.76C40.6426 198.76 41.8026 198.17 41.8026 197.15C41.8026 196.12 40.6426 195.52 38.7826 195.52ZM38.7826 196.17C40.1426 196.17 40.9726 196.53 40.9726 197.15C40.9726 197.76 40.1426 198.12 38.7826 198.12C37.4226 198.12 36.5826 197.76 36.5826 197.15C36.5826 196.53 37.4226 196.17 38.7826 196.17ZM46.2718 190.39C44.8618 190.39 43.8418 191.26 43.8418 192.52C43.8418 193.79 44.8618 194.66 46.2718 194.66C47.6818 194.66 48.6918 193.79 48.6918 192.52C48.6918 191.26 47.6818 190.39 46.2718 190.39ZM46.2718 191.11C47.2018 191.11 47.8818 191.68 47.8818 192.52C47.8818 193.36 47.2018 193.94 46.2718 193.94C45.3318 193.94 44.6518 193.36 44.6518 192.52C44.6518 191.68 45.3318 191.11 46.2718 191.11ZM49.8718 189.73V198.79H50.7018V189.73H49.8718ZM43.5018 196.81C45.1118 196.81 47.3218 196.8 49.3518 196.41L49.2818 195.8C47.3118 196.11 45.0318 196.12 43.3818 196.12L43.5018 196.81ZM59.3938 195.44C57.4638 195.44 56.2438 196.07 56.2438 197.11C56.2438 198.14 57.4638 198.76 59.3938 198.76C61.3138 198.76 62.5438 198.14 62.5438 197.11C62.5438 196.07 61.3138 195.44 59.3938 195.44ZM59.3938 196.09C60.8138 196.09 61.7138 196.48 61.7138 197.11C61.7138 197.73 60.8138 198.12 59.3938 198.12C57.9738 198.12 57.0638 197.73 57.0638 197.11C57.0638 196.48 57.9738 196.09 59.3938 196.09ZM56.3137 190.19V190.87H62.1338V190.19H56.3137ZM55.3438 193.95V194.62H63.5038V193.95H55.3438ZM58.6938 192.21V194.14H59.5138V192.21H58.6938ZM61.6538 190.19V190.96C61.6538 191.67 61.6538 192.33 61.4038 193.26L62.2238 193.36C62.4638 192.42 62.4638 191.69 62.4638 190.96V190.19H61.6538ZM64.533 195.09V195.77H72.733V195.09H64.533ZM68.193 195.41V198.78H69.013V195.41H68.193ZM65.563 190.1V194.01H71.683V190.1H70.863V191.34H66.393V190.1H65.563ZM66.393 192.01H70.863V193.34H66.393V192.01ZM74.7722 195.16V198.66H80.8422V195.16H80.0122V196.21H75.5922V195.16H74.7722ZM75.5922 196.85H80.0122V197.99H75.5922V196.85ZM73.7322 193.86V194.53H81.9022V193.86H73.7322ZM77.4022 189.84V190.24C77.4022 191.38 75.8322 192.35 74.2022 192.57L74.5022 193.22C76.3622 192.94 78.1122 191.81 78.1122 190.24V189.84H77.4022ZM77.5322 189.84V190.24C77.5322 191.79 79.2922 192.94 81.1322 193.22L81.4422 192.57C79.8322 192.35 78.2422 191.36 78.2422 190.24V189.84H77.5322ZM83.4214 190.44V191.12H87.4214V190.44H83.4214ZM84.7814 192.46V194.72H85.6014V192.46H84.7814ZM87.0914 190.44V190.92C87.0914 191.5 87.0914 192.32 86.8614 193.51L87.6714 193.6C87.9114 192.41 87.9114 191.51 87.9114 190.92V190.44H87.0914ZM89.1414 189.74V196.55H89.9714V189.74H89.1414ZM89.5914 192.68V193.37H91.2614V192.68H89.5914ZM84.2614 197.9V198.58H90.2614V197.9H84.2614ZM84.2614 195.92V198.11H85.0814V195.92H84.2614ZM82.9614 195.11C84.5514 195.11 86.7114 195.07 88.5914 194.74L88.5314 194.14C86.7014 194.39 84.4814 194.43 82.8714 194.43L82.9614 195.11Z" fill="white"/>
<path d="M27.3284 183H33.1264V181.453H31.3194V173.38H29.9024C29.2784 173.757 28.6284 174.004 27.6534 174.186V175.369H29.4084V181.453H27.3284V183ZM37.1024 175.239V175.863C37.1024 177.67 36.2054 179.711 34.2424 180.608L35.1784 181.934C37.3624 180.959 38.4414 178.398 38.4414 175.863V175.239H37.1024ZM37.4794 175.239V175.863C37.4794 178.281 38.5064 180.751 40.6254 181.726L41.5484 180.413C39.6634 179.503 38.8184 177.579 38.8184 175.863V175.239H37.4794ZM34.6584 174.082V175.447H41.2104V174.082H34.6584ZM37.0894 172.392V174.784H38.8184V172.392H37.0894ZM42.1594 172.119V184.157H43.9014V172.119H42.1594ZM43.5114 176.786V178.216H45.6434V176.786H43.5114ZM57.1157 172.132V180.985H58.8447V172.132H57.1157ZM58.3507 175.512V176.929H60.4437V175.512H58.3507ZM51.0837 182.571V183.949H59.2737V182.571H51.0837ZM51.0837 180.088V182.87H52.8127V180.088H51.0837ZM49.7187 172.977V179.087H55.5037V172.977H53.7877V174.706H51.4347V172.977H49.7187ZM51.4347 176.019H53.7877V177.735H51.4347V176.019ZM61.3266 178.06V179.451H72.2076V178.06H61.3266ZM65.8896 176.526V178.359H67.6186V176.526H65.8896ZM62.5356 180.27V181.635H69.1656V184.157H70.8946V180.27H62.5356ZM62.7176 172.418V177.072H70.8296V172.418H69.1136V173.484H64.4206V172.418H62.7176ZM64.4206 174.771H69.1136V175.72H64.4206V174.771ZM73.6366 173.107V178.918H79.3696V173.107H73.6366ZM77.6666 174.472V177.553H75.3396V174.472H77.6666ZM81.0336 172.119V180.894H82.7626V172.119H81.0336ZM82.2686 175.59V177.007H84.3616V175.59H82.2686ZM75.0016 182.571V183.949H83.1916V182.571H75.0016ZM75.0016 180.036V183.26H76.7306V180.036H75.0016Z" fill="white"/>
<line x1="2" y1="247.5" x2="338" y2="247.5" stroke="#A5A4A8"/>
<defs>
<linearGradient id="paint0_linear_1001_222696" x1="170.5" y1="114.797" x2="170.5" y2="244.42" gradientUnits="userSpaceOnUse">
<stop offset="0.244792" stop-color="#FF5C00"/>
<stop offset="1" stop-color="#D9D9D9" stop-opacity="0"/>
<stop offset="1" stop-color="#FF5C00" stop-opacity="0"/>
</linearGradient>
</defs>
</svg>
