<svg width="701" height="222" viewBox="0 0 701 222" fill="none" xmlns="http://www.w3.org/2000/svg">
<path d="M674 165.569C674 165.569 683.778 165.213 692.181 161C692.181 161 695.88 166.668 700.638 168.187C700.638 168.187 683.64 179.666 674 165.566V165.569Z" fill="url(#paint0_linear_1278_115541)"/>
<path d="M553 24.9566C553 24.9566 566.284 7.42248 567.184 0C567.184 0 570.61 3.69678 574.164 3.10734C574.164 3.10734 562.095 26.6048 553 24.9566Z" fill="url(#paint1_linear_1278_115541)"/>
<path d="M25 184.957C25 184.957 38.2835 167.422 39.1844 160C39.1844 160 42.6097 163.697 46.1642 163.107C46.1642 163.107 34.0952 186.605 25 184.957Z" fill="url(#paint2_linear_1278_115541)"/>
<path d="M615.341 123.502C615.341 123.502 608.977 123.934 603.505 129.032C603.505 129.032 601.098 122.172 598 120.333C598 120.333 609.066 106.44 615.341 123.502Z" fill="url(#paint3_linear_1278_115541)"/>
<path d="M0 61C5.14258 66.3205 15.6123 67.9331 15.6123 67.9331L15.2921 74.2101C15.2921 74.2101 3.85694 71.1517 1.00984 65.9847L0.00222647 61H0Z" fill="url(#paint4_linear_1278_115541)"/>
<path d="M583.552 202L594 217.381L590.531 222L579 204.993L583.552 202Z" fill="url(#paint5_linear_1278_115541)"/>
<path d="M511.258 133.381C510.103 133.91 508.742 133.403 508.213 132.251C507.679 131.099 508.186 129.735 509.338 129.212C510.49 128.681 511.849 129.181 512.376 130.336C512.908 131.486 512.408 132.851 511.255 133.383L511.258 133.381Z" fill="#93783B"/>
<path d="M84.3264 91.0097C86.3149 90.8651 88.0388 92.3554 88.1834 94.3395C88.3279 96.3191 86.8377 98.0429 84.8514 98.1897C82.8762 98.3343 81.1479 96.8485 81.01 94.8622C80.8632 92.8737 82.349 91.1565 84.3264 91.0097Z" fill="#93783B"/>
<defs>
<linearGradient id="paint0_linear_1278_115541" x1="674" y1="166.797" x2="700.638" y2="166.797" gradientUnits="userSpaceOnUse">
<stop offset="0.03" stop-color="#AD9245"/>
<stop offset="0.75" stop-color="#FFF4CF"/>
<stop offset="1" stop-color="#CEA628"/>
</linearGradient>
<linearGradient id="paint1_linear_1278_115541" x1="551.368" y1="19.8292" x2="574.621" y2="0.248784" gradientUnits="userSpaceOnUse">
<stop offset="0.03" stop-color="#AD9245"/>
<stop offset="0.75" stop-color="#FFF4CF"/>
<stop offset="1" stop-color="#CEA628"/>
</linearGradient>
<linearGradient id="paint2_linear_1278_115541" x1="23.3683" y1="179.829" x2="46.6208" y2="160.249" gradientUnits="userSpaceOnUse">
<stop offset="0.03" stop-color="#AD9245"/>
<stop offset="0.75" stop-color="#FFF4CF"/>
<stop offset="1" stop-color="#CEA628"/>
</linearGradient>
<linearGradient id="paint3_linear_1278_115541" x1="613.74" y1="123.228" x2="596.323" y2="123.228" gradientUnits="userSpaceOnUse">
<stop offset="0.03" stop-color="#AD9245"/>
<stop offset="0.75" stop-color="#FFF4CF"/>
<stop offset="1" stop-color="#CEA628"/>
</linearGradient>
<linearGradient id="paint4_linear_1278_115541" x1="14.6768" y1="74.6443" x2="1.86548" y2="59.3547" gradientUnits="userSpaceOnUse">
<stop offset="0.03" stop-color="#AD9245"/>
<stop offset="0.75" stop-color="#FFF4CF"/>
<stop offset="1" stop-color="#CEA628"/>
</linearGradient>
<linearGradient id="paint5_linear_1278_115541" x1="581.432" y1="202.314" x2="591.458" y2="219.144" gradientUnits="userSpaceOnUse">
<stop offset="0.03" stop-color="#AD9245"/>
<stop offset="0.75" stop-color="#FFF4CF"/>
<stop offset="1" stop-color="#CEA628"/>
</linearGradient>
</defs>
</svg>
