<svg width="30" height="23" viewBox="0 0 30 23" fill="none" xmlns="http://www.w3.org/2000/svg">
<g opacity="0.8">
<path d="M1.61972 9.33812L1.65867 9.33832L27.711 9.43807L27.7756 9.43832L27.7611 12.6559L27.7007 12.6559C27.655 13.7404 26.8125 14.833 25.1188 15.7755C20.8155 18.1698 12.6451 18.6918 6.86866 16.9412C3.36631 15.8797 1.54861 14.2266 1.61923 12.556L1.60408 12.5562L1.61972 9.33812Z" fill="url(#paint0_linear_1691_53884)"/>
<path d="M22.4673 5.33284C16.6909 3.5822 8.51965 4.10399 4.21635 6.4983C-0.0869491 8.8926 1.1074 12.2524 6.88386 14.003C12.6603 15.7536 20.8307 15.2317 25.134 12.8373C29.4371 10.4439 28.2438 7.08347 22.4673 5.33284Z" fill="url(#paint1_linear_1691_53884)"/>
<path d="M22.4673 5.09651C16.6909 3.34588 8.51965 3.86764 4.21635 6.26195C-0.0869436 8.65626 1.1074 12.016 6.88386 13.7667C12.6603 15.5173 20.8308 14.9953 25.1341 12.601C29.4373 10.2067 28.2438 6.84715 22.4673 5.09651Z" fill="url(#paint2_radial_1691_53884)"/>
<path d="M20.7985 6.16276C16.2928 4.79708 9.9207 5.20464 6.5641 7.07161C4.79406 8.05589 4.21765 9.25006 4.72797 10.3598C3.81497 9.1326 4.47664 7.85831 6.48615 6.74008C9.84298 4.87229 16.2149 4.46556 20.7206 5.83124C22.8499 6.47659 24.0834 7.41928 24.4469 8.2822C23.8352 7.46025 22.6049 6.71018 20.7985 6.16276Z" fill="url(#paint3_linear_1691_53884)"/>
<path d="M22.6107 11.5694C19.2549 13.4366 12.8812 13.8437 8.37631 12.4783C6.56911 11.9306 5.33856 11.1814 4.72787 10.3588C4.21733 9.24992 4.79374 8.05575 6.56401 7.07064C9.92084 5.20285 16.2928 4.79611 20.7984 6.16179C22.6056 6.70944 23.8359 7.45951 24.4469 8.28123C24.9563 9.39075 24.3808 10.5851 22.6107 11.5694Z" fill="url(#paint4_linear_1691_53884)"/>
<path d="M20.7881 6.31394C16.2824 4.94826 9.91028 5.35582 6.55367 7.22279C5.29452 7.92323 4.64194 8.82099 4.55288 9.628C4.52654 8.74181 5.17772 7.84276 6.56292 7.07179C9.91976 5.204 16.2917 4.79726 20.7973 6.16294C22.6037 6.71035 23.8349 7.46066 24.4458 8.28238C24.5935 8.60226 24.6468 8.9296 24.6107 9.25687C24.6038 9.01083 24.547 8.76597 24.4365 8.52571C23.8244 7.70188 22.5945 6.86136 20.7881 6.31394Z" fill="url(#paint5_linear_1691_53884)"/>
<path d="M22.2902 11.3707C24.0605 10.3855 24.6369 9.19138 24.1263 8.08246C23.8761 7.74556 23.5204 7.42103 23.0652 7.1167C23.6779 7.47643 24.1401 7.87057 24.4466 8.2826C24.9571 9.39152 24.3807 10.5857 22.6104 11.5708C19.2547 13.438 12.8809 13.8451 8.37604 12.4797C7.30959 12.1569 6.44465 11.7634 5.78878 11.326C6.3979 11.6829 7.15549 12.0066 8.0558 12.2795C12.5604 13.6458 18.9342 13.2387 22.2902 11.3707Z" fill="#F3D689"/>
<path d="M25.1366 12.6011C20.8333 14.9954 12.6629 15.5174 6.88642 13.7668C4.92871 13.1736 3.49791 12.3953 2.62879 11.5327C2.63559 11.4955 2.63945 11.4753 2.63945 11.4753C6.05521 13.838 9.95307 14.7051 16.1066 14.4044C23.5925 14.038 26.7816 11.3876 26.786 11.3844C26.3754 11.808 25.827 12.2172 25.1366 12.6011Z" fill="#F3D689"/>
<path d="M4.21878 6.26205C7.65326 4.35108 13.5514 3.63308 18.7302 4.31089C18.7293 4.31066 4.26108 2.97679 1.63667 9.38868C1.6798 8.30079 2.52195 7.20636 4.21878 6.26205Z" fill="url(#paint6_radial_1691_53884)"/>
<path d="M4.21878 6.26205C7.65326 4.35108 13.5514 3.63308 18.7302 4.31089C18.7293 4.31066 4.26108 2.97679 1.63667 9.38868C1.6798 8.30079 2.52195 7.20636 4.21878 6.26205Z" fill="#F3D689"/>
</g>
<defs>
<linearGradient id="paint0_linear_1691_53884" x1="27.7571" y1="13.7327" x2="1.60058" y2="13.6179" gradientUnits="userSpaceOnUse">
<stop stop-color="#A07836"/>
<stop offset="0.5215" stop-color="#C1914C"/>
<stop offset="0.7471" stop-color="#8E5C2F"/>
<stop offset="1" stop-color="#634323"/>
</linearGradient>
<linearGradient id="paint1_linear_1691_53884" x1="27.7176" y1="9.7183" x2="1.6327" y2="9.60381" gradientUnits="userSpaceOnUse">
<stop stop-color="#A07836"/>
<stop offset="0.5215" stop-color="#966A3B"/>
<stop offset="1" stop-color="#402910"/>
</linearGradient>
<radialGradient id="paint2_radial_1691_53884" cx="0" cy="0" r="1" gradientUnits="userSpaceOnUse" gradientTransform="translate(14.6934 9.40872) rotate(-179.781) scale(13.4974 5.4187)">
<stop stop-color="#EDC573"/>
<stop offset="0.7856" stop-color="#DDAC5B"/>
<stop offset="0.9042" stop-color="#EBC36F"/>
</radialGradient>
<linearGradient id="paint3_linear_1691_53884" x1="20.6604" y1="6.25826" x2="4.04796" y2="9.28485" gradientUnits="userSpaceOnUse">
<stop stop-color="#9A6F31"/>
<stop offset="0.5203" stop-color="#DDAC5B"/>
<stop offset="1" stop-color="#B28A42"/>
</linearGradient>
<linearGradient id="paint4_linear_1691_53884" x1="10.2963" y1="4.38142" x2="17.5544" y2="12.7196" gradientUnits="userSpaceOnUse">
<stop stop-color="#EAC26A"/>
<stop offset="1" stop-color="#C69347"/>
</linearGradient>
<linearGradient id="paint5_linear_1691_53884" x1="21.5419" y1="6.60175" x2="3.2365" y2="10.6912" gradientUnits="userSpaceOnUse">
<stop offset="0.00040993" stop-color="#CD9A4C"/>
<stop offset="0.1982" stop-color="#E1B96B"/>
<stop offset="0.4142" stop-color="#F2D587"/>
<stop offset="0.54" stop-color="#F9DF91"/>
<stop offset="0.5456" stop-color="#F8DE8F"/>
<stop offset="0.6285" stop-color="#EDCC7A"/>
<stop offset="0.7208" stop-color="#E5BF6B"/>
<stop offset="0.8299" stop-color="#E0B763"/>
<stop offset="0.9967" stop-color="#DFB560"/>
</linearGradient>
<radialGradient id="paint6_radial_1691_53884" cx="0" cy="0" r="1" gradientUnits="userSpaceOnUse" gradientTransform="translate(14.6961 9.408) rotate(-179.781) scale(13.4975 5.41871)">
<stop stop-color="#EDC573"/>
<stop offset="0.7856" stop-color="#DDAC5B"/>
<stop offset="0.9042" stop-color="#EBC36F"/>
</radialGradient>
</defs>
</svg>
