<svg width="22" height="22" viewBox="0 0 22 22" fill="none" xmlns="http://www.w3.org/2000/svg">
<path d="M1.83203 2.75H7.33203C8.30449 2.75 9.23712 3.13631 9.92476 3.82394C10.6124 4.51158 10.9987 5.44421 10.9987 6.41667V19.25C10.9987 18.5207 10.709 17.8212 10.1932 17.3055C9.67752 16.7897 8.97804 16.5 8.2487 16.5H1.83203V2.75Z" stroke="#A5A4A8" stroke-width="2" stroke-linecap="round" stroke-linejoin="round"/>
<path d="M20.1667 2.75H14.6667C13.6942 2.75 12.7616 3.13631 12.0739 3.82394C11.3863 4.51158 11 5.44421 11 6.41667V19.25C11 18.5207 11.2897 17.8212 11.8055 17.3055C12.3212 16.7897 13.0207 16.5 13.75 16.5H20.1667V2.75Z" stroke="#A5A4A8" stroke-width="2" stroke-linecap="round" stroke-linejoin="round"/>
</svg>
