<svg width="17" height="17" viewBox="0 0 17 17" fill="none" xmlns="http://www.w3.org/2000/svg">
<path d="M14.3902 12.5258V6.86193C14.3902 5.29607 13.7774 3.82414 12.6649 2.71698C11.5524 1.60981 10.0731 1 8.5 1C6.92659 1 5.44757 1.60981 4.33507 2.71698C3.22257 3.82414 2.60982 5.29607 2.60982 6.86193V12.5258C1.71766 12.5526 1 13.2827 1 14.177V15.5974C1 15.8196 1.18124 16 1.40455 16H15.5955C15.8188 16 16 15.8196 16 15.5974V14.177C16 13.2827 15.2823 12.5526 14.3902 12.5258ZM3.41891 6.86193C3.41891 4.07376 5.69839 1.80521 8.5 1.80521C11.3016 1.80521 13.5811 4.07349 13.5811 6.86193V12.5244H3.41891V6.86193ZM15.1909 15.1948H1.80909V14.177C1.80909 13.71 2.19098 13.3299 2.66025 13.3299H3.01437H13.9856H14.3397C14.809 13.3299 15.1909 13.71 15.1909 14.177V15.1948Z" fill="#A5A4A8" stroke="#A5A4A8" stroke-width="0.5"/>
</svg>
