<svg width="218" height="144" viewBox="0 0 218 144" fill="none" xmlns="http://www.w3.org/2000/svg">
<g clip-path="url(#clip0_1702_59827)">
<path d="M54.4654 46.7384L54.4711 46.7355L58.1655 44.859C58.1657 44.8589 58.1659 44.8588 58.1661 44.8587C60.0004 43.9257 60.823 41.8542 60.1647 39.9914L60.1643 39.9903L58.8103 36.1497C58.8101 36.1491 58.8099 36.1486 58.8097 36.148C58.173 34.3543 58.3093 32.3925 59.162 30.6992L59.165 30.6934L61.0182 27.0528L61.0187 27.0519C61.9204 25.2835 61.3726 23.1284 59.6801 21.9743C59.68 21.9743 59.68 21.9742 59.6799 21.9742L56.2631 19.6453L56.2586 19.6422C54.6838 18.5605 53.6043 16.9114 53.2786 15.0328L53.278 15.029L52.5948 11.0277C52.5948 11.0277 52.5948 11.0276 52.5948 11.0276C52.2609 9.08117 50.5022 7.61892 48.4045 7.66105L48.4029 7.66108L44.2494 7.74013C44.2486 7.74014 44.2477 7.74016 44.2469 7.74018C42.3209 7.78225 40.4664 7.05599 39.0912 5.74226L39.0902 5.74133L36.125 2.90351L36.1238 2.90236C34.6473 1.48617 32.3138 1.33583 30.6672 2.56005L30.6623 2.56367L27.3546 5.00207C25.8186 6.15295 23.8766 6.61431 21.9967 6.34612L21.9923 6.34549L17.8803 5.74626L17.8793 5.74611C15.8079 5.44282 13.8691 6.66623 13.2733 8.56551C13.2733 8.56569 13.2732 8.56587 13.2731 8.56605L12.0573 12.4543L12.0545 12.4633L12.0544 12.4633C11.4798 14.2609 10.2017 15.7615 8.50754 16.6311L8.50187 16.634L8.50187 16.634L4.80749 18.5105C4.80737 18.5106 4.80725 18.5106 4.80713 18.5107C4.80706 18.5107 4.80699 18.5108 4.80691 18.5108C2.97258 19.4439 2.14996 21.5153 2.80831 23.3781L2.8087 23.3792L4.1627 27.2198C4.16291 27.2204 4.16312 27.221 4.16333 27.2216C4.80002 29.0153 4.66363 30.9771 3.81098 32.6703L3.80803 32.6762L1.95475 36.3167L1.9543 36.3176C1.05262 38.086 1.60041 40.2412 3.29292 41.3952C3.29297 41.3953 3.29302 41.3953 3.29308 41.3953L6.70989 43.7243L6.71433 43.7273C8.28921 44.8091 9.36864 46.4582 9.69434 48.3367L9.69499 48.3405L10.3782 52.3418C10.3782 52.3419 10.3782 52.3421 10.3783 52.3422C10.7122 54.2885 12.4709 55.7506 14.5685 55.7085L14.57 55.7085L18.7236 55.6294C18.7246 55.6294 18.7257 55.6294 18.7267 55.6293C20.6525 55.5875 22.5068 56.3137 23.8818 57.6273L23.8827 57.6282L26.848 60.466L26.8492 60.4672C28.3257 61.8834 30.6591 62.0337 32.3058 60.8095L32.3107 60.8059L35.6186 58.3673C37.1546 57.2165 39.0964 56.7552 40.9763 57.0234L40.9807 57.0241L45.0927 57.6233L45.0937 57.6234C47.1649 57.9267 49.1035 56.7035 49.6995 54.8046L54.4654 46.7384ZM54.4654 46.7384C52.7713 47.608 51.4931 49.1087 50.9185 50.9063L50.9157 50.9153L49.6998 54.8035L54.4654 46.7384Z" fill="#FF5C00" fill-opacity="0.9" stroke="#FE7E48" stroke-width="3"/>
<path d="M40.3402 25.9268C48.016 25.9268 48.016 37.445 40.3402 37.445C32.6659 37.445 29.5962 25.9268 21.1522 25.9268C14.2461 25.9268 14.2461 37.445 21.1522 37.445C29.5962 37.445 32.6659 25.9268 40.3417 25.9268H40.3402Z" stroke="white" stroke-width="3" stroke-linecap="round" stroke-linejoin="round"/>
</g>
<path d="M133.321 46.7389L133.327 46.7359L137.021 44.8594C137.021 44.8593 137.021 44.8593 137.022 44.8592C138.856 43.9261 139.678 41.8546 139.02 39.9919L139.02 39.9908L137.666 36.1501C137.666 36.1496 137.665 36.149 137.665 36.1485C137.028 34.3547 137.165 32.3929 138.017 30.6996L138.02 30.6938L139.874 27.0532L139.874 27.0524C140.776 25.284 140.228 23.1288 138.536 21.9747C138.535 21.9747 138.535 21.9747 138.535 21.9746L135.119 19.6457L135.114 19.6427C133.539 18.5609 132.46 16.9118 132.134 15.0332L132.133 15.0295L131.45 11.0281C131.45 11.0281 131.45 11.0281 131.45 11.028C131.116 9.08159 129.358 7.61935 127.26 7.66148L127.258 7.66151L123.105 7.74055C123.104 7.74057 123.103 7.74059 123.102 7.74061C121.176 7.78268 119.322 7.05642 117.947 5.74268L117.946 5.74176L114.98 2.90394L114.979 2.90279C113.503 1.4866 111.169 1.33626 109.523 2.56048L109.518 2.5641L106.21 5.0025C104.674 6.15338 102.732 6.61474 100.852 6.34655L100.848 6.34591L96.7358 5.74668L96.7348 5.74654C94.6633 5.44325 92.7246 6.66666 92.1288 8.56593C92.1287 8.56612 92.1287 8.5663 92.1286 8.56648L90.9127 12.4547L90.9099 12.4637L90.9099 12.4637C90.3353 14.2613 89.0572 15.762 87.363 16.6315L87.3573 16.6345L87.3573 16.6344L83.663 18.511C83.6628 18.511 83.6627 18.5111 83.6626 18.5111C83.6625 18.5112 83.6625 18.5112 83.6624 18.5112C81.8281 19.4443 81.0054 21.5157 81.6638 23.3785L81.6642 23.3796L83.0182 27.2203C83.0184 27.2209 83.0186 27.2215 83.0188 27.222C83.6555 29.0158 83.5191 30.9775 82.6665 32.6707L82.6635 32.6766L80.8102 36.3172L80.8098 36.318C79.9081 38.0864 80.4559 40.2416 82.1484 41.3957C82.1484 41.3957 82.1485 41.3957 82.1485 41.3958L85.5654 43.7247L85.5698 43.7277C87.1447 44.8095 88.2241 46.4586 88.5498 48.3372L88.5505 48.3409L89.2337 52.3423C89.2337 52.3424 89.2337 52.3425 89.2337 52.3426C89.5676 54.2889 91.3263 55.751 93.4239 55.7089L93.4255 55.7089L97.5791 55.6298C97.5801 55.6298 97.5811 55.6298 97.5822 55.6298C99.508 55.5879 101.362 56.3141 102.737 57.6277L102.738 57.6286L105.703 60.4665L105.705 60.4676C107.181 61.8838 109.515 62.0341 111.161 60.8099L111.166 60.8063L114.474 58.3677C116.01 57.217 117.952 56.7557 119.832 57.0238L119.836 57.0245L123.948 57.6237L123.949 57.6239C126.02 57.9271 127.959 56.704 128.555 54.805L133.321 46.7389ZM133.321 46.7389C131.627 47.6084 130.349 49.1091 129.774 50.9067L129.771 50.9157L128.555 54.8039L133.321 46.7389Z" fill="#FF5C00" fill-opacity="0.9" stroke="#FE7E48" stroke-width="3"/>
<path d="M119.196 25.9272C126.872 25.9272 126.872 37.4454 119.196 37.4454C111.521 37.4454 108.452 25.9272 100.008 25.9272C93.1016 25.9272 93.1016 37.4454 100.008 37.4454C108.452 37.4454 111.521 25.9272 119.197 25.9272H119.196Z" stroke="white" stroke-width="3" stroke-linecap="round" stroke-linejoin="round"/>
<path d="M209.516 46.7389L209.522 46.7359L213.216 44.8594C213.216 44.8593 213.217 44.8593 213.217 44.8592C215.051 43.9261 215.874 41.8546 215.215 39.9919L215.215 39.9908L213.861 36.1501C213.861 36.1496 213.861 36.149 213.86 36.1485C213.224 34.3547 213.36 32.3929 214.213 30.6996L214.216 30.6938L216.069 27.0532L216.069 27.0524C216.971 25.284 216.423 23.1288 214.731 21.9747C214.731 21.9747 214.731 21.9747 214.731 21.9746L211.314 19.6457L211.309 19.6427C209.735 18.5609 208.655 16.9118 208.329 15.0332L208.329 15.0295L207.646 11.0281C207.646 11.0281 207.646 11.0281 207.646 11.028C207.312 9.08159 205.553 7.61935 203.455 7.66148L203.454 7.66151L199.3 7.74055C199.299 7.74057 199.299 7.74059 199.298 7.74061C197.372 7.78268 195.517 7.05642 194.142 5.74268L194.141 5.74176L191.176 2.90394L191.175 2.90279C189.698 1.4866 187.365 1.33626 185.718 2.56048L185.713 2.5641L182.405 5.0025C180.869 6.15338 178.927 6.61474 177.047 6.34655L177.043 6.34591L172.931 5.74668L172.93 5.74654C170.859 5.44325 168.92 6.66666 168.324 8.56593C168.324 8.56612 168.324 8.5663 168.324 8.56648L167.108 12.4547L167.105 12.4637L167.105 12.4637C166.531 14.2613 165.252 15.762 163.558 16.6315L163.553 16.6345L163.553 16.6344L159.858 18.511C159.858 18.511 159.858 18.5111 159.858 18.5111C159.858 18.5112 159.858 18.5112 159.858 18.5112C158.023 19.4443 157.201 21.5157 157.859 23.3785L157.859 23.3796L159.213 27.2203C159.214 27.2209 159.214 27.2215 159.214 27.222C159.851 29.0158 159.714 30.9775 158.862 32.6707L158.859 32.6766L157.006 36.3172L157.005 36.318C156.103 38.0864 156.651 40.2416 158.344 41.3957C158.344 41.3957 158.344 41.3957 158.344 41.3958L161.761 43.7247L161.765 43.7277C163.34 44.8095 164.419 46.4586 164.745 48.3372L164.746 48.3409L165.429 52.3423C165.429 52.3424 165.429 52.3425 165.429 52.3426C165.763 54.2889 167.522 55.751 169.619 55.7089L169.621 55.7089L173.774 55.6298C173.775 55.6298 173.776 55.6298 173.778 55.6298C175.703 55.5879 177.558 56.3141 178.933 57.6277L178.934 57.6286L181.899 60.4665L181.9 60.4676C183.376 61.8838 185.71 62.0341 187.357 60.8099L187.361 60.8063L190.669 58.3677C192.205 57.217 194.147 56.7557 196.027 57.0238L196.032 57.0245L200.143 57.6237L200.144 57.6239C202.216 57.9271 204.154 56.704 204.75 54.805L209.516 46.7389ZM209.516 46.7389C207.822 47.6084 206.544 49.1091 205.969 50.9067L205.966 50.9157L204.751 54.8039L209.516 46.7389Z" fill="#EFEFEF" stroke="#DBDBDB" stroke-width="3"/>
<path d="M195.391 25.9272C203.067 25.9272 203.067 37.4454 195.391 37.4454C187.717 37.4454 184.647 25.9272 176.203 25.9272C169.297 25.9272 169.297 37.4454 176.203 37.4454C184.647 37.4454 187.717 25.9272 195.393 25.9272H195.391Z" stroke="#A5A4A8" stroke-width="3" stroke-linecap="round" stroke-linejoin="round"/>
<path d="M209.516 127.365L209.522 127.362L213.216 125.486C213.216 125.486 213.217 125.486 213.217 125.485C215.051 124.552 215.874 122.481 215.215 120.618L215.215 120.617L213.861 116.776C213.861 116.776 213.861 116.775 213.86 116.775C213.224 114.981 213.36 113.019 214.213 111.326L214.216 111.32L216.069 107.68L216.069 107.679C216.971 105.91 216.423 103.755 214.731 102.601C214.731 102.601 214.731 102.601 214.731 102.601L211.314 100.272L211.309 100.269C209.735 99.1872 208.655 97.5381 208.329 95.6596L208.329 95.6558L207.646 91.6545C207.646 91.6544 207.646 91.6544 207.646 91.6544C207.312 89.7079 205.553 88.2457 203.455 88.2878L203.454 88.2879L199.3 88.3669C199.299 88.3669 199.299 88.3669 199.298 88.367C197.372 88.409 195.517 87.6828 194.142 86.369L194.141 86.3681L191.176 83.5303L191.175 83.5291C189.698 82.1129 187.365 81.9626 185.718 83.1868L185.713 83.1904L182.405 85.6288C180.869 86.7797 178.927 87.2411 177.047 86.9729L177.043 86.9723L172.931 86.373L172.93 86.3729C170.859 86.0696 168.92 87.293 168.324 89.1923C168.324 89.1925 168.324 89.1926 168.324 89.1928L167.108 93.081L167.105 93.0901L167.105 93.0901C166.531 94.8876 165.252 96.3883 163.558 97.2579L163.553 97.2608L163.553 97.2608L159.858 99.1373C159.858 99.1374 159.858 99.1374 159.858 99.1375C159.858 99.1375 159.858 99.1376 159.858 99.1376C158.023 100.071 157.201 102.142 157.859 104.005L157.859 104.006L159.213 107.847C159.214 107.847 159.214 107.848 159.214 107.848C159.851 109.642 159.714 111.604 158.862 113.297L158.859 113.303L157.006 116.944L157.005 116.944C156.103 118.713 156.651 120.868 158.344 122.022C158.344 122.022 158.344 122.022 158.344 122.022L161.761 124.351L161.765 124.354C163.34 125.436 164.419 127.085 164.745 128.964L164.746 128.967L165.429 132.969C165.429 132.969 165.429 132.969 165.429 132.969C165.763 134.915 167.522 136.377 169.619 136.335L169.621 136.335L173.774 136.256C173.775 136.256 173.776 136.256 173.778 136.256C175.703 136.214 177.558 136.94 178.933 138.254L178.934 138.255L181.899 141.093L181.9 141.094C183.376 142.51 185.71 142.66 187.357 141.436L187.361 141.433L190.669 138.994C192.205 137.843 194.147 137.382 196.027 137.65L196.032 137.651L200.143 138.25L200.144 138.25C202.216 138.553 204.154 137.33 204.75 135.431L209.516 127.365ZM209.516 127.365C207.822 128.235 206.544 129.735 205.969 131.533L205.966 131.542L204.751 135.43L209.516 127.365Z" fill="#EFEFEF" stroke="#DBDBDB" stroke-width="3"/>
<path d="M195.391 106.554C203.067 106.554 203.067 118.072 195.391 118.072C187.717 118.072 184.647 106.554 176.203 106.554C169.297 106.554 169.297 118.072 176.203 118.072C184.647 118.072 187.717 106.554 195.393 106.554H195.391Z" stroke="#A5A4A8" stroke-width="3" stroke-linecap="round" stroke-linejoin="round"/>
<path d="M133.321 127.365L133.327 127.362L137.021 125.486C137.021 125.486 137.021 125.486 137.022 125.485C138.856 124.552 139.678 122.481 139.02 120.618L139.02 120.617L137.666 116.776C137.666 116.776 137.665 116.775 137.665 116.775C137.028 114.981 137.165 113.019 138.017 111.326L138.02 111.32L139.874 107.68L139.874 107.679C140.776 105.91 140.228 103.755 138.536 102.601C138.535 102.601 138.535 102.601 138.535 102.601L135.119 100.272L135.114 100.269C133.539 99.1872 132.46 97.5381 132.134 95.6596L132.133 95.6558L131.45 91.6545C131.45 91.6544 131.45 91.6544 131.45 91.6544C131.116 89.7079 129.358 88.2457 127.26 88.2878L127.258 88.2879L123.105 88.3669C123.104 88.3669 123.103 88.3669 123.102 88.367C121.176 88.409 119.322 87.6828 117.947 86.369L117.946 86.3681L114.98 83.5303L114.979 83.5291C113.503 82.1129 111.169 81.9626 109.523 83.1868L109.518 83.1904L106.21 85.6288C104.674 86.7797 102.732 87.2411 100.852 86.9729L100.848 86.9723L96.7358 86.373L96.7348 86.3729C94.6633 86.0696 92.7246 87.293 92.1288 89.1923C92.1287 89.1925 92.1287 89.1926 92.1286 89.1928L90.9127 93.081L90.9099 93.0901L90.9099 93.0901C90.3353 94.8876 89.0572 96.3883 87.363 97.2579L87.3573 97.2608L87.3573 97.2608L83.663 99.1373C83.6628 99.1374 83.6627 99.1374 83.6626 99.1375C83.6625 99.1375 83.6625 99.1376 83.6624 99.1376C81.8281 100.071 81.0054 102.142 81.6638 104.005L81.6642 104.006L83.0182 107.847C83.0184 107.847 83.0186 107.848 83.0188 107.848C83.6555 109.642 83.5191 111.604 82.6665 113.297L82.6635 113.303L80.8102 116.944L80.8098 116.944C79.9081 118.713 80.4559 120.868 82.1484 122.022C82.1484 122.022 82.1485 122.022 82.1485 122.022L85.5654 124.351L85.5698 124.354C87.1447 125.436 88.2241 127.085 88.5498 128.964L88.5505 128.967L89.2337 132.969C89.2337 132.969 89.2337 132.969 89.2337 132.969C89.5676 134.915 91.3263 136.377 93.4239 136.335L93.4255 136.335L97.5791 136.256C97.5801 136.256 97.5811 136.256 97.5822 136.256C99.508 136.214 101.362 136.94 102.737 138.254L102.738 138.255L105.703 141.093L105.705 141.094C107.181 142.51 109.515 142.66 111.161 141.436L111.166 141.433L114.474 138.994C116.01 137.843 117.952 137.382 119.832 137.65L119.836 137.651L123.948 138.25L123.949 138.25C126.02 138.553 127.959 137.33 128.555 135.431L133.321 127.365ZM133.321 127.365C131.627 128.235 130.349 129.735 129.774 131.533L129.771 131.542L128.555 135.43L133.321 127.365Z" fill="#EFEFEF" stroke="#DBDBDB" stroke-width="3"/>
<path d="M119.196 106.554C126.872 106.554 126.872 118.072 119.196 118.072C111.521 118.072 108.452 106.554 100.008 106.554C93.1016 106.554 93.1016 118.072 100.008 118.072C108.452 118.072 111.521 106.554 119.197 106.554H119.196Z" stroke="#A5A4A8" stroke-width="3" stroke-linecap="round" stroke-linejoin="round"/>
<path d="M54.4654 127.365L54.4711 127.362L58.1655 125.486C58.1657 125.486 58.1659 125.486 58.1661 125.485C60.0004 124.552 60.823 122.481 60.1647 120.618L60.1643 120.617L58.8103 116.776C58.8101 116.776 58.8099 116.775 58.8097 116.775C58.173 114.981 58.3093 113.019 59.162 111.326L59.165 111.32L61.0182 107.68L61.0187 107.679C61.9204 105.91 61.3726 103.755 59.6801 102.601C59.68 102.601 59.68 102.601 59.6799 102.601L56.2631 100.272L56.2586 100.269C54.6838 99.1872 53.6043 97.5381 53.2786 95.6596L53.278 95.6558L52.5948 91.6545C52.5948 91.6544 52.5948 91.6544 52.5948 91.6544C52.2609 89.7079 50.5022 88.2457 48.4045 88.2878L48.4029 88.2879L44.2494 88.3669C44.2486 88.3669 44.2477 88.3669 44.2469 88.367C42.3209 88.409 40.4664 87.6828 39.0912 86.369L39.0902 86.3681L36.125 83.5303L36.1238 83.5291C34.6473 82.1129 32.3138 81.9626 30.6672 83.1868L30.6623 83.1904L27.3546 85.6288C25.8186 86.7797 23.8766 87.2411 21.9967 86.9729L21.9923 86.9723L17.8803 86.373L17.8793 86.3729C15.8079 86.0696 13.8691 87.293 13.2733 89.1923C13.2733 89.1925 13.2732 89.1926 13.2731 89.1928L12.0573 93.081L12.0545 93.0901L12.0544 93.0901C11.4798 94.8876 10.2017 96.3883 8.50754 97.2579L8.50187 97.2608L8.50187 97.2608L4.80749 99.1373C4.80737 99.1374 4.80725 99.1374 4.80713 99.1375C4.80706 99.1375 4.80699 99.1376 4.80691 99.1376C2.97258 100.071 2.14996 102.142 2.80831 104.005L2.8087 104.006L4.1627 107.847C4.16291 107.847 4.16312 107.848 4.16333 107.848C4.80002 109.642 4.66363 111.604 3.81098 113.297L3.80803 113.303L1.95475 116.944L1.9543 116.944C1.05262 118.713 1.60041 120.868 3.29292 122.022C3.29297 122.022 3.29302 122.022 3.29308 122.022L6.70989 124.351L6.71433 124.354C8.28921 125.436 9.36864 127.085 9.69434 128.964L9.69499 128.967L10.3782 132.969C10.3782 132.969 10.3782 132.969 10.3783 132.969C10.7122 134.915 12.4709 136.377 14.5685 136.335L14.57 136.335L18.7236 136.256C18.7246 136.256 18.7257 136.256 18.7267 136.256C20.6525 136.214 22.5068 136.94 23.8818 138.254L23.8827 138.255L26.848 141.093L26.8492 141.094C28.3257 142.51 30.6591 142.66 32.3058 141.436L32.3107 141.433L35.6186 138.994C37.1546 137.843 39.0964 137.382 40.9763 137.65L40.9807 137.651L45.0927 138.25L45.0937 138.25C47.1649 138.553 49.1035 137.33 49.6995 135.431L54.4654 127.365ZM54.4654 127.365C52.7713 128.235 51.4931 129.735 50.9185 131.533L50.9157 131.542L49.6998 135.43L54.4654 127.365Z" fill="#EFEFEF" stroke="#DBDBDB" stroke-width="3"/>
<path d="M40.3402 106.554C48.016 106.554 48.016 118.072 40.3402 118.072C32.6659 118.072 29.5962 106.554 21.1522 106.554C14.2461 106.554 14.2461 118.072 21.1522 118.072C29.5962 118.072 32.6659 106.554 40.3417 106.554H40.3402Z" stroke="#A5A4A8" stroke-width="3" stroke-linecap="round" stroke-linejoin="round"/>
<defs>
<clipPath id="clip0_1702_59827">
<rect width="62.9069" height="62.9069" fill="white" transform="translate(0.0234375 0.232422)"/>
</clipPath>
</defs>
</svg>
