<svg width="73" height="36" viewBox="0 0 73 36" fill="none" xmlns="http://www.w3.org/2000/svg">
<path d="M56.9928 7.26161C57.7782 7.04712 58.5768 6.87552 59.3819 6.74023C55.7455 4.5689 51.8615 3.62843 48.4824 4.87579C39.3483 8.24168 33.1808 35.5219 21.2715 34.2316C21.2748 34.2349 21.2814 34.2382 21.288 34.2415C27.7327 37.6866 33.3458 35.8156 36.9394 30.8129C40.886 25.3153 43.0046 18.4383 46.2286 14.5082C46.0933 14.5049 50.9969 8.74326 56.9928 7.26161Z" fill="url(#paint0_linear_1702_61522)"/>
<path d="M71.7098 22.2627C71.36 21.0021 70.8486 19.7152 70.1985 18.4348C67.9942 14.0988 64.2455 9.86829 60.0975 7.18548C59.8599 7.03368 59.6223 6.88519 59.3814 6.73999C58.5763 6.87529 57.7843 7.06338 56.9923 7.26137C50.9964 8.74303 46.0928 14.5046 46.2248 14.5046C46.2149 14.5046 46.2446 14.4683 46.304 14.4089C47.548 12.9108 48.835 11.7822 50.1945 11.1981C50.3793 11.1189 50.5641 11.0464 50.7555 10.987C51.0525 10.8946 51.3726 10.8451 51.7092 10.8385C53.6792 10.7923 56.2927 12.132 58.7083 14.168C60.9621 16.0721 63.0443 18.58 64.2719 21.1341C65.6314 23.9654 65.836 26.8099 64.1498 28.9846C61.4472 32.4693 49.0099 27.3676 45.9971 25.4405C45.9938 25.4438 48.5545 27.3577 48.5545 27.3577C51.2901 29.1199 56.3092 32.9576 63.2192 33.4493C64.5557 33.545 65.902 33.4658 67.0966 33.0929C68.1394 32.7662 69.1293 32.2416 69.9708 31.4463C72.3434 29.1991 72.7097 25.853 71.7098 22.2627Z" fill="url(#paint1_radial_1702_61522)"/>
<path d="M15.2456 28.734C14.4602 28.9485 13.6649 29.1201 12.8564 29.2553C16.4929 31.4267 20.3769 32.3671 23.756 31.1198C32.8901 27.7539 39.0609 0.473681 50.9669 1.76394C50.9603 1.76064 50.957 1.75734 50.9537 1.75734C44.509 -1.68775 38.8959 0.183291 35.3023 5.18593C31.3556 10.6835 29.2371 17.5572 26.0131 21.4907C26.1451 21.4907 21.2415 27.2523 15.2456 28.734Z" fill="url(#paint2_linear_1702_61522)"/>
<path d="M0.528037 13.733C0.877825 14.9935 1.38931 16.2805 2.03939 17.5608C4.24042 21.8969 7.99239 26.1307 12.1404 28.8135C12.378 28.9653 12.6155 29.1138 12.8531 29.2557C13.6616 29.1204 14.4503 28.9323 15.2423 28.7343C21.2382 27.2526 26.1451 21.491 26.0098 21.491C26.0197 21.491 25.99 21.5273 25.9273 21.5867C24.6866 23.0849 23.3996 24.2134 22.0367 24.8008C21.8519 24.88 21.6671 24.9526 21.4791 25.012C21.1821 25.1044 20.862 25.1539 20.5221 25.1605C18.5554 25.2067 15.9418 23.8669 13.523 21.8309C11.2659 19.9302 9.18696 17.4189 7.9594 14.8648C6.59984 12.0302 6.29295 9.1428 7.9792 6.96817C10.6818 3.48349 23.624 8.82271 24.4721 9.1791C24.4754 9.1758 24.4754 9.1725 24.4787 9.1692C23.8583 8.72042 15.823 2.9984 8.91306 2.50672C7.57991 2.40772 6.28305 2.50672 5.09179 2.87961C4.04902 3.2096 3.08215 3.74418 2.24068 4.53945C-0.131942 6.78668 -0.471831 10.1427 0.528037 13.733Z" fill="url(#paint3_radial_1702_61522)"/>
<defs>
<linearGradient id="paint0_linear_1702_61522" x1="50.1629" y1="7.61652" x2="27.5878" y2="37.1592" gradientUnits="userSpaceOnUse">
<stop stop-color="#F2B322"/>
<stop offset="0.5634" stop-color="#EA803E"/>
<stop offset="1" stop-color="#E24E26"/>
</linearGradient>
<radialGradient id="paint1_radial_1702_61522" cx="0" cy="0" r="1" gradientUnits="userSpaceOnUse" gradientTransform="translate(48.4382 18.4775) scale(22.2327 22.2327)">
<stop stop-color="white"/>
<stop offset="0.3879" stop-color="#F2B322"/>
<stop offset="0.7091" stop-color="#EA803E"/>
<stop offset="1" stop-color="#E24E26"/>
</radialGradient>
<linearGradient id="paint2_linear_1702_61522" x1="43.7548" y1="-0.304235" x2="19.0919" y2="32.6228" gradientUnits="userSpaceOnUse">
<stop stop-color="#F2B322"/>
<stop offset="0.5634" stop-color="#EA803E"/>
<stop offset="1" stop-color="#E24E26"/>
</linearGradient>
<radialGradient id="paint3_radial_1702_61522" cx="0" cy="0" r="1" gradientUnits="userSpaceOnUse" gradientTransform="translate(16.8024 16.1537) scale(18.8168 18.8168)">
<stop stop-color="white"/>
<stop offset="0.3879" stop-color="#F2B322"/>
<stop offset="0.7091" stop-color="#EA803E"/>
<stop offset="1" stop-color="#E24E26"/>
</radialGradient>
</defs>
</svg>
