<svg width="18" height="18" viewBox="0 0 18 18" fill="none" xmlns="http://www.w3.org/2000/svg">
<path d="M4.06364 11.0899L2.7229 16.8956C2.68138 17.0714 2.69385 17.2556 2.75866 17.4242C2.82348 17.5928 2.93764 17.738 3.08622 17.8407C3.23481 17.9434 3.41092 17.9989 3.59155 18C3.77218 18.0011 3.94894 17.9476 4.09873 17.8467L8.99829 14.5803L13.8978 17.8467C14.0511 17.9485 14.2319 18.0008 14.4158 17.9968C14.5998 17.9928 14.778 17.9325 14.9267 17.8241C15.0754 17.7157 15.1873 17.5644 15.2474 17.3905C15.3075 17.2167 15.3129 17.0285 15.2629 16.8515L13.6171 11.0926L17.6987 7.41949C17.8294 7.30179 17.9228 7.14834 17.9672 6.97814C18.0117 6.80794 18.0053 6.62844 17.9488 6.46185C17.8923 6.29525 17.7882 6.14887 17.6494 6.0408C17.5106 5.93273 17.3432 5.86772 17.1678 5.85379L12.0379 5.44527L9.81803 0.531318C9.74725 0.373089 9.63219 0.238726 9.48673 0.144447C9.34127 0.0501672 9.17163 0 8.99829 0C8.82495 0 8.65532 0.0501672 8.50986 0.144447C8.3644 0.238726 8.24933 0.373089 8.17855 0.531318L5.95868 5.44527L0.828764 5.8529C0.656407 5.86655 0.491633 5.92957 0.354155 6.03442C0.216677 6.13927 0.112316 6.2815 0.0535572 6.44411C-0.00520134 6.60671 -0.0158693 6.78281 0.0228297 6.95132C0.0615287 7.11983 0.147956 7.27362 0.271771 7.3943L4.06364 11.0899Z" fill="#FF5C00"/>
</svg>
