<svg width="16" height="16" viewBox="0 0 16 16" fill="none" xmlns="http://www.w3.org/2000/svg">
<path d="M5 7.00049V15.0005" stroke="#363342" stroke-width="1.5" stroke-linecap="round" stroke-linejoin="round"/>
<path d="M10.178 3.71649L9.47201 6.60049H13.588C13.8072 6.60049 14.0234 6.65109 14.2195 6.74829C14.4155 6.84549 14.5861 6.98661 14.7176 7.16049C14.8491 7.33436 14.938 7.53621 14.9772 7.75005C15.0164 7.96389 15.0049 8.18384 14.9435 8.39249L13.2985 13.9925C13.213 14.2833 13.0346 14.5387 12.7902 14.7205C12.5458 14.9022 12.2485 15.0005 11.943 15.0005H2.412C2.03752 15.0005 1.67837 14.853 1.41357 14.5904C1.14876 14.3279 1 13.9718 1 13.6005V8.00049C1 7.62919 1.14876 7.27309 1.41357 7.01054C1.67837 6.74799 2.03752 6.60049 2.412 6.60049H4.36056C4.62326 6.60035 4.8807 6.52756 5.10395 6.39029C5.3272 6.25303 5.50741 6.05674 5.62431 5.82349L8.06001 1.00049C8.39294 1.00458 8.72064 1.08321 9.01862 1.23051C9.3166 1.3778 9.57716 1.58996 9.78082 1.85113C9.98448 2.1123 10.126 2.41572 10.1948 2.73873C10.2635 3.06174 10.2578 3.39598 10.178 3.71649V3.71649Z" stroke="#363342" stroke-width="1.5" stroke-linecap="round" stroke-linejoin="round"/>
</svg>
