<svg width="1920" height="1738" viewBox="0 0 1920 1738" fill="none" xmlns="http://www.w3.org/2000/svg">
<rect opacity="0.5" x="1920" y="78" width="934" height="412" transform="rotate(90 1920 78)" fill="url(#paint0_linear_1698_48334)"/>
<rect opacity="0.5" y="1737.42" width="662.42" height="173" transform="rotate(-90 0 1737.42)" fill="url(#paint1_linear_1698_48334)"/>
<rect opacity="0.5" x="1758" y="990.567" width="246.567" height="61.0802" transform="rotate(-90 1758 990.567)" fill="url(#paint2_linear_1698_48334)"/>
<rect opacity="0.6" x="-55" y="605" width="605" height="526" transform="rotate(-90 -55 605)" fill="url(#paint3_linear_1698_48334)"/>
<circle cx="1832.18" cy="545.18" r="25.1814" transform="rotate(-23.7033 1832.18 545.18)" fill="url(#paint4_linear_1698_48334)"/>
<circle cx="319.18" cy="819.18" r="25.1814" transform="rotate(-23.7033 319.18 819.18)" fill="url(#paint5_linear_1698_48334)"/>
<circle cx="1890.27" cy="1298.37" r="178.976" transform="rotate(36.4363 1890.27 1298.37)" fill="url(#paint6_linear_1698_48334)"/>
<defs>
<linearGradient id="paint0_linear_1698_48334" x1="2676.69" y1="84.0669" x2="2369.52" y2="438.058" gradientUnits="userSpaceOnUse">
<stop stop-color="#DFDEF8"/>
<stop offset="1" stop-color="#DEEBF8" stop-opacity="0"/>
</linearGradient>
<linearGradient id="paint1_linear_1698_48334" x1="536.663" y1="1739.97" x2="430.756" y2="1946.12" gradientUnits="userSpaceOnUse">
<stop stop-color="#DFDEF8"/>
<stop offset="1" stop-color="#DEEBF8" stop-opacity="0"/>
</linearGradient>
<linearGradient id="paint2_linear_1698_48334" x1="1957.76" y1="991.467" x2="1919.26" y2="1125.7" gradientUnits="userSpaceOnUse">
<stop stop-color="#DFDEF8"/>
<stop offset="1" stop-color="#DEEBF8" stop-opacity="0"/>
</linearGradient>
<linearGradient id="paint3_linear_1698_48334" x1="484.195" y1="742.018" x2="58.1059" y2="824.373" gradientUnits="userSpaceOnUse">
<stop stop-color="#DFDEF8"/>
<stop offset="1" stop-color="#DEEBF8" stop-opacity="0"/>
</linearGradient>
<linearGradient id="paint4_linear_1698_48334" x1="1832.18" y1="519.999" x2="1832.18" y2="570.362" gradientUnits="userSpaceOnUse">
<stop stop-color="#EFEFFC"/>
<stop offset="1" stop-color="#EFEFFC" stop-opacity="0.2"/>
</linearGradient>
<linearGradient id="paint5_linear_1698_48334" x1="319.18" y1="793.999" x2="319.18" y2="844.362" gradientUnits="userSpaceOnUse">
<stop stop-color="#EFEFFC"/>
<stop offset="1" stop-color="#EFEFFC" stop-opacity="0.2"/>
</linearGradient>
<linearGradient id="paint6_linear_1698_48334" x1="1890.27" y1="1119.39" x2="1890.27" y2="1477.35" gradientUnits="userSpaceOnUse">
<stop stop-color="#EFEFFC"/>
<stop offset="1" stop-color="#EFEFFC" stop-opacity="0.2"/>
</linearGradient>
</defs>
</svg>
