<svg width="237" height="38" viewBox="0 0 237 38" fill="none" xmlns="http://www.w3.org/2000/svg">
<path d="M76.8774 27.1705C76.5099 26.2056 75.9727 25.2199 75.2835 24.2376C72.9509 20.9216 68.9643 17.6926 64.5394 15.6584C64.2885 15.5435 64.034 15.4285 63.776 15.3206C62.9137 15.4285 62.0619 15.5818 61.2137 15.7351C54.7814 16.9124 49.4942 21.3674 49.6356 21.3709C49.625 21.3709 49.6603 21.343 49.7239 21.2978C51.0634 20.1379 52.4488 19.2636 53.912 18.8038C54.1099 18.7411 54.3114 18.6853 54.5128 18.6401C54.8309 18.5669 55.1737 18.5286 55.5342 18.5182C57.6441 18.4694 60.4327 19.483 63.0091 21.033C65.4124 22.4821 67.6248 24.3943 68.9219 26.3484C70.3603 28.515 70.5582 30.699 68.7416 32.3814C65.8259 35.0774 52.1378 31.0961 50.9857 30.7512C50.9821 30.7512 50.9821 30.7547 50.9821 30.7582C52.053 31.2284 60.3196 35.4814 67.7167 35.8158C69.1481 35.882 70.59 35.8124 71.8694 35.5163C72.9898 35.2585 74.0536 34.851 74.9583 34.231C77.5136 32.4928 77.9236 29.9222 76.8774 27.1705Z" fill="#E8E8E8"/>
<path d="M61.2132 15.7354C62.0544 15.5647 62.9097 15.4289 63.7755 15.3209C59.895 13.6768 55.7422 12.9767 52.1161 13.9555C42.3122 16.5993 35.5335 37.5996 22.7891 36.6835C22.7926 36.687 22.7997 36.6905 22.8032 36.6905C29.6843 39.2959 35.7067 37.8225 39.5837 33.9562C43.846 29.7066 46.1574 24.4086 49.6351 21.3678C49.4937 21.3678 54.7809 16.9128 61.2132 15.7354Z" fill="#E8E8E8"/>
<path d="M49.723 21.2981C49.6594 21.3434 49.6241 21.3712 49.6347 21.3712C49.6629 21.3434 49.6948 21.319 49.723 21.2981Z" fill="#E6E7E8"/>
<path d="M16.367 32.4967C15.5259 32.6673 14.6706 32.8032 13.8047 32.9112C17.6853 34.5553 21.838 35.2554 25.4676 34.2766C35.2716 31.6328 42.0503 10.6325 54.7947 11.5486C54.7876 11.5451 54.7841 11.5451 54.7806 11.5416C47.8994 8.93615 41.8771 10.4096 38 14.2759C33.7377 18.5255 31.4264 23.82 27.9487 26.8643C28.0865 26.8643 22.7993 31.3193 16.367 32.4967Z" fill="#E8E8E8"/>
<path d="M27.8594 26.934C27.923 26.8887 27.9548 26.8608 27.9477 26.8608C27.9195 26.8852 27.8912 26.9096 27.8594 26.934Z" fill="#E6E7E8"/>
<path d="M0.70669 21.061C1.07425 22.0259 1.61145 23.0116 2.30063 23.9904C4.62969 27.3064 8.61983 30.5354 13.0447 32.5696C13.2956 32.6845 13.5536 32.7995 13.8081 32.904C14.674 32.796 15.5222 32.6462 16.3704 32.4895C22.7992 31.3121 28.0899 26.8571 27.9485 26.8571C27.9591 26.8571 27.9273 26.885 27.8602 26.9303C26.5207 28.0867 25.1353 28.9645 23.6721 29.4242C23.4742 29.4869 23.2763 29.5427 23.0713 29.5879C22.7532 29.6611 22.4104 29.6994 22.0464 29.7099C19.9364 29.7586 17.1479 28.745 14.5715 27.195C12.1682 25.746 9.95577 23.8337 8.65871 21.8796C7.22028 19.7095 6.90927 17.4942 8.73293 15.8118C11.6487 13.1158 25.4746 17.1389 26.3793 17.4071C26.3793 17.4071 26.3829 17.4036 26.3864 17.4002C25.7255 17.0588 17.1585 12.7117 9.76139 12.3773C8.33003 12.3112 6.94107 12.3982 5.66168 12.6943C4.54133 12.9521 3.50227 13.3701 2.5975 13.9866C0.042255 15.7282 -0.339442 18.3093 0.70669 21.061Z" fill="#E8E8E8"/>
<path d="M49.042 28.1986C49.1693 30.6229 44.5712 32.6258 38.7716 32.6815C32.9719 32.7338 28.1689 30.8145 28.0416 28.3902C27.9144 25.9694 32.5124 23.9595 38.3121 23.9073C44.1118 23.855 48.9183 25.7743 49.042 28.1986Z" fill="#E8E8E8"/>
<path d="M16.8828 6.70361C16.8828 6.70361 28.0333 9.62952 38.2649 19.5428C48.698 29.6511 58.5267 33.1204 64.2521 34.7261C64.2521 34.7261 58.3111 30.6717 56.0209 30.0656C46.5209 27.5577 33.2675 12.8201 21.5409 6.78024" fill="#E24E26"/>
<path d="M49.042 19.0242C49.1693 24.7402 44.5712 29.4739 38.7716 29.5993C32.9719 29.7247 28.1689 25.193 28.0416 19.477C27.9144 13.761 32.5124 9.02735 38.3121 8.90195C44.1118 8.77656 48.9183 13.3082 49.042 19.0242Z" fill="url(#paint0_radial_1966_3799)"/>
<path d="M61.0393 7.6649C61.8805 7.43849 62.7357 7.25736 63.5981 7.11455C59.7034 4.82259 55.5436 3.82987 51.9245 5.14653C42.1418 8.69942 35.5363 37.4952 22.7812 36.1333C22.7848 36.1368 22.7919 36.1402 22.7989 36.1437C29.7013 39.7802 35.713 37.8052 39.5618 32.5247C43.7887 26.7216 46.0577 19.4626 49.5106 15.3141C49.3657 15.3106 54.6176 9.22887 61.0393 7.6649Z" fill="url(#paint1_linear_1966_3799)"/>
<path d="M76.8044 23.4993C76.4297 22.1687 75.8819 20.8103 75.1857 19.4588C72.8248 14.8818 68.8099 10.4164 64.3674 7.58449C64.1129 7.42426 63.8585 7.26752 63.6005 7.11426C62.7381 7.25707 61.8899 7.45561 61.0417 7.66461C54.62 9.22857 49.3681 15.3103 49.5095 15.3103C49.4989 15.3103 49.5307 15.272 49.5943 15.2093C50.9267 13.6279 52.3051 12.4366 53.7612 11.8201C53.9591 11.7365 54.157 11.6599 54.362 11.5972C54.6801 11.4996 55.0229 11.4474 55.3834 11.4404C57.4933 11.3917 60.2924 12.8058 62.8795 14.955C65.2934 16.9648 67.5235 19.6121 68.8382 22.3081C70.2943 25.2967 70.5134 28.2992 68.7074 30.5947C65.8129 34.2729 52.4924 28.8879 49.2656 26.8537C49.2621 26.8572 52.0047 28.8774 52.0047 28.8774C54.9345 30.7375 60.3101 34.7885 67.7108 35.3075C69.1421 35.4085 70.5841 35.3249 71.8635 34.9313C72.9803 34.5864 74.0406 34.0326 74.9418 33.1931C77.4829 30.8211 77.8752 27.2891 76.8044 23.4993Z" fill="url(#paint2_radial_1966_3799)"/>
<path d="M16.3244 30.3303C15.4833 30.5567 14.6315 30.7379 13.7656 30.8807C17.6603 33.1726 21.8201 34.1653 25.4392 32.8487C35.2219 29.2958 41.831 0.499997 54.5825 1.86194C54.5754 1.85845 54.5719 1.85497 54.5683 1.85497C47.666 -1.78151 41.6542 0.193474 37.8055 5.47404C33.5785 11.2771 31.3095 18.5326 27.8566 22.6846C27.998 22.6846 22.7461 28.7663 16.3244 30.3303Z" fill="url(#paint3_linear_1966_3799)"/>
<path d="M0.565535 14.4958C0.940163 15.8264 1.48797 17.1849 2.18421 18.5364C4.54155 23.1133 8.55997 27.5823 13.0025 30.4142C13.257 30.5744 13.5114 30.7311 13.7659 30.8809C14.6318 30.7381 15.4765 30.5396 16.3247 30.3306C22.7464 28.7666 28.0018 22.6849 27.8569 22.6849C27.8675 22.6849 27.8357 22.7232 27.7685 22.7859C26.4396 24.3673 25.0613 25.5586 23.6017 26.1786C23.4037 26.2622 23.2058 26.3388 23.0044 26.4015C22.6863 26.499 22.3435 26.5513 21.9794 26.5582C19.873 26.607 17.0739 25.1928 14.4833 23.0437C12.0659 21.0373 9.83936 18.3866 8.52462 15.6906C7.06852 12.6985 6.73984 9.65069 8.54583 7.35524C11.4404 3.67696 25.3016 9.31281 26.2099 9.689C26.2135 9.68552 26.2135 9.68203 26.217 9.67855C25.5526 9.20483 16.9467 3.16493 9.54602 2.64593C8.11819 2.54143 6.72923 2.64593 5.45338 3.03953C4.33656 3.38785 3.30103 3.95214 2.3998 4.79159C-0.141311 7.16367 -0.505337 10.7061 0.565535 14.4958Z" fill="url(#paint4_radial_1966_3799)"/>
<path d="M199.714 23.0479H188.195V11.1463H191.568V14.745H196.341V11.1463H199.714V23.0479ZM196.341 20.4376V17.3351H191.568V20.4376H196.341ZM206.104 32.3109H192.227V24.6939H195.682V29.6805H206.104V32.3109ZM209.15 18.3921H205.613V26.0575H202.158V9.50024H205.613V15.5438H209.15V18.3921Z" fill="#E24E26"/>
<path d="M229.495 19.4252H224.313V20.7647H233.417V23.3749H211.75V20.7647H220.854V19.4252H215.672V10.2751H219.045V12.4618H226.122V10.2751H229.495V19.4252ZM229.332 32.759H225.877V27.0664H215.152V24.4804H229.332V32.759ZM226.122 16.815V15.0277H219.045V16.815H226.122Z" fill="#E24E26"/>
<path d="M95.7949 27.0946C96.4048 27.1269 96.937 27.0301 97.3873 26.8001C97.8417 26.5742 98.1937 26.2716 98.4557 25.8923C98.734 25.4365 98.9428 24.9443 99.0779 24.4198C99.2171 23.8953 99.2867 23.3103 99.2867 22.6648V11.9373H102.778V22.8262C102.778 23.5483 102.701 24.3109 102.541 25.1137C102.385 25.9166 102.046 26.6549 101.53 27.3286C101.031 28.0185 100.31 28.5995 99.3685 29.0594C98.427 29.5233 97.2358 29.7533 95.7908 29.7533C94.3499 29.7533 93.1587 29.5233 92.2131 29.0594C91.2716 28.5954 90.5511 28.0185 90.0517 27.3286C89.5359 26.6549 89.2003 25.9125 89.0529 25.1016C88.9096 24.2947 88.8359 23.5362 88.8359 22.8262V11.9373H92.3277V22.6648C92.3277 23.3103 92.3932 23.8953 92.5201 24.4198C92.6511 24.9483 92.8517 25.4365 93.13 25.8923C93.3879 26.2676 93.74 26.5661 94.1821 26.7759C94.6283 26.9857 95.1645 27.0946 95.7949 27.0946Z" fill="#E24E26"/>
<path d="M116.781 29.4999H113.343V21.6731C113.343 20.8259 113.138 20.1481 112.733 19.6478C112.475 19.3332 112.041 19.1758 111.431 19.1758C110.895 19.1758 110.367 19.43 109.851 19.9424C109.335 20.4547 108.946 21.2414 108.688 22.3106C108.615 22.5768 108.565 22.8431 108.537 23.1013C108.508 23.3595 108.496 23.6621 108.496 24.0091V29.4999H105.086V16.8641H108.496V17.9009C108.848 17.5096 109.319 17.1909 109.908 16.9448C110.502 16.7027 111.046 16.5776 111.545 16.5776C113.207 16.5776 114.493 16.9649 115.397 17.7315C116.323 18.5182 116.785 19.6559 116.785 21.1486V29.4999H116.781Z" fill="#E24E26"/>
<path d="M122.709 15.2861H118.828V11.9375H122.709V15.2861ZM122.545 29.4994H119.053V16.8635H122.545V29.4994Z" fill="#E24E26"/>
<path d="M137.015 16.8633L131.943 29.4991H129.032L123.461 16.8633H127.01L130.473 25.0653L133.662 16.8633H137.015Z" fill="#E24E26"/>
<path d="M140.812 24.2669C140.865 24.4888 140.939 24.7066 141.033 24.9285C141.181 25.2916 141.414 25.6467 141.725 26.0017C142.04 26.3567 142.437 26.6593 142.916 26.9094C143.064 26.9901 143.305 27.0668 143.637 27.1434C143.968 27.2241 144.365 27.2604 144.828 27.2604C145.364 27.2604 145.978 27.1797 146.67 27.0143C147.362 26.8489 148.123 26.5544 148.958 26.1308V28.7007C147.98 29.205 147.034 29.5238 146.13 29.669C145.225 29.8102 144.308 29.8425 143.387 29.7618C142.593 29.6851 141.803 29.4794 141.017 29.1485C140.231 28.8177 139.6 28.4264 139.117 27.9705C138.565 27.4057 138.094 26.6996 137.717 25.8605C137.337 25.0213 137.148 24.049 137.148 22.9476C137.148 22.0358 137.288 21.2007 137.566 20.4382C137.844 19.6757 138.25 19.0221 138.786 18.4694C139.322 17.9207 139.998 17.4689 140.808 17.1138C141.623 16.7588 142.581 16.5813 143.69 16.5813C144.615 16.5813 145.475 16.7507 146.269 17.0896C147.063 17.4285 147.681 17.8562 148.127 18.3726C148.942 19.2844 149.347 20.7771 149.347 22.8508V24.2629H140.812V24.2669ZM140.755 21.7897H145.913C145.913 21.0676 145.757 20.4463 145.442 19.9258C145.274 19.6757 145.037 19.4659 144.721 19.3005C144.406 19.1351 144.054 19.0544 143.669 19.0544C142.892 19.0544 142.2 19.3852 141.59 20.0428C141.164 20.5028 140.886 21.0837 140.755 21.7897Z" fill="#E24E26"/>
<path d="M159.554 19.4094C158.703 19.4094 158.052 19.4578 157.602 19.5506C157.147 19.6434 156.718 19.7846 156.312 19.9743C155.907 20.18 155.535 20.4503 155.203 20.7892C154.871 21.1281 154.65 21.5396 154.54 22.0278C154.392 22.6571 154.319 23.3793 154.319 24.1983V29.5036H150.938V16.8637H154.319V18.3C154.597 18.0014 154.937 17.7271 155.342 17.4769C156.32 16.896 157.725 16.5974 159.554 16.5813V19.4094Z" fill="#E24E26"/>
<path d="M170.252 25.961C170.252 26.5097 170.137 27.0261 169.904 27.5062C169.67 27.9863 169.335 28.3816 168.893 28.6963C168.414 29.0433 167.759 29.3055 166.94 29.4871C166.117 29.6686 165.233 29.7574 164.292 29.7574C163.199 29.7574 161.733 29.5153 159.883 29.0271V25.9852C160.734 26.4249 161.561 26.7477 162.363 26.9534C163.166 27.1592 163.808 27.2601 164.292 27.2601C165.123 27.2601 165.716 27.1874 166.064 27.0462C166.563 26.7961 166.813 26.4733 166.813 26.078C166.813 25.8117 166.727 25.5777 166.551 25.3841C166.375 25.1864 166.113 25.0048 165.761 24.8313C165.409 24.674 164.906 24.4803 164.251 24.2544C163.596 24.0285 162.945 23.7783 162.298 23.5121C161.725 23.2619 161.189 22.8746 160.689 22.3582C160.19 21.8378 159.94 21.156 159.94 20.3087C159.94 19.1307 160.431 18.2149 161.41 17.5613C162.388 16.9077 163.645 16.585 165.18 16.585C166.473 16.585 167.906 16.8149 169.478 17.2708V20.1474C168.516 19.7237 167.71 19.4333 167.051 19.2759C166.396 19.1186 165.753 19.0419 165.123 19.0419C164.586 19.0419 164.152 19.1347 163.821 19.3243C163.489 19.514 163.321 19.7802 163.321 20.1272C163.321 20.3612 163.375 20.5548 163.489 20.7041C163.6 20.8534 163.792 21.0148 164.07 21.1882C164.386 21.3456 164.922 21.5554 165.679 21.8136C166.437 22.0718 167.112 22.33 167.701 22.5801C168.365 22.8787 168.958 23.3023 169.474 23.851C169.99 24.3916 170.252 25.0976 170.252 25.961Z" fill="#E24E26"/>
<path d="M174.523 24.2669C174.58 24.4888 174.654 24.7066 174.744 24.9285C174.891 25.2916 175.121 25.6467 175.436 26.0017C175.751 26.3567 176.148 26.6593 176.627 26.9094C176.775 26.9901 177.016 27.0668 177.348 27.1434C177.679 27.2241 178.076 27.2604 178.539 27.2604C179.075 27.2604 179.689 27.1797 180.381 27.0143C181.073 26.8489 181.838 26.5544 182.669 26.1308V28.7007C181.691 29.205 180.745 29.5238 179.841 29.669C178.936 29.8142 178.019 29.8425 177.098 29.7618C176.304 29.6851 175.514 29.4794 174.728 29.1485C173.942 28.8177 173.307 28.4264 172.828 27.9705C172.276 27.4057 171.805 26.6996 171.428 25.8605C171.048 25.0213 170.859 24.049 170.859 22.9476C170.859 22.0358 170.999 21.2007 171.277 20.4382C171.555 19.6757 171.961 19.0221 172.497 18.4694C173.033 17.9207 173.708 17.4689 174.519 17.1138C175.334 16.7588 176.291 16.5813 177.401 16.5813C178.326 16.5813 179.186 16.7507 179.98 17.0896C180.774 17.4285 181.392 17.8562 181.838 18.3726C182.653 19.2844 183.058 20.7771 183.058 22.8508V24.2629H174.523V24.2669ZM174.466 21.7897H179.624C179.624 21.0676 179.468 20.4463 179.153 19.9258C178.985 19.6757 178.748 19.4659 178.432 19.3005C178.117 19.1351 177.769 19.0544 177.38 19.0544C176.603 19.0544 175.911 19.3852 175.301 20.0428C174.871 20.5028 174.597 21.0837 174.466 21.7897Z" fill="#E24E26"/>
<defs>
<radialGradient id="paint0_radial_1966_3799" cx="0" cy="0" r="1" gradientUnits="userSpaceOnUse" gradientTransform="translate(33.6239 13.6436) scale(19.8574 19.5708)">
<stop offset="0.0070508" stop-color="white"/>
<stop offset="0.0908" stop-color="#FDF0DA"/>
<stop offset="0.2529" stop-color="#F5CC83"/>
<stop offset="0.547" stop-color="#F2BA58"/>
<stop offset="0.7374" stop-color="#EFAD39"/>
<stop offset="0.8197" stop-color="#EEA935"/>
<stop offset="0.9134" stop-color="#EC9E28"/>
<stop offset="1" stop-color="#E98E14"/>
</radialGradient>
<linearGradient id="paint1_linear_1966_3799" x1="53.7244" y1="8.03952" x2="29.9882" y2="39.5565" gradientUnits="userSpaceOnUse">
<stop stop-color="#F2B322"/>
<stop offset="0.5634" stop-color="#EA803E"/>
<stop offset="1" stop-color="#E24E26"/>
</linearGradient>
<radialGradient id="paint2_radial_1966_3799" cx="0" cy="0" r="1" gradientUnits="userSpaceOnUse" gradientTransform="translate(51.8801 19.5039) scale(23.8115 23.4678)">
<stop stop-color="white"/>
<stop offset="0.3879" stop-color="#F2B322"/>
<stop offset="0.7091" stop-color="#EA803E"/>
<stop offset="1" stop-color="#E24E26"/>
</radialGradient>
<linearGradient id="paint3_linear_1966_3799" x1="46.8582" y1="-0.321137" x2="20.9338" y2="34.7968" gradientUnits="userSpaceOnUse">
<stop stop-color="#F2B322"/>
<stop offset="0.5634" stop-color="#EA803E"/>
<stop offset="1" stop-color="#E24E26"/>
</linearGradient>
<radialGradient id="paint4_radial_1966_3799" cx="0" cy="0" r="1" gradientUnits="userSpaceOnUse" gradientTransform="translate(17.9956 17.0511) scale(20.153 19.8622)">
<stop stop-color="white"/>
<stop offset="0.3879" stop-color="#F2B322"/>
<stop offset="0.7091" stop-color="#EA803E"/>
<stop offset="1" stop-color="#E24E26"/>
</radialGradient>
</defs>
</svg>
